if (_typeface_js && _typeface_js.loadFace) _typeface_js.loadFace({"glyphs":{"0":{"ha":694,"x_min":0,"x_max":0,"o":"m 635 453 b 571 804 635 563 629 692 b 347 942 514 908 418 942 b 111 781 265 942 168 904 b 58 453 65 679 58 564 b 106 140 58 343 64 242 b 346 -31 161 7 267 -31 b 579 122 447 -31 535 26 b 635 453 621 213 635 304 z m 526 469 b 501 203 526 378 526 290 b 347 54 465 76 392 54 b 190 207 275 54 218 107 b 167 469 168 286 167 361 b 190 717 167 557 167 640 b 346 857 199 743 233 857 b 500 726 454 857 490 751 b 526 469 526 649 526 556 z "},"1":{"ha":694,"x_min":0,"x_max":0,"o":"m 589 0 l 589 81 l 415 81 l 415 942 l 388 942 b 124 850 306 857 190 853 l 124 769 b 306 803 169 771 236 774 l 306 81 l 132 81 l 132 0 z "},"2":{"ha":694,"x_min":0,"x_max":0,"o":"m 624 0 l 624 99 l 371 99 b 321 97 354 99 338 97 l 169 97 b 363 281 214 136 319 240 b 486 389 389 306 460 364 b 624 643 549 451 624 525 b 328 942 624 803 511 942 b 58 714 169 942 92 833 b 85 678 75 690 82 682 b 115 638 88 675 101 657 b 308 853 143 744 182 853 b 510 640 439 853 510 749 b 349 360 510 522 431 443 l 242 261 l 69 89 l 69 0 z "},"3":{"ha":694,"x_min":0,"x_max":0,"o":"m 635 250 b 443 492 635 376 538 463 b 597 731 549 549 597 643 b 344 942 597 850 482 942 b 78 789 238 942 136 886 l 128 714 b 343 861 168 811 258 861 b 483 731 415 861 483 819 b 342 544 483 646 426 564 b 232 535 333 543 331 543 l 232 450 l 331 450 b 511 251 481 450 511 321 b 340 54 511 143 447 54 b 74 197 244 54 135 103 l 58 114 b 343 -31 160 -17 288 -31 b 635 250 513 -31 635 104 z "},"4":{"ha":694,"x_min":0,"x_max":0,"o":"m 654 238 l 654 322 l 517 322 l 517 911 l 390 911 l 39 322 l 39 238 l 407 238 l 407 0 l 517 0 l 517 238 z m 415 322 l 147 322 b 415 850 219 442 414 771 z "},"5":{"ha":694,"x_min":0,"x_max":0,"o":"m 624 282 b 361 593 624 456 504 593 b 213 536 306 593 253 572 l 213 822 l 578 822 l 578 911 l 113 911 l 113 399 l 204 399 b 360 508 228 454 279 508 b 500 285 425 508 500 451 b 318 54 500 54 331 54 b 100 183 225 54 140 108 l 54 106 b 319 -31 111 26 207 -31 b 624 282 485 -31 624 107 z "},"6":{"ha":694,"x_min":0,"x_max":0,"o":"m 635 308 b 410 642 635 486 543 642 b 175 526 365 642 260 631 b 431 861 193 750 303 861 b 576 832 483 861 528 851 l 576 914 b 429 942 506 942 449 942 b 58 447 233 942 58 746 b 349 -31 58 54 231 -31 b 546 64 432 -31 492 1 b 635 308 608 135 635 199 z m 521 308 b 488 140 521 261 521 197 b 349 54 464 101 428 54 b 176 304 201 54 181 258 b 178 343 176 324 176 326 b 356 557 178 446 240 557 b 489 471 422 557 461 522 b 521 308 518 419 521 371 z "},"7":{"ha":694,"x_min":0,"x_max":0,"o":"m 635 821 l 635 911 l 58 911 l 58 813 l 322 813 b 372 814 339 813 356 814 l 540 814 b 211 -15 335 588 211 310 l 328 -15 b 635 821 328 401 526 699 z "},"8":{"ha":694,"x_min":0,"x_max":0,"o":"m 635 250 b 444 493 635 376 538 461 b 615 699 568 533 615 625 b 347 942 615 829 497 942 b 78 699 192 942 78 826 b 249 493 78 625 125 533 b 58 250 149 458 58 371 b 346 -31 58 99 186 -31 b 635 250 511 -31 635 103 z m 518 699 b 347 535 518 599 447 535 b 175 699 240 535 175 603 b 346 861 175 794 243 861 b 518 699 456 861 518 789 z m 522 251 b 347 54 522 117 436 54 b 171 251 251 54 171 121 b 346 450 171 397 271 450 b 522 251 426 450 522 394 z "},"9":{"ha":694,"x_min":0,"x_max":0,"o":"m 635 465 b 351 942 635 854 469 942 b 149 849 254 942 197 900 b 58 603 61 754 58 663 b 283 269 58 425 150 269 b 518 385 369 269 458 310 b 286 54 503 161 396 54 b 143 107 239 54 193 65 l 100 33 b 285 -31 147 -1 199 -31 b 635 465 467 -31 635 163 z m 515 571 b 338 354 515 457 447 354 b 204 438 272 354 233 386 b 172 603 174 492 172 543 b 213 782 172 664 174 721 b 351 861 240 822 279 861 b 514 604 488 861 511 672 b 515 571 515 594 515 581 z "}," ":{"ha":463,"x_min":0,"x_max":0,"o":""},"!":{"ha":443,"x_min":0,"x_max":0,"o":"m 279 964 l 164 964 l 175 303 l 175 243 l 268 243 l 268 303 z m 279 0 l 279 115 l 164 115 l 164 0 z "},"\"":{"ha":603,"x_min":0,"x_max":0,"o":"m 247 597 l 247 994 l 139 994 l 139 597 z m 464 597 l 464 994 l 356 994 l 356 597 z "},"#":{"ha":1157,"x_min":0,"x_max":0,"o":"m 1078 208 b 1031 236 1078 236 1051 236 l 736 236 l 794 458 l 1031 458 b 1078 486 1051 458 1078 458 b 1032 514 1078 514 1051 514 l 811 514 l 918 911 b 924 936 919 914 924 931 b 896 964 924 951 911 964 b 865 931 874 964 869 946 l 754 514 l 493 514 l 600 911 b 606 936 601 914 606 931 b 578 964 606 951 593 964 b 547 931 556 964 551 946 l 436 514 l 124 514 b 78 486 104 514 78 514 b 125 458 78 458 104 458 l 419 458 l 361 236 l 125 236 b 78 208 104 236 78 236 b 124 181 78 181 104 181 l 344 181 l 238 -217 b 232 -242 236 -219 232 -236 b 260 -269 232 -257 244 -269 b 290 -236 282 -269 286 -251 l 401 181 l 663 181 l 556 -217 b 550 -242 554 -219 550 -236 b 578 -269 550 -257 563 -269 b 608 -236 600 -269 604 -251 l 719 181 l 1032 181 b 1078 208 1051 181 1078 181 z m 738 458 l 679 236 l 418 236 l 476 458 z "},"$":{"ha":694,"x_min":0,"x_max":0,"o":"m 615 271 b 388 554 615 386 546 522 l 388 889 b 576 810 474 881 529 847 l 593 901 b 388 978 508 960 447 974 l 388 1042 l 307 1042 l 307 976 b 78 713 151 949 78 824 b 307 447 78 651 104 494 l 307 75 b 78 175 239 82 150 111 l 61 81 b 307 -14 96 56 178 -1 l 307 -78 l 388 -78 l 388 -11 b 615 271 526 13 615 138 z m 307 575 b 179 731 213 599 179 674 b 307 886 179 800 226 867 z m 514 253 b 388 79 514 182 474 104 l 388 428 b 514 253 463 407 514 335 z "},"%":{"ha":1157,"x_min":0,"x_max":0,"o":"m 463 761 b 272 1042 463 928 369 1042 b 78 763 171 1042 78 925 b 272 482 78 596 174 482 b 463 761 371 482 463 600 z m 915 1014 b 888 1042 915 1029 903 1042 b 858 1019 871 1042 864 1028 l 254 -25 b 244 -50 254 -25 244 -40 b 272 -78 244 -65 258 -78 b 301 -56 288 -78 294 -68 l 904 989 b 915 1014 915 1006 915 1008 z m 1078 201 b 888 482 1078 368 985 482 b 693 203 786 482 693 365 b 888 -78 693 36 789 -78 b 1078 201 986 -78 1078 40 z m 367 763 b 272 567 367 656 326 567 b 182 761 257 567 182 571 b 272 957 182 946 253 957 b 367 763 328 957 367 864 z m 982 203 b 888 7 982 96 942 7 b 797 201 872 7 797 11 b 888 397 797 386 868 397 b 982 203 943 397 982 304 z "},"&":{"ha":1053,"x_min":0,"x_max":0,"o":"m 974 -10 l 974 83 b 814 58 899 60 833 58 b 669 110 751 58 711 81 b 924 538 797 221 878 375 l 838 563 b 744 340 803 438 754 356 b 603 169 690 247 636 196 b 386 476 561 214 449 344 b 596 776 521 596 596 685 b 417 994 596 882 528 994 b 225 719 299 994 225 868 b 263 504 225 629 249 546 b 267 490 267 494 267 490 b 254 475 267 490 265 486 b 224 447 246 467 239 461 b 121 357 196 424 131 368 b 58 203 76 308 58 257 b 313 -31 58 78 165 -31 b 589 50 449 -31 547 26 b 813 -31 672 -14 746 -31 b 974 -10 829 -31 890 -31 z m 500 778 b 353 561 500 707 438 639 b 315 767 315 658 315 756 b 415 910 315 871 372 910 b 500 778 489 910 500 813 z m 518 111 b 314 58 431 65 351 58 b 167 213 215 58 167 142 b 214 326 167 265 190 304 b 304 406 215 329 294 397 b 518 111 371 272 503 126 z "},"'":{"ha":386,"x_min":0,"x_max":0,"o":"m 247 597 l 247 994 l 139 994 l 139 597 z "},"(":{"ha":540,"x_min":0,"x_max":0,"o":"m 461 -347 b 218 347 394 -281 218 -101 b 279 751 218 425 222 588 b 461 1042 336 913 415 996 l 376 1042 b 175 744 332 1000 239 915 b 110 347 119 596 110 449 b 376 -347 110 -101 310 -286 z "},")":{"ha":540,"x_min":0,"x_max":0,"o":"m 429 347 b 163 1042 429 796 229 981 l 78 1042 b 321 347 144 975 321 796 b 260 -57 321 269 317 107 b 78 -347 203 -218 124 -301 l 163 -347 b 364 -50 207 -306 300 -221 b 429 347 419 99 429 246 z "},"*":{"ha":694,"x_min":0,"x_max":0,"o":"m 604 606 b 585 643 604 622 597 635 b 417 733 575 650 529 672 l 568 815 b 604 861 590 828 604 835 b 557 911 604 894 576 911 b 517 893 542 911 536 907 l 383 800 b 394 993 386 842 394 958 b 347 1042 394 1031 364 1042 b 299 993 325 1042 299 1028 b 310 800 299 958 307 842 l 174 896 b 136 911 153 911 143 911 b 89 861 117 911 89 894 b 108 824 89 844 96 832 b 276 733 118 817 164 794 l 125 651 b 89 606 103 639 89 632 b 136 556 89 572 117 556 b 176 574 151 556 157 560 l 310 667 b 299 474 307 625 299 508 b 346 425 299 436 329 425 b 394 474 368 425 394 439 b 383 667 394 508 386 625 l 513 578 b 557 556 536 560 542 556 b 604 606 576 556 604 572 z "},"+":{"ha":1081,"x_min":0,"x_max":0,"o":"m 1001 347 b 956 375 1001 375 975 375 l 568 375 l 568 764 b 540 810 568 783 568 810 b 513 764 513 810 513 783 l 513 375 l 124 375 b 78 347 104 375 78 375 b 124 319 78 319 104 319 l 513 319 l 513 -69 b 540 -115 513 -89 513 -115 b 568 -69 568 -115 568 -89 l 568 319 l 956 319 b 1001 347 975 319 1001 319 z "},",":{"ha":386,"x_min":0,"x_max":0,"o":"m 250 1 l 250 115 l 135 115 l 135 0 l 169 0 l 135 -174 l 192 -174 z "},"-":{"ha":463,"x_min":0,"x_max":0,"o":"m 383 268 l 383 349 l 15 349 l 15 268 z "},".":{"ha":386,"x_min":0,"x_max":0,"o":"m 250 0 l 250 115 l 135 115 l 135 0 z "},"/":{"ha":694,"x_min":0,"x_max":0,"o":"m 615 1014 b 588 1042 615 1029 603 1042 b 558 1014 568 1042 563 1028 l 85 -294 b 78 -319 78 -312 78 -319 b 106 -347 78 -335 90 -347 b 135 -319 125 -347 131 -333 l 608 989 b 615 1014 615 1007 615 1014 z "},":":{"ha":386,"x_min":0,"x_max":0,"o":"m 250 501 l 250 617 l 135 617 l 135 501 z m 250 0 l 250 115 l 135 115 l 135 0 z "},";":{"ha":386,"x_min":0,"x_max":0,"o":"m 250 501 l 250 617 l 135 617 l 135 501 z m 250 1 l 250 115 l 135 115 l 135 0 l 169 0 l 135 -174 l 192 -174 z "},"<":{"ha":1081,"x_min":0,"x_max":0,"o":"m 964 -28 b 938 3 964 -12 954 -6 l 208 347 l 938 692 b 964 722 954 700 964 707 b 936 750 964 738 951 750 b 911 740 932 750 929 750 l 142 378 b 115 347 126 371 115 364 b 142 317 115 331 126 324 l 911 -46 b 936 -56 929 -56 932 -56 b 964 -28 951 -56 964 -43 z "},"=":{"ha":1081,"x_min":0,"x_max":0,"o":"m 1001 486 b 956 514 1001 514 975 514 l 124 514 b 78 486 104 514 78 514 b 125 458 78 458 104 458 l 954 458 b 1001 486 975 458 1001 458 z m 1001 208 b 954 236 1001 236 975 236 l 125 236 b 78 208 104 236 78 236 b 124 181 78 181 104 181 l 956 181 b 1001 208 975 181 1001 181 z "},">":{"ha":1081,"x_min":0,"x_max":0,"o":"m 964 347 b 938 378 964 364 953 371 l 168 740 b 143 750 150 750 147 750 b 115 722 128 750 115 738 b 142 692 115 710 122 701 l 871 347 l 142 3 b 115 -28 122 -7 115 -15 b 143 -56 115 -43 128 -56 b 168 -46 147 -56 150 -56 l 938 317 b 964 347 953 324 964 331 z "},"?":{"ha":656,"x_min":0,"x_max":0,"o":"m 576 764 b 311 979 576 858 521 979 b 78 906 226 979 151 956 l 110 818 b 311 894 143 849 211 894 b 468 765 376 894 468 883 b 419 660 468 703 438 676 b 261 288 261 525 261 347 l 261 243 l 354 243 l 354 318 b 497 597 354 414 401 517 b 576 764 524 619 576 664 z m 365 0 l 365 115 l 250 115 l 250 0 z "},"@":{"ha":926,"x_min":0,"x_max":0,"o":"m 847 118 l 781 118 b 746 113 760 118 757 118 b 543 69 658 75 585 69 b 182 482 339 69 182 256 b 536 894 182 725 357 894 b 707 763 596 894 669 868 b 590 797 674 783 632 797 b 333 482 454 797 333 663 b 590 167 333 301 454 167 b 847 503 685 167 847 246 b 538 979 847 625 846 979 b 78 482 294 979 78 764 b 539 -15 78 201 290 -15 b 847 118 692 -15 800 65 z m 743 482 b 590 251 743 351 672 251 b 438 482 508 251 438 350 b 590 713 438 613 508 713 b 743 482 672 713 743 614 z "},"A":{"ha":926,"x_min":0,"x_max":0,"o":"m 886 0 l 524 964 l 401 964 l 39 0 l 142 0 l 249 283 l 653 283 l 758 0 z m 622 361 l 278 361 b 368 613 349 560 297 414 b 450 864 397 694 440 813 l 451 864 b 496 718 454 844 464 810 z "},"B":{"ha":926,"x_min":0,"x_max":0,"o":"m 847 261 b 579 504 847 382 726 481 b 810 722 706 536 810 617 b 464 964 810 850 661 964 l 135 964 l 135 0 l 501 0 b 847 261 701 0 847 125 z m 701 721 b 411 543 701 638 603 543 l 250 543 l 250 886 l 425 886 b 701 721 579 886 701 813 z m 735 263 b 463 78 735 158 613 78 l 250 78 l 250 458 l 451 458 b 735 263 599 458 735 374 z "},"C":{"ha":888,"x_min":0,"x_max":0,"o":"m 817 47 l 808 143 b 550 58 708 72 646 58 b 217 482 340 58 217 269 b 546 906 217 708 353 906 b 781 833 656 906 722 871 l 801 946 b 547 994 714 979 639 994 b 93 482 281 994 93 754 b 549 -31 93 214 278 -31 b 817 47 664 -31 718 -12 z "},"D":{"ha":1003,"x_min":0,"x_max":0,"o":"m 924 474 b 497 964 924 743 736 964 l 133 964 l 133 0 l 499 0 b 924 474 735 0 924 211 z m 804 474 b 465 78 804 238 660 78 l 253 78 l 253 886 l 465 886 b 804 474 660 886 804 718 z "},"E":{"ha":829,"x_min":0,"x_max":0,"o":"m 769 0 l 769 99 l 594 99 b 544 97 578 99 561 97 l 254 97 l 254 457 l 713 457 l 713 542 l 254 542 l 254 871 l 446 871 b 496 869 463 871 479 869 l 750 869 l 750 960 l 131 960 l 131 0 z "},"F":{"ha":790,"x_min":0,"x_max":0,"o":"m 731 869 l 731 960 l 131 960 l 131 0 l 254 0 l 254 438 l 674 438 l 674 522 l 254 522 l 254 871 l 436 871 b 486 869 453 871 469 869 z "},"G":{"ha":926,"x_min":0,"x_max":0,"o":"m 832 38 l 832 415 l 540 415 l 540 331 l 724 331 l 724 86 b 544 58 646 63 579 58 b 217 482 356 58 217 251 b 544 906 217 713 356 906 b 800 814 633 906 714 885 l 821 926 b 546 994 746 961 676 994 b 93 482 285 994 93 758 b 543 -31 93 199 292 -31 b 832 38 679 -31 789 17 z "},"H":{"ha":983,"x_min":0,"x_max":0,"o":"m 851 0 l 851 964 l 728 964 l 728 543 l 254 543 l 254 964 l 131 964 l 131 0 l 254 0 l 254 458 l 728 458 l 728 0 z "},"I":{"ha":386,"x_min":0,"x_max":0,"o":"m 254 0 l 254 964 l 131 964 l 131 0 z "},"J":{"ha":656,"x_min":0,"x_max":0,"o":"m 539 207 l 539 964 l 419 964 l 419 211 b 256 54 419 188 419 54 b 78 132 197 54 125 79 l 58 28 b 296 -31 92 11 179 -31 b 539 207 439 -31 539 50 z "},"K":{"ha":964,"x_min":0,"x_max":0,"o":"m 904 0 l 513 583 l 885 964 l 756 964 l 251 449 l 251 964 l 133 964 l 133 0 l 251 0 l 251 315 l 436 506 l 776 0 z "},"L":{"ha":753,"x_min":0,"x_max":0,"o":"m 693 0 l 693 92 l 322 89 l 254 89 l 254 964 l 131 964 l 131 0 z "},"M":{"ha":1215,"x_min":0,"x_max":0,"o":"m 1075 0 l 1075 964 l 917 964 l 736 493 b 607 129 688 367 622 194 l 606 129 b 561 268 599 158 582 210 l 343 843 l 296 964 l 139 964 l 139 0 l 247 0 l 247 861 l 249 861 b 349 571 257 817 313 665 l 554 31 l 656 31 l 840 514 l 907 690 b 965 863 921 731 958 831 l 967 861 l 967 0 z "},"N":{"ha":983,"x_min":0,"x_max":0,"o":"m 849 0 l 849 964 l 740 964 l 740 99 l 739 99 l 646 289 l 306 964 l 133 964 l 133 0 l 242 0 l 242 865 l 243 865 l 336 675 l 676 0 z "},"O":{"ha":1022,"x_min":0,"x_max":0,"o":"m 943 479 b 511 994 943 771 742 994 b 78 479 275 994 78 768 b 510 -31 78 185 283 -31 b 943 479 742 -31 943 188 z m 819 500 b 511 60 819 229 669 60 b 201 500 347 60 201 233 b 510 906 201 754 354 906 b 819 500 671 906 819 749 z "},"P":{"ha":888,"x_min":0,"x_max":0,"o":"m 808 683 b 479 964 808 832 671 964 l 133 964 l 133 0 l 257 0 l 257 401 l 489 401 b 808 683 661 401 808 528 z m 696 683 b 449 482 696 574 608 482 l 253 482 l 253 886 l 449 886 b 696 683 601 886 696 801 z "},"Q":{"ha":1022,"x_min":0,"x_max":0,"o":"m 943 479 b 511 994 943 771 742 994 b 78 479 275 994 78 768 b 510 -31 78 185 283 -31 b 643 -6 532 -31 583 -29 l 763 -174 l 906 -174 l 740 46 b 943 479 892 164 943 333 z m 824 479 b 682 124 824 389 807 238 l 572 269 l 449 269 l 589 71 b 511 58 589 71 551 58 b 197 479 347 58 197 221 b 510 906 197 739 349 906 b 824 479 676 906 824 736 z "},"R":{"ha":897,"x_min":0,"x_max":0,"o":"m 857 0 l 582 453 b 818 706 725 494 818 593 b 468 964 818 843 667 964 l 133 964 l 133 0 l 253 0 l 253 440 l 472 440 l 733 0 z m 706 706 b 453 525 706 607 617 525 l 253 525 l 253 886 l 453 886 b 706 706 614 886 706 804 z "},"S":{"ha":772,"x_min":0,"x_max":0,"o":"m 693 263 b 619 453 693 353 650 419 b 381 567 554 522 508 535 b 236 628 300 586 278 592 b 188 738 226 636 188 676 b 390 903 188 819 263 903 b 625 814 507 903 574 857 l 646 925 b 392 994 569 971 493 994 b 78 721 199 994 78 858 b 153 544 78 661 97 603 b 354 446 211 482 272 465 b 525 378 472 417 486 413 b 583 249 553 354 583 308 b 381 65 583 157 507 65 b 82 178 324 65 199 79 l 61 65 b 382 -31 183 -11 294 -31 b 693 263 565 -31 693 110 z "},"T":{"ha":946,"x_min":0,"x_max":0,"o":"m 894 865 l 894 956 l 50 956 l 50 865 l 236 865 b 286 867 253 865 269 867 l 411 867 l 411 0 l 535 0 l 535 867 l 658 867 b 708 865 675 867 692 865 z "},"U":{"ha":956,"x_min":0,"x_max":0,"o":"m 824 324 l 824 964 l 715 964 l 715 322 b 482 47 715 139 599 47 b 254 322 368 47 254 135 l 254 964 l 131 964 l 131 324 b 481 -31 131 121 293 -31 b 824 324 667 -31 824 122 z "},"V":{"ha":926,"x_min":0,"x_max":0,"o":"m 906 964 l 797 964 l 613 489 b 474 100 590 432 486 164 l 472 100 b 389 342 461 156 401 308 l 149 964 l 19 964 l 399 0 l 526 0 z "},"W":{"ha":1311,"x_min":0,"x_max":0,"o":"m 1290 964 l 1190 964 l 1064 528 b 954 100 1028 404 961 171 l 953 100 b 853 490 953 100 944 174 l 717 964 l 604 964 l 479 531 b 372 103 449 424 379 181 l 371 103 b 317 340 365 158 328 294 l 251 572 l 139 964 l 19 964 l 301 0 l 414 0 l 553 482 b 650 863 582 583 642 790 l 651 863 b 728 557 657 821 690 689 l 888 0 l 1008 0 z "},"X":{"ha":926,"x_min":0,"x_max":0,"o":"m 906 0 l 513 508 l 847 964 l 714 964 l 453 601 l 183 964 l 39 964 l 393 508 l 19 0 l 153 0 l 453 425 l 761 0 z "},"Y":{"ha":926,"x_min":0,"x_max":0,"o":"m 921 964 l 799 964 l 583 650 b 560 614 576 640 569 629 l 475 482 b 425 561 449 525 449 528 l 150 964 l 4 964 l 403 386 l 403 0 l 522 0 l 522 385 z "},"Z":{"ha":849,"x_min":0,"x_max":0,"o":"m 778 0 l 778 92 l 644 92 l 279 89 l 235 89 l 769 907 l 769 964 l 96 964 l 96 878 l 374 878 b 424 879 390 878 407 879 l 613 879 l 78 60 l 78 0 z "},"[":{"ha":401,"x_min":0,"x_max":0,"o":"m 369 -347 l 369 -262 l 242 -262 l 242 957 l 369 957 l 369 1042 l 142 1042 l 142 -347 z "},"\\":{"ha":694,"x_min":0,"x_max":0,"o":"m 615 -319 b 608 -294 615 -319 615 -312 l 136 1011 b 106 1042 131 1026 125 1042 b 78 1014 90 1042 78 1029 b 85 989 78 1014 78 1007 l 557 -317 b 588 -347 563 -332 568 -347 b 615 -319 603 -347 615 -335 z "},"]":{"ha":401,"x_min":0,"x_max":0,"o":"m 258 -347 l 258 1042 l 31 1042 l 31 957 l 158 957 l 158 -262 l 31 -262 l 31 -347 z "},"^":{"ha":772,"x_min":0,"x_max":0,"o":"m 779 811 l 386 1033 l -7 811 l 8 781 l 385 951 l 763 781 z "},"_":{"ha":926,"x_min":0,"x_max":0,"o":"m 926 -228 l 926 -119 l 0 -119 l 0 -228 z "},"`":{"ha":694,"x_min":0,"x_max":0,"o":"m 444 732 l 260 964 l 151 964 l 360 732 z "},"a":{"ha":668,"x_min":0,"x_max":0,"o":"m 554 0 l 554 401 b 325 640 554 543 453 640 b 107 581 235 640 172 618 l 115 489 b 325 558 188 540 257 558 b 446 400 390 558 446 503 l 446 340 b 61 157 238 338 61 279 b 219 -15 61 97 99 -15 b 450 50 239 -15 369 -12 l 450 0 z m 446 183 b 399 96 446 157 446 122 b 290 69 358 71 306 69 b 161 160 224 69 161 101 b 446 269 161 257 386 267 z "},"b":{"ha":718,"x_min":0,"x_max":0,"o":"m 667 310 b 442 632 667 482 572 632 b 218 550 388 632 301 618 l 218 964 l 114 964 l 114 0 l 222 0 l 222 64 b 408 -15 256 33 315 -15 b 667 310 547 -15 667 124 z m 558 310 b 357 69 558 129 442 69 b 222 158 303 69 257 94 l 222 465 b 371 547 244 499 294 547 b 558 310 453 547 558 488 z "},"c":{"ha":617,"x_min":0,"x_max":0,"o":"m 576 56 l 568 149 b 351 74 497 93 422 74 b 158 310 236 74 158 174 b 357 551 158 418 210 551 b 553 490 429 551 476 540 l 569 581 b 356 640 488 628 440 640 b 50 308 163 640 50 472 b 350 -15 50 136 176 -15 b 576 56 425 -15 501 4 z "},"d":{"ha":718,"x_min":0,"x_max":0,"o":"m 603 0 l 603 964 l 499 964 l 499 556 b 296 632 425 617 347 632 b 50 308 158 632 50 488 b 289 -15 50 126 157 -15 b 494 72 335 -15 417 -3 l 494 0 z m 494 193 b 449 108 494 174 493 149 b 346 69 417 81 382 69 b 158 307 260 69 158 135 b 360 547 158 490 278 547 b 494 471 422 547 464 515 z "},"e":{"ha":617,"x_min":0,"x_max":0,"o":"m 575 304 b 519 539 575 351 574 456 b 328 640 463 625 378 640 b 49 314 174 640 49 493 b 349 -15 49 131 182 -15 b 569 57 436 -15 515 18 l 561 147 b 350 69 474 75 382 69 b 146 304 239 69 150 168 z m 496 381 l 153 381 b 328 556 175 486 249 556 b 496 381 400 556 478 508 z "},"f":{"ha":425,"x_min":0,"x_max":0,"o":"m 482 871 l 482 964 b 371 979 465 968 422 979 b 140 742 240 979 140 881 l 140 617 l 38 617 l 38 536 l 140 536 l 140 0 l 244 0 l 244 536 l 397 536 l 397 617 l 240 617 l 240 782 b 369 894 240 885 333 894 b 482 871 397 894 435 892 z "},"g":{"ha":694,"x_min":0,"x_max":0,"o":"m 674 544 l 658 632 b 439 588 561 632 481 606 b 307 632 410 611 363 632 b 86 406 188 632 86 532 b 132 268 86 354 104 304 b 92 150 92 211 92 157 b 128 44 92 114 104 74 b 39 -99 56 1 39 -62 b 346 -286 39 -203 176 -286 b 654 -97 517 -286 654 -204 b 368 96 654 96 422 96 l 246 96 b 165 169 228 96 165 96 b 181 219 165 185 171 207 b 307 179 210 199 256 179 b 529 406 432 179 529 282 b 483 544 529 472 499 524 l 489 543 b 592 549 519 543 558 549 b 674 544 617 549 674 544 z m 432 406 b 307 258 432 297 367 258 b 183 406 256 258 183 290 b 307 553 183 521 256 553 b 432 406 367 553 432 514 z m 557 -100 b 347 -207 557 -161 461 -207 b 136 -99 235 -207 136 -164 b 244 -4 136 -94 136 -4 l 369 -4 b 557 -100 400 -4 557 -4 z "},"h":{"ha":718,"x_min":0,"x_max":0,"o":"m 604 0 l 604 414 b 414 632 604 506 583 632 b 217 532 328 632 261 589 l 217 964 l 113 964 l 113 0 l 221 0 l 221 340 b 361 547 221 432 256 547 b 496 404 494 547 496 449 l 496 0 z "},"i":{"ha":332,"x_min":0,"x_max":0,"o":"m 217 0 l 217 617 l 113 617 l 113 0 z m 228 786 l 228 910 l 104 910 l 104 786 z "},"j":{"ha":371,"x_min":0,"x_max":0,"o":"m 256 -82 l 256 617 l 151 617 l 151 -96 b 47 -196 151 -189 72 -196 b -56 -153 8 -196 -25 -182 l -85 -237 b 82 -285 -18 -276 46 -285 b 256 -82 169 -285 256 -212 z m 256 786 l 256 910 l 132 910 l 132 786 z "},"k":{"ha":679,"x_min":0,"x_max":0,"o":"m 654 0 l 390 378 l 624 617 l 499 617 l 217 328 l 217 964 l 117 964 l 117 0 l 213 0 l 213 196 l 324 311 l 540 0 z "},"l":{"ha":332,"x_min":0,"x_max":0,"o":"m 217 0 l 217 964 l 113 964 l 113 0 z "},"m":{"ha":1103,"x_min":0,"x_max":0,"o":"m 990 0 l 990 414 b 800 632 990 507 968 632 b 593 518 717 632 644 593 b 415 632 557 624 460 632 b 213 525 315 632 250 575 l 213 625 l 113 625 l 113 0 l 221 0 l 221 340 b 361 547 221 435 258 547 b 497 404 490 547 497 457 l 497 0 l 606 0 l 606 340 b 746 547 606 435 643 547 b 882 404 875 547 882 457 l 882 0 z "},"n":{"ha":718,"x_min":0,"x_max":0,"o":"m 604 0 l 604 414 b 414 632 604 506 583 632 b 213 526 289 632 221 538 l 213 625 l 113 625 l 113 0 l 221 0 l 221 340 b 361 547 221 432 256 547 b 496 404 494 547 496 449 l 496 0 z "},"o":{"ha":694,"x_min":0,"x_max":0,"o":"m 651 306 b 347 640 651 492 513 640 b 42 306 176 640 42 488 b 346 -15 42 122 183 -15 b 651 306 513 -15 651 125 z m 543 319 b 346 74 543 156 449 74 b 150 319 250 74 150 151 b 346 556 150 488 256 556 b 543 319 443 556 543 483 z "},"p":{"ha":718,"x_min":0,"x_max":0,"o":"m 667 310 b 446 632 667 476 579 632 b 218 549 363 632 282 603 l 218 617 l 114 617 l 114 -269 l 222 -269 l 222 64 b 410 -15 265 24 326 -15 b 667 310 544 -15 667 121 z m 558 310 b 356 69 558 167 460 69 b 236 135 301 69 264 97 b 222 183 222 156 222 158 l 222 463 b 369 543 256 511 310 543 b 558 310 475 543 558 438 z "},"q":{"ha":718,"x_min":0,"x_max":0,"o":"m 603 -269 l 603 632 l 499 632 l 499 538 b 308 632 485 556 417 632 b 50 307 169 632 50 494 b 285 -15 50 131 151 -15 b 494 69 363 -15 436 17 l 494 -269 z m 499 194 b 485 149 499 169 499 167 b 347 69 449 93 397 69 b 158 307 242 69 158 178 b 360 543 158 449 258 543 b 499 389 456 543 499 444 z "},"r":{"ha":475,"x_min":0,"x_max":0,"o":"m 454 539 l 454 632 b 211 499 331 631 254 563 l 211 625 l 114 625 l 114 0 l 218 0 l 218 297 b 454 539 218 436 318 536 z "},"s":{"ha":532,"x_min":0,"x_max":0,"o":"m 500 178 b 446 306 500 254 449 301 b 285 375 392 354 354 363 b 144 472 208 390 144 404 b 263 558 144 558 244 558 b 460 506 307 558 381 553 l 476 596 b 276 640 404 629 347 640 b 46 458 242 640 46 640 b 121 319 46 390 86 346 b 271 268 164 289 194 283 b 401 168 321 258 401 242 b 271 72 401 72 292 72 b 56 140 158 72 81 124 l 39 46 b 272 -15 83 24 160 -15 b 433 29 297 -15 374 -15 b 500 178 476 63 500 118 z "},"t":{"ha":501,"x_min":0,"x_max":0,"o":"m 461 38 l 439 119 b 314 74 403 90 358 74 b 243 189 263 74 243 115 l 243 536 l 439 536 l 439 617 l 243 617 l 243 793 l 147 793 l 147 617 l 26 617 l 26 536 l 143 536 l 143 165 b 258 -15 143 82 163 -15 b 461 38 356 -15 426 19 z "},"u":{"ha":718,"x_min":0,"x_max":0,"o":"m 604 0 l 604 617 l 496 617 l 496 214 b 329 61 496 110 418 61 b 221 157 231 61 221 97 l 221 617 l 113 617 l 113 151 b 260 -15 113 51 144 -15 b 500 67 333 -15 432 7 l 500 0 z "},"v":{"ha":640,"x_min":0,"x_max":0,"o":"m 619 617 l 515 617 l 406 328 b 322 74 376 251 333 139 l 321 74 b 263 257 313 124 276 219 l 128 617 l 19 617 l 258 0 l 381 0 z "},"w":{"ha":949,"x_min":0,"x_max":0,"o":"m 928 617 l 826 617 l 738 322 b 674 75 722 272 681 135 l 672 75 b 608 321 667 118 632 242 l 518 617 l 421 617 l 342 356 b 274 76 326 307 279 147 l 272 76 b 197 376 265 143 219 300 l 125 617 l 19 617 l 210 0 l 319 0 l 406 286 b 468 539 425 350 464 488 l 469 539 b 514 344 472 500 496 404 l 615 0 l 738 0 z "},"x":{"ha":640,"x_min":0,"x_max":0,"o":"m 639 0 l 361 318 l 615 617 l 501 617 l 315 388 l 124 617 l 8 617 l 269 318 l 0 0 l 114 0 l 315 261 l 524 0 z "},"y":{"ha":640,"x_min":0,"x_max":0,"o":"m 619 617 l 515 617 b 331 79 335 175 332 111 l 329 79 b 204 443 321 172 210 431 l 129 617 l 19 617 l 289 0 l 239 -125 b 160 -206 203 -206 179 -206 b 51 -183 138 -206 93 -200 l 60 -274 b 160 -285 90 -281 129 -285 b 317 -126 208 -285 260 -268 z "},"z":{"ha":604,"x_min":0,"x_max":0,"o":"m 558 0 l 558 86 l 354 86 b 304 85 338 86 321 85 l 186 85 l 556 563 l 556 617 l 58 617 l 58 535 l 251 535 b 301 536 268 535 285 536 l 410 536 l 39 57 l 39 0 z "},"{":{"ha":694,"x_min":0,"x_max":0,"o":"m 593 -332 b 571 -317 593 -318 585 -318 b 397 -197 461 -310 410 -247 b 393 -131 393 -182 393 -179 l 393 78 b 390 204 393 119 393 190 b 229 347 372 296 283 332 b 393 532 393 394 393 493 l 393 782 b 426 947 393 882 393 913 b 581 1011 451 972 483 1006 b 593 1026 588 1013 593 1018 b 565 1042 593 1042 582 1042 b 300 871 426 1042 303 971 l 300 617 b 264 425 300 486 300 464 b 119 363 244 406 207 368 b 100 347 110 363 100 361 b 122 332 100 333 108 333 b 300 160 182 328 300 299 l 300 -115 b 372 -294 300 -196 300 -243 b 565 -347 432 -336 522 -347 b 593 -332 582 -347 593 -347 z "},"|":{"ha":386,"x_min":0,"x_max":0,"o":"m 221 -301 l 221 996 b 193 1042 221 1015 221 1042 b 165 996 165 1042 165 1015 l 165 -301 b 193 -347 165 -321 165 -347 b 221 -301 221 -347 221 -321 z "},"}":{"ha":694,"x_min":0,"x_max":0,"o":"m 593 347 b 571 363 593 361 585 361 b 393 535 511 367 393 396 l 393 810 b 321 989 393 890 393 938 b 128 1042 261 1029 172 1042 b 100 1026 114 1042 100 1042 b 122 1011 100 1013 108 1013 b 296 892 232 1004 283 942 b 300 825 300 876 300 874 l 300 617 b 303 490 300 575 300 504 b 464 347 321 399 410 363 b 300 163 300 300 300 201 l 300 -87 b 267 -253 300 -187 300 -218 b 113 -317 242 -278 210 -311 b 100 -332 106 -318 100 -324 b 128 -347 100 -347 114 -347 b 393 -176 267 -347 390 -276 l 393 78 b 429 269 393 208 393 231 b 574 332 449 289 486 326 b 593 347 583 332 593 333 z "},"~":{"ha":772,"x_min":0,"x_max":0,"o":"m 771 403 l 751 426 b 539 328 683 369 610 328 b 394 379 483 328 443 351 b 256 426 354 403 311 426 b 154 401 221 426 185 415 b 75 353 126 388 99 372 l 0 292 l 19 268 b 232 367 88 325 161 367 b 376 315 288 367 328 343 b 515 268 417 292 460 268 b 617 293 550 268 586 279 b 696 342 644 307 672 322 z "},"ﬀ":{"ha":810,"x_min":0,"x_max":0,"o":"m 482 871 l 482 964 b 371 979 465 968 422 979 b 140 742 240 979 140 881 l 140 617 l 38 617 l 38 536 l 140 536 l 140 0 l 244 0 l 244 536 l 397 536 l 397 617 l 240 617 l 240 782 b 369 894 240 885 333 894 b 482 871 397 894 435 892 z m 867 871 l 867 964 b 756 979 850 968 807 979 b 525 742 625 979 525 881 l 525 0 l 629 0 l 629 536 l 782 536 l 782 617 l 625 617 l 625 782 b 754 894 625 885 718 894 b 867 871 782 894 819 892 z "},"ﬁ":{"ha":744,"x_min":0,"x_max":0,"o":"m 635 850 l 635 965 l 519 965 l 519 850 z m 629 0 l 629 617 l 525 617 l 525 0 z m 408 536 l 408 617 l 240 617 l 240 785 b 325 894 240 874 290 894 b 408 869 354 894 385 885 l 408 964 b 325 979 400 967 365 979 b 140 743 222 979 140 882 l 140 617 l 38 617 l 38 536 l 140 536 l 140 0 l 244 0 l 244 536 z "},"ﬂ":{"ha":744,"x_min":0,"x_max":0,"o":"m 408 536 l 408 617 l 240 617 l 240 785 b 325 894 240 874 290 894 b 408 871 353 894 383 886 l 408 964 b 325 979 400 967 365 979 b 140 743 222 979 140 882 l 140 617 l 38 617 l 38 536 l 140 536 l 140 0 l 244 0 l 244 536 z m 629 0 l 629 964 l 525 964 l 525 0 z "},"ﬃ":{"ha":1131,"x_min":0,"x_max":0,"o":"m 1021 850 l 1021 965 l 906 965 l 906 850 z m 1015 0 l 1015 617 l 911 617 l 911 0 z m 794 536 l 794 617 l 626 617 l 626 785 b 711 894 626 874 676 894 b 794 871 740 894 769 886 l 794 965 b 711 979 764 976 754 979 b 526 743 608 979 526 882 l 526 0 l 631 0 l 631 536 z m 443 871 l 443 964 b 347 979 414 974 379 979 b 140 742 231 979 140 882 l 140 617 l 38 617 l 38 536 l 140 536 l 140 0 l 244 0 l 244 536 l 408 536 l 408 617 l 240 617 l 240 783 b 346 894 240 881 311 894 b 443 871 368 894 403 892 z "},"ﬄ":{"ha":1131,"x_min":0,"x_max":0,"o":"m 443 871 l 443 964 b 347 979 414 974 379 979 b 140 742 231 979 140 882 l 140 617 l 38 617 l 38 536 l 140 536 l 140 0 l 244 0 l 244 536 l 408 536 l 408 617 l 240 617 l 240 783 b 346 894 240 881 311 894 b 443 871 368 894 403 892 z m 1015 0 l 1015 964 l 911 964 l 911 0 z m 794 536 l 794 617 l 626 617 l 626 785 b 711 894 626 874 676 894 b 794 871 739 894 769 886 l 794 964 b 711 979 786 967 751 979 b 526 743 608 979 526 882 l 526 0 l 631 0 l 631 536 z "}," ":{"ha":694,"x_min":0,"x_max":0,"o":""},"¡":{"ha":443,"x_min":0,"x_max":0,"o":"m 279 579 l 279 694 l 164 694 l 164 579 z m 279 -269 l 268 392 l 268 451 l 175 451 l 175 392 l 164 -269 z "},"¢":{"ha":617,"x_min":0,"x_max":0,"o":"m 576 56 l 568 149 b 383 75 508 101 444 81 l 383 551 b 553 490 442 547 486 533 l 569 581 b 383 640 497 622 451 638 l 383 706 l 294 706 l 294 635 b 50 308 139 604 50 454 b 294 -10 50 156 150 18 l 294 -89 l 383 -89 l 383 -14 b 576 56 449 -8 513 13 z m 294 82 b 158 310 211 110 158 197 b 294 542 158 401 194 511 z "},"£":{"ha":926,"x_min":0,"x_max":0,"o":"m 833 206 l 725 206 b 640 78 725 142 697 78 b 519 97 599 78 558 86 b 293 135 444 115 369 135 b 369 342 332 199 361 268 b 369 438 374 374 374 406 l 556 438 l 556 526 l 346 526 b 308 629 332 561 315 593 b 471 856 282 744 360 856 b 632 682 563 856 632 776 l 740 682 b 471 964 740 836 622 964 b 203 606 290 964 163 788 l 231 526 l 93 526 l 93 438 l 260 438 b 263 356 265 411 267 382 b 104 58 249 242 178 146 l 189 -11 b 493 -8 242 54 382 19 b 640 -31 542 -21 590 -31 b 833 206 756 -31 833 82 z "},"¤":{"ha":1081,"x_min":0,"x_max":0,"o":"m 867 21 b 854 72 886 40 868 58 l 751 176 b 811 347 789 222 811 282 b 750 519 811 413 789 472 l 853 622 b 867 674 867 636 886 654 b 814 661 846 693 828 675 l 711 558 b 540 619 664 596 606 619 b 369 558 475 619 415 596 l 265 663 b 213 675 251 676 233 694 b 226 622 193 656 213 636 l 329 519 b 268 347 292 472 268 413 b 329 176 268 282 292 222 l 226 72 b 213 21 213 58 193 40 b 265 33 233 1 251 19 l 368 136 b 540 75 415 99 475 75 b 711 136 606 75 665 99 l 815 33 b 867 21 829 19 847 1 z m 756 347 b 540 131 756 228 660 131 b 324 347 421 131 324 228 b 540 564 324 467 421 564 b 756 347 660 564 756 467 z "},"¥":{"ha":926,"x_min":0,"x_max":0,"o":"m 921 964 l 799 964 l 583 650 b 560 614 576 640 569 629 l 489 503 l 463 503 b 425 561 447 528 444 535 l 150 964 l 4 964 l 322 503 l 154 503 l 154 414 l 383 414 l 403 386 l 403 296 l 154 296 l 154 207 l 403 207 l 403 0 l 522 0 l 522 207 l 772 207 l 772 296 l 522 296 l 522 385 l 542 414 l 772 414 l 772 503 l 604 503 z "},"¦":{"ha":386,"x_min":0,"x_max":0,"o":"m 221 476 l 221 996 b 193 1042 221 1015 221 1042 b 165 996 165 1042 165 1015 l 165 476 b 193 432 165 456 174 432 b 221 476 213 432 221 456 z m 221 -301 l 221 218 b 193 263 221 239 213 263 b 165 218 174 263 165 239 l 165 -301 b 193 -347 165 -321 165 -347 b 221 -301 221 -347 221 -321 z "},"§":{"ha":733,"x_min":0,"x_max":0,"o":"m 686 278 b 488 532 686 393 594 482 l 347 596 b 213 744 281 628 213 672 b 367 892 213 826 282 892 b 521 751 450 892 521 832 l 629 751 b 367 989 629 888 507 989 b 104 744 225 989 104 883 b 150 614 104 696 121 651 b 47 417 88 568 47 496 b 246 163 47 301 139 213 l 386 99 b 521 -50 453 67 521 22 b 367 -197 521 -132 451 -197 b 213 -57 283 -197 213 -137 l 104 -57 b 367 -294 104 -193 226 -294 b 629 -50 508 -294 629 -189 b 583 79 629 -1 613 42 b 686 278 646 125 686 197 z m 578 278 b 511 149 578 225 553 176 b 431 197 486 167 458 183 l 290 261 b 156 417 222 293 156 343 b 222 544 156 468 181 518 b 303 497 247 526 275 511 l 443 433 b 578 278 511 401 578 351 z "},"¨":{"ha":694,"x_min":0,"x_max":0,"o":"m 301 793 l 301 904 l 190 904 l 190 793 z m 504 793 l 504 904 l 393 904 l 393 793 z "},"©":{"ha":964,"x_min":0,"x_max":0,"o":"m 964 482 b 482 964 964 749 749 964 b 0 482 215 964 0 749 b 482 0 0 215 215 0 b 964 482 749 0 964 215 z m 911 482 b 482 53 911 244 719 53 b 53 482 244 53 53 244 b 482 911 53 719 244 911 b 911 482 719 911 911 719 z m 682 208 l 676 269 b 514 215 614 225 575 215 b 304 482 382 215 304 349 b 511 749 304 625 390 749 b 660 703 581 749 622 726 l 672 774 b 513 806 618 796 571 806 b 226 482 344 806 226 654 b 514 160 226 314 343 160 b 682 208 586 160 621 171 z "},"ª":{"ha":517,"x_min":0,"x_max":0,"o":"m 465 547 l 465 828 b 274 994 465 926 381 994 b 90 953 197 994 144 979 l 97 889 b 274 938 157 925 215 938 b 375 826 328 938 375 899 l 375 785 b 51 657 200 783 51 742 b 185 536 51 615 83 536 b 378 582 200 536 310 538 l 378 547 z m 421 464 b 376 494 421 481 401 494 l 140 494 b 96 464 115 494 96 481 b 140 432 96 446 115 432 l 376 432 b 421 464 401 432 421 446 z m 375 675 b 335 614 375 657 375 632 b 244 596 301 596 257 596 b 135 658 188 596 135 618 b 375 736 135 726 325 733 z "},"«":{"ha":694,"x_min":0,"x_max":0,"o":"m 385 0 l 263 304 l 385 610 l 300 610 l 154 304 l 300 0 z m 617 0 l 494 304 l 617 610 l 532 610 l 386 304 l 532 0 z "},"¬":{"ha":1081,"x_min":0,"x_max":0,"o":"m 1001 208 l 1001 486 b 974 514 1001 501 989 514 l 106 514 b 78 486 90 514 78 501 b 106 458 78 471 90 458 l 946 458 l 946 208 b 974 181 946 193 958 181 b 1001 208 989 181 1001 193 z "},"®":{"ha":964,"x_min":0,"x_max":0,"o":"m 964 482 b 482 964 964 749 749 964 b 0 482 215 964 0 749 b 482 0 0 215 215 0 b 964 482 749 0 964 215 z m 911 482 b 482 53 911 244 719 53 b 53 482 244 53 53 244 b 482 911 53 719 244 911 b 911 482 719 911 911 719 z m 731 179 l 558 464 b 707 624 647 490 707 553 b 486 786 707 710 611 786 l 275 786 l 275 179 l 350 179 l 350 456 l 489 456 l 653 179 z m 636 624 b 476 510 636 561 579 510 l 350 510 l 350 736 l 476 736 b 636 624 578 736 636 685 z "},"¯":{"ha":694,"x_min":0,"x_max":0,"o":"m 599 804 l 599 893 l 97 893 l 97 804 z "},"°":{"ha":521,"x_min":0,"x_max":0,"o":"m 453 772 b 261 964 453 878 367 964 b 68 772 154 964 68 878 b 261 579 68 665 154 579 b 453 772 367 579 453 665 z m 397 772 b 261 635 397 696 336 635 b 124 772 185 635 124 696 b 261 908 124 847 185 908 b 397 772 336 908 397 847 z "},"±":{"ha":1081,"x_min":0,"x_max":0,"o":"m 1001 28 b 956 56 1001 56 975 56 l 568 56 l 568 435 l 956 435 b 1001 463 975 435 1001 435 b 956 490 1001 490 975 490 l 568 490 l 568 879 b 540 925 568 899 568 925 b 513 879 513 925 513 899 l 513 490 l 124 490 b 78 463 104 490 78 490 b 124 435 78 435 104 435 l 513 435 l 513 56 l 124 56 b 78 28 104 56 78 56 b 124 0 78 0 104 0 l 956 0 b 1001 28 975 0 1001 0 z "},"²":{"ha":492,"x_min":0,"x_max":0,"o":"m 449 431 l 449 489 l 267 489 l 231 489 l 122 489 b 261 599 154 511 231 574 b 350 664 281 614 331 649 b 449 815 394 701 449 744 b 236 994 449 911 368 994 b 42 858 122 994 67 931 b 61 836 54 844 58 839 b 83 813 63 835 74 824 b 222 942 103 876 131 942 b 367 814 317 942 367 879 b 251 646 367 743 310 696 l 174 586 l 50 483 l 50 431 z "},"³":{"ha":499,"x_min":0,"x_max":0,"o":"m 457 581 b 319 725 457 656 388 707 b 431 868 394 760 431 815 b 249 994 431 940 347 994 b 56 903 171 994 99 961 l 92 858 b 247 947 121 917 186 947 b 349 868 299 947 349 922 b 246 757 349 818 307 768 l 167 751 l 167 700 l 238 700 b 368 581 346 700 368 622 b 244 463 368 515 322 463 b 53 549 176 463 97 492 l 42 499 b 247 411 115 419 207 411 b 457 581 369 411 457 493 z "},"´":{"ha":694,"x_min":0,"x_max":0,"o":"m 543 964 l 435 964 l 250 732 l 335 732 z "},"µ":{"ha":718,"x_min":0,"x_max":0,"o":"m 604 0 l 604 617 l 496 617 l 496 217 b 329 61 496 101 410 61 b 221 160 228 61 221 99 l 221 617 l 113 617 l 113 -269 l 221 -269 l 221 -12 b 260 -15 235 -15 253 -15 b 500 67 332 -15 432 6 l 500 0 z "},"¶":{"ha":849,"x_min":0,"x_max":0,"o":"m 808 936 b 763 964 808 964 782 964 l 425 964 b 78 643 231 964 78 818 b 485 319 78 425 307 326 l 485 -224 b 513 -269 485 -243 485 -269 b 540 -224 540 -269 540 -243 l 540 908 l 638 908 l 638 -224 b 665 -269 638 -243 638 -269 b 693 -224 693 -269 693 -243 l 693 908 l 763 908 b 808 936 782 908 808 908 z "},"·":{"ha":1081,"x_min":0,"x_max":0,"o":"m 597 425 l 597 540 l 482 540 l 482 425 z "},"¸":{"ha":617,"x_min":0,"x_max":0,"o":"m 389 -33 l 304 -33 l 201 -267 l 297 -267 z "},"¹":{"ha":513,"x_min":0,"x_max":0,"o":"m 424 431 l 424 478 l 299 478 l 299 994 l 279 994 b 89 940 219 944 138 942 l 89 892 b 219 911 122 893 169 894 l 219 478 l 94 478 l 94 431 z "},"º":{"ha":582,"x_min":0,"x_max":0,"o":"m 547 761 b 292 994 547 892 431 994 b 35 761 149 994 35 888 b 290 536 35 632 154 536 b 547 761 431 536 547 635 z m 503 464 b 458 494 503 481 483 494 l 124 494 b 79 464 100 494 79 481 b 124 432 79 446 100 432 l 458 432 b 503 464 483 432 503 446 z m 456 771 b 290 599 456 656 376 599 b 126 771 210 599 126 653 b 290 936 126 888 215 936 b 456 771 372 936 456 885 z "},"»":{"ha":694,"x_min":0,"x_max":0,"o":"m 540 304 l 394 610 l 310 610 l 432 304 l 310 0 l 394 0 z m 308 304 l 163 610 l 78 610 l 200 304 l 78 0 l 163 0 z "},"¼":{"ha":1094,"x_min":0,"x_max":0,"o":"m 424 431 l 424 478 l 299 478 l 299 994 l 279 994 b 89 940 219 944 138 942 l 89 892 b 219 911 122 893 169 894 l 219 478 l 94 478 l 94 431 z m 1004 143 l 1004 193 l 906 193 l 906 547 l 815 547 l 563 193 l 563 143 l 826 143 l 826 0 l 906 0 l 906 143 z m 913 936 l 847 936 l 292 28 l 357 28 z m 833 193 l 640 193 b 833 510 692 265 832 463 z "},"½":{"ha":1094,"x_min":0,"x_max":0,"o":"m 424 431 l 424 478 l 299 478 l 299 994 l 279 994 b 89 940 219 944 138 942 l 89 892 b 219 911 122 893 169 894 l 219 478 l 94 478 l 94 431 z m 1004 0 l 1004 60 l 822 60 b 788 58 811 60 799 58 l 678 58 l 817 168 b 906 233 836 183 888 218 b 1004 386 951 271 1004 315 b 792 565 1004 482 924 565 b 597 428 678 565 622 500 b 617 407 610 414 615 410 b 639 382 619 406 629 394 b 778 511 658 447 688 511 b 922 385 872 511 922 449 b 807 215 922 314 865 265 l 729 157 l 606 53 l 606 0 z m 857 936 l 792 936 l 236 28 l 301 28 z "},"¾":{"ha":1094,"x_min":0,"x_max":0,"o":"m 499 581 b 361 725 499 656 429 707 b 472 868 438 760 472 815 b 290 994 472 940 389 994 b 99 903 213 994 140 961 l 133 858 b 289 947 163 917 228 947 b 390 868 342 947 390 922 b 288 757 390 818 349 768 l 208 751 l 208 700 l 281 700 b 410 581 388 700 410 622 b 288 463 410 515 364 463 b 94 549 218 463 139 492 l 83 499 b 289 411 157 419 249 411 b 499 581 411 411 499 493 z m 1004 143 l 1004 193 l 906 193 l 906 547 l 815 547 l 563 193 l 563 143 l 826 143 l 826 0 l 906 0 l 906 143 z m 913 936 l 847 936 l 292 28 l 357 28 z m 833 193 l 640 193 b 833 510 692 265 832 463 z "},"¿":{"ha":656,"x_min":0,"x_max":0,"o":"m 365 579 l 365 694 l 250 694 l 250 579 z m 576 -211 l 544 -124 b 311 -200 454 -189 361 -200 b 186 -72 224 -200 186 -164 b 228 38 186 -7 207 15 b 354 407 318 138 354 272 l 354 451 l 261 451 l 261 372 b 146 97 261 306 240 193 b 78 -69 121 72 78 29 b 310 -285 78 -182 138 -285 b 576 -211 392 -285 486 -264 z "},"À":{"ha":926,"x_min":0,"x_max":0,"o":"m 886 0 l 524 964 l 401 964 l 39 0 l 142 0 l 249 283 l 653 283 l 758 0 z m 622 361 l 278 361 b 368 613 349 560 297 414 b 450 864 397 694 440 813 l 451 864 b 496 718 454 844 464 810 z m 594 1036 l 351 1206 l 197 1206 l 471 1036 z "},"Á":{"ha":926,"x_min":0,"x_max":0,"o":"m 886 0 l 524 964 l 401 964 l 39 0 l 142 0 l 249 283 l 653 283 l 758 0 z m 622 361 l 278 361 b 368 613 349 560 297 414 b 450 864 397 694 440 813 l 451 864 b 496 718 454 844 464 810 z m 728 1206 l 574 1206 l 331 1036 l 454 1036 z "},"Â":{"ha":926,"x_min":0,"x_max":0,"o":"m 886 0 l 524 964 l 401 964 l 39 0 l 142 0 l 249 283 l 653 283 l 758 0 z m 622 361 l 278 361 b 368 613 349 560 297 414 b 450 864 397 694 440 813 l 451 864 b 496 718 454 844 464 810 z m 679 1022 l 504 1208 l 421 1208 l 246 1022 l 328 1022 l 463 1157 l 597 1022 z "},"Ã":{"ha":926,"x_min":0,"x_max":0,"o":"m 886 0 l 524 964 l 401 964 l 39 0 l 142 0 l 249 283 l 653 283 l 758 0 z m 622 361 l 278 361 b 368 613 349 560 297 414 b 450 864 397 694 440 813 l 451 864 b 496 718 454 844 464 810 z m 694 1188 l 610 1188 b 556 1107 608 1140 592 1107 b 457 1153 524 1107 494 1126 b 368 1188 431 1171 403 1188 b 232 1022 303 1188 235 1131 l 317 1022 b 371 1103 318 1069 335 1103 b 469 1057 403 1103 432 1083 b 558 1022 496 1039 524 1022 b 694 1188 624 1022 692 1079 z "},"Ä":{"ha":926,"x_min":0,"x_max":0,"o":"m 886 0 l 524 964 l 401 964 l 39 0 l 142 0 l 249 283 l 653 283 l 758 0 z m 622 361 l 278 361 b 368 613 349 560 297 414 b 450 864 397 694 440 813 l 451 864 b 496 718 454 844 464 810 z m 397 1022 l 397 1133 l 286 1133 l 286 1022 z m 639 1022 l 639 1133 l 528 1133 l 528 1022 z "},"Å":{"ha":926,"x_min":0,"x_max":0,"o":"m 886 0 l 524 964 l 401 964 l 39 0 l 142 0 l 249 283 l 653 283 l 758 0 z m 622 361 l 278 361 b 368 613 349 560 297 414 b 450 864 397 694 440 813 l 451 864 b 496 718 454 844 464 810 z m 532 1081 b 463 1029 532 1029 475 1029 b 393 1081 451 1029 393 1029 b 463 1132 393 1132 450 1132 b 532 1081 474 1132 532 1132 z m 617 1079 b 463 1197 617 1146 549 1197 b 308 1082 372 1197 308 1142 b 463 964 308 1015 376 964 b 617 1079 553 964 617 1019 z "},"Æ":{"ha":1196,"x_min":0,"x_max":0,"o":"m 1136 0 l 1136 99 l 990 99 b 940 97 974 99 957 97 l 704 97 l 704 458 l 1079 458 l 1079 543 l 704 543 l 704 875 l 854 875 b 904 874 871 875 888 874 l 1117 874 l 1117 964 l 433 964 l 39 0 l 143 0 l 269 308 l 582 308 l 582 0 z m 582 386 l 301 386 l 501 875 l 582 875 z "},"Ç":{"ha":888,"x_min":0,"x_max":0,"o":"m 817 47 l 808 143 b 550 58 708 72 646 58 b 217 482 340 58 217 269 b 546 906 217 708 353 906 b 781 833 656 906 722 871 l 801 946 b 547 994 714 979 639 994 b 93 482 281 994 93 754 b 549 -31 93 214 278 -31 b 817 47 664 -31 718 -12 z m 553 -64 l 468 -64 l 365 -297 l 461 -297 z "},"È":{"ha":829,"x_min":0,"x_max":0,"o":"m 769 0 l 769 99 l 594 99 b 544 97 578 99 561 97 l 254 97 l 254 457 l 713 457 l 713 542 l 254 542 l 254 871 l 446 871 b 496 869 463 871 479 869 l 750 869 l 750 960 l 131 960 l 131 0 z m 547 1036 l 304 1206 l 150 1206 l 424 1036 z "},"É":{"ha":829,"x_min":0,"x_max":0,"o":"m 769 0 l 769 99 l 594 99 b 544 97 578 99 561 97 l 254 97 l 254 457 l 713 457 l 713 542 l 254 542 l 254 871 l 446 871 b 496 869 463 871 479 869 l 750 869 l 750 960 l 131 960 l 131 0 z m 681 1206 l 526 1206 l 283 1036 l 407 1036 z "},"Ê":{"ha":829,"x_min":0,"x_max":0,"o":"m 769 0 l 769 99 l 594 99 b 544 97 578 99 561 97 l 254 97 l 254 457 l 713 457 l 713 542 l 254 542 l 254 871 l 446 871 b 496 869 463 871 479 869 l 750 869 l 750 960 l 131 960 l 131 0 z m 632 1022 l 457 1208 l 374 1208 l 199 1022 l 281 1022 l 415 1157 l 550 1022 z "},"Ë":{"ha":829,"x_min":0,"x_max":0,"o":"m 769 0 l 769 99 l 594 99 b 544 97 578 99 561 97 l 254 97 l 254 457 l 713 457 l 713 542 l 254 542 l 254 871 l 446 871 b 496 869 463 871 479 869 l 750 869 l 750 960 l 131 960 l 131 0 z m 350 1022 l 350 1133 l 239 1133 l 239 1022 z m 592 1022 l 592 1133 l 481 1133 l 481 1022 z "},"Ì":{"ha":386,"x_min":0,"x_max":0,"o":"m 254 0 l 254 964 l 131 964 l 131 0 z m 254 1036 l 11 1206 l -143 1206 l 131 1036 z "},"Í":{"ha":386,"x_min":0,"x_max":0,"o":"m 254 0 l 254 964 l 131 964 l 131 0 z m 528 1206 l 374 1206 l 131 1036 l 254 1036 z "},"Î":{"ha":386,"x_min":0,"x_max":0,"o":"m 254 0 l 254 964 l 131 964 l 131 0 z m 410 1022 l 235 1208 l 151 1208 l -24 1022 l 58 1022 l 193 1157 l 328 1022 z "},"Ï":{"ha":386,"x_min":0,"x_max":0,"o":"m 254 0 l 254 964 l 131 964 l 131 0 z m 128 1022 l 128 1133 l 17 1133 l 17 1022 z m 369 1022 l 369 1133 l 258 1133 l 258 1022 z "},"Ð":{"ha":1003,"x_min":0,"x_max":0,"o":"m 924 474 b 497 964 924 743 736 964 l 133 964 l 133 526 l 25 526 l 25 438 l 133 438 l 133 0 l 499 0 b 924 474 735 0 924 211 z m 804 474 b 465 78 804 238 660 78 l 253 78 l 253 438 l 393 438 l 393 526 l 253 526 l 253 886 l 465 886 b 804 474 660 886 804 718 z "},"Ñ":{"ha":983,"x_min":0,"x_max":0,"o":"m 849 0 l 849 964 l 740 964 l 740 99 l 739 99 l 646 289 l 306 964 l 133 964 l 133 0 l 242 0 l 242 865 l 243 865 l 336 675 l 676 0 z m 724 1188 l 639 1188 b 585 1107 638 1140 621 1107 b 486 1153 553 1107 524 1126 b 397 1188 460 1171 432 1188 b 261 1022 332 1188 264 1131 l 346 1022 b 400 1103 347 1069 364 1103 b 499 1057 432 1103 461 1083 b 588 1022 525 1039 553 1022 b 724 1188 653 1022 721 1079 z "},"Ò":{"ha":1022,"x_min":0,"x_max":0,"o":"m 943 479 b 511 994 943 771 742 994 b 78 479 275 994 78 768 b 510 -31 78 185 283 -31 b 943 479 742 -31 943 188 z m 819 500 b 511 60 819 229 669 60 b 201 500 347 60 201 233 b 510 906 201 754 354 906 b 819 500 671 906 819 749 z m 643 1036 l 400 1206 l 246 1206 l 519 1036 z "},"Ó":{"ha":1022,"x_min":0,"x_max":0,"o":"m 943 479 b 511 994 943 771 742 994 b 78 479 275 994 78 768 b 510 -31 78 185 283 -31 b 943 479 742 -31 943 188 z m 819 500 b 511 60 819 229 669 60 b 201 500 347 60 201 233 b 510 906 201 754 354 906 b 819 500 671 906 819 749 z m 776 1206 l 622 1206 l 379 1036 l 503 1036 z "},"Ô":{"ha":1022,"x_min":0,"x_max":0,"o":"m 943 479 b 511 994 943 771 742 994 b 78 479 275 994 78 768 b 510 -31 78 185 283 -31 b 943 479 742 -31 943 188 z m 819 500 b 511 60 819 229 669 60 b 201 500 347 60 201 233 b 510 906 201 754 354 906 b 819 500 671 906 819 749 z m 728 1022 l 553 1208 l 469 1208 l 294 1022 l 376 1022 l 511 1157 l 646 1022 z "},"Õ":{"ha":1022,"x_min":0,"x_max":0,"o":"m 943 479 b 511 994 943 771 742 994 b 78 479 275 994 78 768 b 510 -31 78 185 283 -31 b 943 479 742 -31 943 188 z m 819 500 b 511 60 819 229 669 60 b 201 500 347 60 201 233 b 510 906 201 754 354 906 b 819 500 671 906 819 749 z m 743 1188 l 658 1188 b 604 1107 657 1140 640 1107 b 506 1153 572 1107 543 1126 b 417 1188 479 1171 451 1188 b 281 1022 351 1188 283 1131 l 365 1022 b 419 1103 367 1069 383 1103 b 518 1057 451 1103 481 1083 b 607 1022 544 1039 572 1022 b 743 1188 672 1022 740 1079 z "},"Ö":{"ha":1022,"x_min":0,"x_max":0,"o":"m 943 479 b 511 994 943 771 742 994 b 78 479 275 994 78 768 b 510 -31 78 185 283 -31 b 943 479 742 -31 943 188 z m 819 500 b 511 60 819 229 669 60 b 201 500 347 60 201 233 b 510 906 201 754 354 906 b 819 500 671 906 819 749 z m 446 1022 l 446 1133 l 335 1133 l 335 1022 z m 688 1022 l 688 1133 l 576 1133 l 576 1022 z "},"×":{"ha":1081,"x_min":0,"x_max":0,"o":"m 867 21 b 854 72 886 40 868 58 l 579 347 l 853 622 b 867 674 867 636 886 654 b 814 661 846 693 828 675 l 540 388 l 265 663 b 213 675 251 676 233 694 b 226 622 193 656 213 636 l 501 347 l 226 72 b 213 21 213 58 193 40 b 265 33 233 1 251 19 l 540 308 l 815 33 b 867 21 829 19 847 1 z "},"Ø":{"ha":1081,"x_min":0,"x_max":0,"o":"m 1001 479 b 824 885 1001 676 903 819 l 896 1010 l 819 1054 l 753 938 b 540 994 654 989 582 994 b 78 479 286 994 78 764 b 254 79 78 411 88 226 l 183 -46 l 260 -90 l 326 26 b 539 -31 406 -17 479 -31 b 1001 479 789 -31 1001 190 z m 707 860 l 303 163 b 196 479 207 272 196 406 b 539 910 196 754 364 910 b 707 860 592 910 647 896 z m 883 479 b 540 54 883 203 713 54 b 372 103 499 54 439 63 l 775 800 b 883 479 857 708 883 583 z "},"Ù":{"ha":956,"x_min":0,"x_max":0,"o":"m 824 324 l 824 964 l 715 964 l 715 322 b 482 47 715 139 599 47 b 254 322 368 47 254 135 l 254 964 l 131 964 l 131 324 b 481 -31 131 121 293 -31 b 824 324 667 -31 824 122 z m 610 1036 l 367 1206 l 213 1206 l 486 1036 z "},"Ú":{"ha":956,"x_min":0,"x_max":0,"o":"m 824 324 l 824 964 l 715 964 l 715 322 b 482 47 715 139 599 47 b 254 322 368 47 254 135 l 254 964 l 131 964 l 131 324 b 481 -31 131 121 293 -31 b 824 324 667 -31 824 122 z m 743 1206 l 589 1206 l 346 1036 l 469 1036 z "},"Û":{"ha":956,"x_min":0,"x_max":0,"o":"m 824 324 l 824 964 l 715 964 l 715 322 b 482 47 715 139 599 47 b 254 322 368 47 254 135 l 254 964 l 131 964 l 131 324 b 481 -31 131 121 293 -31 b 824 324 667 -31 824 122 z m 694 1022 l 519 1208 l 436 1208 l 261 1022 l 343 1022 l 478 1157 l 613 1022 z "},"Ü":{"ha":956,"x_min":0,"x_max":0,"o":"m 824 324 l 824 964 l 715 964 l 715 322 b 482 47 715 139 599 47 b 254 322 368 47 254 135 l 254 964 l 131 964 l 131 324 b 481 -31 131 121 293 -31 b 824 324 667 -31 824 122 z m 413 1022 l 413 1133 l 301 1133 l 301 1022 z m 654 1022 l 654 1133 l 543 1133 l 543 1022 z "},"Ý":{"ha":926,"x_min":0,"x_max":0,"o":"m 921 964 l 799 964 l 583 650 b 560 614 576 640 569 629 l 475 482 b 425 561 449 525 449 528 l 150 964 l 4 964 l 403 386 l 403 0 l 522 0 l 522 385 z m 728 1206 l 574 1206 l 331 1036 l 454 1036 z "},"Þ":{"ha":888,"x_min":0,"x_max":0,"o":"m 808 483 b 479 764 808 632 671 764 l 257 764 l 257 964 l 133 964 l 133 0 l 257 0 l 257 201 l 489 201 b 808 483 661 201 808 328 z m 696 482 b 449 281 696 372 608 281 l 253 281 l 253 685 l 449 685 b 696 482 601 685 696 600 z "},"ß":{"ha":668,"x_min":0,"x_max":0,"o":"m 628 249 b 456 571 628 358 579 494 b 589 775 547 622 589 703 b 351 979 589 890 481 979 b 114 767 240 979 114 908 l 114 0 l 218 0 l 218 765 b 350 894 218 886 321 894 b 482 776 432 894 482 843 b 296 617 482 701 425 618 l 296 532 b 521 249 439 528 521 394 b 382 69 521 135 458 69 b 289 90 368 69 329 72 l 265 28 l 260 13 b 383 -15 260 6 324 -15 b 628 249 515 -15 628 97 z "},"à":{"ha":668,"x_min":0,"x_max":0,"o":"m 554 0 l 554 401 b 325 640 554 543 453 640 b 107 581 235 640 172 618 l 115 489 b 325 558 188 540 257 558 b 446 400 390 558 446 503 l 446 340 b 61 157 238 338 61 279 b 219 -15 61 97 99 -15 b 450 50 239 -15 369 -12 l 450 0 z m 446 183 b 399 96 446 157 446 122 b 290 69 358 71 306 69 b 161 160 224 69 161 101 b 446 269 161 257 386 267 z m 431 732 l 246 964 l 138 964 l 346 732 z "},"á":{"ha":668,"x_min":0,"x_max":0,"o":"m 554 0 l 554 401 b 325 640 554 543 453 640 b 107 581 235 640 172 618 l 115 489 b 325 558 188 540 257 558 b 446 400 390 558 446 503 l 446 340 b 61 157 238 338 61 279 b 219 -15 61 97 99 -15 b 450 50 239 -15 369 -12 l 450 0 z m 446 183 b 399 96 446 157 446 122 b 290 69 358 71 306 69 b 161 160 224 69 161 101 b 446 269 161 257 386 267 z m 529 964 l 421 964 l 236 732 l 321 732 z "},"â":{"ha":668,"x_min":0,"x_max":0,"o":"m 554 0 l 554 401 b 325 640 554 543 453 640 b 107 581 235 640 172 618 l 115 489 b 325 558 188 540 257 558 b 446 400 390 558 446 503 l 446 340 b 61 157 238 338 61 279 b 219 -15 61 97 99 -15 b 450 50 239 -15 369 -12 l 450 0 z m 446 183 b 399 96 446 157 446 122 b 290 69 358 71 306 69 b 161 160 224 69 161 101 b 446 269 161 257 386 267 z m 549 729 l 375 968 l 292 968 l 118 729 l 200 729 l 333 900 l 467 729 z "},"ã":{"ha":668,"x_min":0,"x_max":0,"o":"m 554 0 l 554 401 b 325 640 554 543 453 640 b 107 581 235 640 172 618 l 115 489 b 325 558 188 540 257 558 b 446 400 390 558 446 503 l 446 340 b 61 157 238 338 61 279 b 219 -15 61 97 99 -15 b 450 50 239 -15 369 -12 l 450 0 z m 446 183 b 399 96 446 157 446 122 b 290 69 358 71 306 69 b 161 160 224 69 161 101 b 446 269 161 257 386 267 z m 565 931 l 481 931 b 426 850 479 883 463 850 b 328 896 394 850 365 869 b 239 931 301 914 274 931 b 103 765 174 931 106 874 l 188 765 b 242 846 189 813 206 846 b 340 800 274 846 303 826 b 429 765 367 782 394 765 b 565 931 494 765 563 822 z "},"ä":{"ha":668,"x_min":0,"x_max":0,"o":"m 554 0 l 554 401 b 325 640 554 543 453 640 b 107 581 235 640 172 618 l 115 489 b 325 558 188 540 257 558 b 446 400 390 558 446 503 l 446 340 b 61 157 238 338 61 279 b 219 -15 61 97 99 -15 b 450 50 239 -15 369 -12 l 450 0 z m 446 183 b 399 96 446 157 446 122 b 290 69 358 71 306 69 b 161 160 224 69 161 101 b 446 269 161 257 386 267 z m 288 793 l 288 904 l 176 904 l 176 793 z m 490 793 l 490 904 l 379 904 l 379 793 z "},"å":{"ha":668,"x_min":0,"x_max":0,"o":"m 554 0 l 554 401 b 325 640 554 543 453 640 b 107 581 235 640 172 618 l 115 489 b 325 558 188 540 257 558 b 446 400 390 558 446 503 l 446 340 b 61 157 238 338 61 279 b 219 -15 61 97 99 -15 b 450 50 239 -15 369 -12 l 450 0 z m 446 183 b 399 96 446 157 446 122 b 290 69 358 71 306 69 b 161 160 224 69 161 101 b 446 269 161 257 386 267 z m 403 835 b 333 783 403 783 346 783 b 264 835 322 783 264 783 b 333 886 264 886 321 886 b 403 835 344 886 403 886 z m 488 833 b 333 951 488 900 419 951 b 179 836 243 951 179 896 b 333 718 179 769 247 718 b 488 833 424 718 488 774 z "},"æ":{"ha":1003,"x_min":0,"x_max":0,"o":"m 963 304 b 732 640 963 353 963 640 b 521 533 657 640 578 603 b 325 640 479 600 404 640 b 107 581 236 640 172 618 l 115 489 b 326 558 182 536 247 558 b 447 400 389 558 447 506 l 447 343 b 65 158 368 339 65 325 b 224 -15 65 113 90 -15 b 528 92 263 -15 463 -11 b 754 -15 617 -11 719 -15 b 956 57 821 -15 894 7 l 947 147 b 756 69 874 79 794 69 b 556 304 657 69 563 156 z m 881 381 l 563 381 b 733 556 586 488 658 556 b 881 381 776 556 860 533 z m 454 176 b 293 69 454 69 314 69 b 165 160 218 69 165 108 b 449 265 165 254 392 265 b 454 176 450 256 454 193 z "},"ç":{"ha":617,"x_min":0,"x_max":0,"o":"m 576 56 l 568 149 b 351 74 497 93 422 74 b 158 310 236 74 158 174 b 357 551 158 418 210 551 b 553 490 429 551 476 540 l 569 581 b 356 640 488 628 440 640 b 50 308 163 640 50 472 b 350 -15 50 136 176 -15 b 576 56 425 -15 501 4 z m 404 -64 l 319 -64 l 217 -297 l 313 -297 z "},"è":{"ha":617,"x_min":0,"x_max":0,"o":"m 575 304 b 519 539 575 351 574 456 b 328 640 463 625 378 640 b 49 314 174 640 49 493 b 349 -15 49 131 182 -15 b 569 57 436 -15 515 18 l 561 147 b 350 69 474 75 382 69 b 146 304 239 69 150 168 z m 496 381 l 153 381 b 328 556 175 486 249 556 b 496 381 400 556 478 508 z m 406 732 l 221 964 l 113 964 l 321 732 z "},"é":{"ha":617,"x_min":0,"x_max":0,"o":"m 575 304 b 519 539 575 351 574 456 b 328 640 463 625 378 640 b 49 314 174 640 49 493 b 349 -15 49 131 182 -15 b 569 57 436 -15 515 18 l 561 147 b 350 69 474 75 382 69 b 146 304 239 69 150 168 z m 496 381 l 153 381 b 328 556 175 486 249 556 b 496 381 400 556 478 508 z m 504 964 l 396 964 l 211 732 l 296 732 z "},"ê":{"ha":617,"x_min":0,"x_max":0,"o":"m 575 304 b 519 539 575 351 574 456 b 328 640 463 625 378 640 b 49 314 174 640 49 493 b 349 -15 49 131 182 -15 b 569 57 436 -15 515 18 l 561 147 b 350 69 474 75 382 69 b 146 304 239 69 150 168 z m 496 381 l 153 381 b 328 556 175 486 249 556 b 496 381 400 556 478 508 z m 524 729 l 350 968 l 267 968 l 93 729 l 175 729 l 308 900 l 442 729 z "},"ë":{"ha":617,"x_min":0,"x_max":0,"o":"m 575 304 b 519 539 575 351 574 456 b 328 640 463 625 378 640 b 49 314 174 640 49 493 b 349 -15 49 131 182 -15 b 569 57 436 -15 515 18 l 561 147 b 350 69 474 75 382 69 b 146 304 239 69 150 168 z m 496 381 l 153 381 b 328 556 175 486 249 556 b 496 381 400 556 478 508 z m 263 793 l 263 904 l 151 904 l 151 793 z m 465 793 l 465 904 l 354 904 l 354 793 z "},"ì":{"ha":332,"x_min":0,"x_max":0,"o":"m 217 0 l 217 617 l 113 617 l 113 0 z m 217 732 l 32 964 l -76 964 l 132 732 z "},"í":{"ha":332,"x_min":0,"x_max":0,"o":"m 217 0 l 217 617 l 113 617 l 113 0 z m 406 964 l 297 964 l 113 732 l 197 732 z "},"î":{"ha":332,"x_min":0,"x_max":0,"o":"m 217 0 l 217 617 l 113 617 l 113 0 z m 381 729 l 207 968 l 124 968 l -50 729 l 32 729 l 165 900 l 299 729 z "},"ï":{"ha":332,"x_min":0,"x_max":0,"o":"m 217 0 l 217 617 l 113 617 l 113 0 z m 119 793 l 119 904 l 8 904 l 8 793 z m 322 793 l 322 904 l 211 904 l 211 793 z "},"ð":{"ha":694,"x_min":0,"x_max":0,"o":"m 651 306 b 542 857 651 510 628 724 l 615 919 l 557 988 l 485 924 b 313 985 439 963 383 985 l 313 896 b 418 867 354 896 389 886 l 351 810 l 410 743 l 476 800 b 536 568 511 740 528 658 b 347 640 483 614 418 640 b 42 306 176 640 42 488 b 346 -15 42 122 183 -15 b 561 78 429 -15 506 19 b 651 306 619 139 651 221 z m 543 319 b 346 74 543 156 449 74 b 150 319 250 74 150 151 b 346 556 150 488 256 556 b 543 319 443 556 543 483 z "},"ñ":{"ha":718,"x_min":0,"x_max":0,"o":"m 604 0 l 604 414 b 414 632 604 506 583 632 b 213 526 289 632 221 538 l 213 625 l 113 625 l 113 0 l 221 0 l 221 340 b 361 547 221 432 256 547 b 496 404 494 547 496 449 l 496 0 z m 590 931 l 506 931 b 451 850 504 883 488 850 b 353 896 419 850 390 869 b 264 931 326 914 299 931 b 128 765 199 931 131 874 l 213 765 b 267 846 214 813 231 846 b 365 800 299 846 328 826 b 454 765 392 782 419 765 b 590 931 519 765 588 822 z "},"ò":{"ha":694,"x_min":0,"x_max":0,"o":"m 651 306 b 347 640 651 492 513 640 b 42 306 176 640 42 488 b 346 -15 42 122 183 -15 b 651 306 513 -15 651 125 z m 543 319 b 346 74 543 156 449 74 b 150 319 250 74 150 151 b 346 556 150 488 256 556 b 543 319 443 556 543 483 z m 444 732 l 260 964 l 151 964 l 360 732 z "},"ó":{"ha":694,"x_min":0,"x_max":0,"o":"m 651 306 b 347 640 651 492 513 640 b 42 306 176 640 42 488 b 346 -15 42 122 183 -15 b 651 306 513 -15 651 125 z m 543 319 b 346 74 543 156 449 74 b 150 319 250 74 150 151 b 346 556 150 488 256 556 b 543 319 443 556 543 483 z m 543 964 l 435 964 l 250 732 l 335 732 z "},"ô":{"ha":694,"x_min":0,"x_max":0,"o":"m 651 306 b 347 640 651 492 513 640 b 42 306 176 640 42 488 b 346 -15 42 122 183 -15 b 651 306 513 -15 651 125 z m 543 319 b 346 74 543 156 449 74 b 150 319 250 74 150 151 b 346 556 150 488 256 556 b 543 319 443 556 543 483 z m 563 729 l 389 968 l 306 968 l 132 729 l 214 729 l 347 900 l 481 729 z "},"õ":{"ha":694,"x_min":0,"x_max":0,"o":"m 651 306 b 347 640 651 492 513 640 b 42 306 176 640 42 488 b 346 -15 42 122 183 -15 b 651 306 513 -15 651 125 z m 543 319 b 346 74 543 156 449 74 b 150 319 250 74 150 151 b 346 556 150 488 256 556 b 543 319 443 556 543 483 z m 579 931 l 494 931 b 440 850 493 883 476 850 b 342 896 408 850 379 869 b 253 931 315 914 288 931 b 117 765 188 931 119 874 l 201 765 b 256 846 203 813 219 846 b 354 800 288 846 317 826 b 443 765 381 782 408 765 b 579 931 508 765 576 822 z "},"ö":{"ha":694,"x_min":0,"x_max":0,"o":"m 651 306 b 347 640 651 492 513 640 b 42 306 176 640 42 488 b 346 -15 42 122 183 -15 b 651 306 513 -15 651 125 z m 543 319 b 346 74 543 156 449 74 b 150 319 250 74 150 151 b 346 556 150 488 256 556 b 543 319 443 556 543 483 z m 301 793 l 301 904 l 190 904 l 190 793 z m 504 793 l 504 904 l 393 904 l 393 793 z "},"÷":{"ha":1081,"x_min":0,"x_max":0,"o":"m 1001 347 b 956 375 1001 375 975 375 l 124 375 b 78 347 104 375 78 375 b 125 319 78 319 104 319 l 954 319 b 1001 347 975 319 1001 319 z m 597 460 l 597 575 l 482 575 l 482 460 z m 597 118 l 597 233 l 482 233 l 482 118 z "},"ø":{"ha":694,"x_min":0,"x_max":0,"o":"m 649 306 b 539 564 649 411 604 504 l 633 732 l 560 774 l 469 613 b 347 640 436 628 389 640 b 44 306 179 640 44 489 b 156 57 44 164 121 90 l 60 -114 l 133 -156 l 226 11 b 346 -15 269 -8 311 -15 b 649 306 510 -15 649 124 z m 426 538 l 200 138 b 149 306 150 201 149 276 b 347 556 149 469 243 556 b 426 538 375 556 401 550 z m 544 306 b 346 69 544 146 447 69 b 269 85 319 69 293 74 l 493 482 b 544 306 515 453 544 394 z "},"ù":{"ha":718,"x_min":0,"x_max":0,"o":"m 604 0 l 604 617 l 496 617 l 496 214 b 329 61 496 110 418 61 b 221 157 231 61 221 97 l 221 617 l 113 617 l 113 151 b 260 -15 113 51 144 -15 b 500 67 333 -15 432 7 l 500 0 z m 456 732 l 271 964 l 163 964 l 371 732 z "},"ú":{"ha":718,"x_min":0,"x_max":0,"o":"m 604 0 l 604 617 l 496 617 l 496 214 b 329 61 496 110 418 61 b 221 157 231 61 221 97 l 221 617 l 113 617 l 113 151 b 260 -15 113 51 144 -15 b 500 67 333 -15 432 7 l 500 0 z m 554 964 l 446 964 l 261 732 l 346 732 z "},"û":{"ha":718,"x_min":0,"x_max":0,"o":"m 604 0 l 604 617 l 496 617 l 496 214 b 329 61 496 110 418 61 b 221 157 231 61 221 97 l 221 617 l 113 617 l 113 151 b 260 -15 113 51 144 -15 b 500 67 333 -15 432 7 l 500 0 z m 574 729 l 400 968 l 317 968 l 143 729 l 225 729 l 358 900 l 492 729 z "},"ü":{"ha":718,"x_min":0,"x_max":0,"o":"m 604 0 l 604 617 l 496 617 l 496 214 b 329 61 496 110 418 61 b 221 157 231 61 221 97 l 221 617 l 113 617 l 113 151 b 260 -15 113 51 144 -15 b 500 67 333 -15 432 7 l 500 0 z m 313 793 l 313 904 l 201 904 l 201 793 z m 515 793 l 515 904 l 404 904 l 404 793 z "},"ý":{"ha":640,"x_min":0,"x_max":0,"o":"m 619 617 l 515 617 b 331 79 335 175 332 111 l 329 79 b 204 443 321 172 210 431 l 129 617 l 19 617 l 289 0 l 239 -125 b 160 -206 203 -206 179 -206 b 51 -183 138 -206 93 -200 l 60 -274 b 160 -285 90 -281 129 -285 b 317 -126 208 -285 260 -268 z m 517 964 l 408 964 l 224 732 l 308 732 z "},"þ":{"ha":718,"x_min":0,"x_max":0,"o":"m 667 310 b 446 632 667 476 579 632 b 218 549 363 632 282 603 l 218 964 l 114 964 l 114 -269 l 222 -269 l 222 64 b 410 -15 265 24 326 -15 b 667 310 544 -15 667 121 z m 558 310 b 357 69 558 129 442 69 b 222 158 303 69 257 94 l 222 465 b 371 547 244 499 294 547 b 558 310 453 547 558 488 z "},"ÿ":{"ha":640,"x_min":0,"x_max":0,"o":"m 619 617 l 515 617 b 331 79 335 175 332 111 l 329 79 b 204 443 321 172 210 431 l 129 617 l 19 617 l 289 0 l 239 -125 b 160 -206 203 -206 179 -206 b 51 -183 138 -206 93 -200 l 60 -274 b 160 -285 90 -281 129 -285 b 317 -126 208 -285 260 -268 z m 275 793 l 275 904 l 164 904 l 164 793 z m 478 793 l 478 904 l 367 904 l 367 793 z "},"Ā":{"ha":926,"x_min":0,"x_max":0,"o":"m 886 0 l 524 964 l 401 964 l 39 0 l 142 0 l 249 283 l 653 283 l 758 0 z m 622 361 l 278 361 b 368 613 349 560 297 414 b 450 864 397 694 440 813 l 451 864 b 496 718 454 844 464 810 z m 714 1050 l 714 1139 l 213 1139 l 213 1050 z "},"ā":{"ha":668,"x_min":0,"x_max":0,"o":"m 554 0 l 554 401 b 325 640 554 543 453 640 b 107 581 235 640 172 618 l 115 489 b 325 558 188 540 257 558 b 446 400 390 558 446 503 l 446 340 b 61 157 238 338 61 279 b 219 -15 61 97 99 -15 b 450 50 239 -15 369 -12 l 450 0 z m 446 183 b 399 96 446 157 446 122 b 290 69 358 71 306 69 b 161 160 224 69 161 101 b 446 269 161 257 386 267 z m 585 804 l 585 893 l 83 893 l 83 804 z "},"Ă":{"ha":926,"x_min":0,"x_max":0,"o":"m 886 0 l 524 964 l 401 964 l 39 0 l 142 0 l 249 283 l 653 283 l 758 0 z m 622 361 l 278 361 b 368 613 349 560 297 414 b 450 864 397 694 440 813 l 451 864 b 496 718 454 844 464 810 z m 697 1283 l 613 1283 b 464 1129 610 1181 531 1129 b 314 1283 393 1129 317 1183 l 229 1283 b 463 1036 232 1135 343 1036 b 697 1283 586 1036 694 1138 z "},"ă":{"ha":668,"x_min":0,"x_max":0,"o":"m 554 0 l 554 401 b 325 640 554 543 453 640 b 107 581 235 640 172 618 l 115 489 b 325 558 188 540 257 558 b 446 400 390 558 446 503 l 446 340 b 61 157 238 338 61 279 b 219 -15 61 97 99 -15 b 450 50 239 -15 369 -12 l 450 0 z m 446 183 b 399 96 446 157 446 122 b 290 69 358 71 306 69 b 161 160 224 69 161 101 b 446 269 161 257 386 267 z m 568 972 l 483 972 b 335 818 481 869 401 818 b 185 972 264 818 188 872 l 100 972 b 333 725 103 824 214 725 b 568 972 457 725 565 826 z "},"Ą":{"ha":926,"x_min":0,"x_max":0,"o":"m 911 -260 l 892 -178 b 799 -197 861 -190 829 -199 b 725 -144 760 -194 726 -186 b 846 0 724 -83 782 -36 l 886 0 l 524 964 l 401 964 l 39 0 l 142 0 l 249 283 l 653 283 l 758 0 b 638 -176 689 -39 633 -106 b 775 -294 639 -236 682 -294 b 911 -260 821 -294 856 -286 z m 622 361 l 278 361 b 368 613 349 560 297 414 b 450 864 397 694 440 813 l 451 864 b 496 718 454 844 464 810 z "},"ą":{"ha":668,"x_min":0,"x_max":0,"o":"m 603 -260 l 583 -178 b 490 -197 553 -190 521 -199 b 417 -144 451 -194 418 -186 b 539 0 415 -83 475 -36 l 554 0 l 554 401 b 325 640 554 543 453 640 b 107 581 235 640 172 618 l 115 489 b 325 558 188 540 257 558 b 446 400 390 558 446 503 l 446 340 b 61 157 238 338 61 279 b 219 -15 61 97 99 -15 b 450 50 239 -15 369 -12 l 450 0 b 329 -176 381 -39 325 -106 b 467 -294 331 -236 374 -294 b 603 -260 513 -294 547 -286 z m 446 183 b 399 96 446 157 446 122 b 290 69 358 71 306 69 b 161 160 224 69 161 101 b 446 269 161 257 386 267 z "},"Ć":{"ha":888,"x_min":0,"x_max":0,"o":"m 817 47 l 808 143 b 550 58 708 72 646 58 b 217 482 340 58 217 269 b 546 906 217 708 353 906 b 781 833 656 906 722 871 l 801 946 b 547 994 714 979 639 994 b 93 482 281 994 93 754 b 549 -31 93 214 278 -31 b 817 47 664 -31 718 -12 z m 753 1206 l 599 1206 l 356 1036 l 479 1036 z "},"ć":{"ha":617,"x_min":0,"x_max":0,"o":"m 576 56 l 568 149 b 351 74 497 93 422 74 b 158 310 236 74 158 174 b 357 551 158 418 210 551 b 553 490 429 551 476 540 l 569 581 b 356 640 488 628 440 640 b 50 308 163 640 50 472 b 350 -15 50 136 176 -15 b 576 56 425 -15 501 4 z m 535 964 l 426 964 l 242 732 l 326 732 z "},"Ĉ":{"ha":888,"x_min":0,"x_max":0,"o":"m 817 47 l 808 143 b 550 58 708 72 646 58 b 217 482 340 58 217 269 b 546 906 217 708 353 906 b 781 833 656 906 722 871 l 801 946 b 547 994 714 979 639 994 b 93 482 281 994 93 754 b 549 -31 93 214 278 -31 b 817 47 664 -31 718 -12 z m 704 1022 l 529 1208 l 446 1208 l 271 1022 l 353 1022 l 488 1157 l 622 1022 z "},"ĉ":{"ha":617,"x_min":0,"x_max":0,"o":"m 576 56 l 568 149 b 351 74 497 93 422 74 b 158 310 236 74 158 174 b 357 551 158 418 210 551 b 553 490 429 551 476 540 l 569 581 b 356 640 488 628 440 640 b 50 308 163 640 50 472 b 350 -15 50 136 176 -15 b 576 56 425 -15 501 4 z m 554 729 l 381 968 l 297 968 l 124 729 l 206 729 l 339 900 l 472 729 z "},"Ċ":{"ha":888,"x_min":0,"x_max":0,"o":"m 817 47 l 808 143 b 550 58 708 72 646 58 b 217 482 340 58 217 269 b 546 906 217 708 353 906 b 781 833 656 906 722 871 l 801 946 b 547 994 714 979 639 994 b 93 482 281 994 93 754 b 549 -31 93 214 278 -31 b 817 47 664 -31 718 -12 z m 549 1022 l 549 1146 l 425 1146 l 425 1022 z "},"ċ":{"ha":617,"x_min":0,"x_max":0,"o":"m 576 56 l 568 149 b 351 74 497 93 422 74 b 158 310 236 74 158 174 b 357 551 158 418 210 551 b 553 490 429 551 476 540 l 569 581 b 356 640 488 628 440 640 b 50 308 163 640 50 472 b 350 -15 50 136 176 -15 b 576 56 425 -15 501 4 z m 400 786 l 400 910 l 276 910 l 276 786 z "},"Č":{"ha":888,"x_min":0,"x_max":0,"o":"m 817 47 l 808 143 b 550 58 708 72 646 58 b 217 482 340 58 217 269 b 546 906 217 708 353 906 b 781 833 656 906 722 871 l 801 946 b 547 994 714 979 639 994 b 93 482 281 994 93 754 b 549 -31 93 214 278 -31 b 817 47 664 -31 718 -12 z m 704 1208 l 622 1208 l 488 1074 l 353 1208 l 271 1208 l 446 1022 l 529 1022 z "},"č":{"ha":617,"x_min":0,"x_max":0,"o":"m 576 56 l 568 149 b 351 74 497 93 422 74 b 158 310 236 74 158 174 b 357 551 158 418 210 551 b 553 490 429 551 476 540 l 569 581 b 356 640 488 628 440 640 b 50 308 163 640 50 472 b 350 -15 50 136 176 -15 b 576 56 425 -15 501 4 z m 554 968 l 472 968 l 339 797 l 206 968 l 124 968 l 297 729 l 381 729 z "},"Ď":{"ha":1003,"x_min":0,"x_max":0,"o":"m 924 474 b 497 964 924 743 736 964 l 133 964 l 133 0 l 499 0 b 924 474 735 0 924 211 z m 804 474 b 465 78 804 238 660 78 l 253 78 l 253 886 l 465 886 b 804 474 660 886 804 718 z m 576 1208 l 494 1208 l 360 1074 l 225 1208 l 143 1208 l 318 1022 l 401 1022 z "},"ď":{"ha":718,"x_min":0,"x_max":0,"o":"m 603 0 l 603 964 l 499 964 l 499 556 b 296 632 425 617 347 632 b 50 308 158 632 50 488 b 289 -15 50 126 157 -15 b 494 72 335 -15 417 -3 l 494 0 z m 494 193 b 449 108 494 174 493 149 b 346 69 417 81 382 69 b 158 307 260 69 158 135 b 360 547 158 490 278 547 b 494 471 422 547 464 515 z m 757 861 l 757 964 l 654 964 l 654 860 l 685 860 l 654 704 l 706 704 z "},"Đ":{"ha":1003,"x_min":0,"x_max":0,"o":"m 924 474 b 497 964 924 743 736 964 l 133 964 l 133 526 l 25 526 l 25 438 l 133 438 l 133 0 l 499 0 b 924 474 735 0 924 211 z m 804 474 b 465 78 804 238 660 78 l 253 78 l 253 438 l 393 438 l 393 526 l 253 526 l 253 886 l 465 886 b 804 474 660 886 804 718 z "},"đ":{"ha":718,"x_min":0,"x_max":0,"o":"m 711 746 l 711 835 l 603 835 l 603 964 l 499 964 l 499 835 l 288 835 l 288 746 l 499 746 l 499 556 b 296 632 425 617 347 632 b 50 308 158 632 50 488 b 289 -15 50 126 157 -15 b 494 72 335 -15 417 -3 l 494 0 l 603 0 l 603 746 z m 494 193 b 449 108 494 174 493 149 b 346 69 417 81 382 69 b 158 307 260 69 158 135 b 360 547 158 490 278 547 b 494 471 422 547 464 515 z "},"Ē":{"ha":829,"x_min":0,"x_max":0,"o":"m 769 0 l 769 99 l 594 99 b 544 97 578 99 561 97 l 254 97 l 254 457 l 713 457 l 713 542 l 254 542 l 254 871 l 446 871 b 496 869 463 871 479 869 l 750 869 l 750 960 l 131 960 l 131 0 z m 667 1050 l 667 1139 l 165 1139 l 165 1050 z "},"ē":{"ha":617,"x_min":0,"x_max":0,"o":"m 575 304 b 519 539 575 351 574 456 b 328 640 463 625 378 640 b 49 314 174 640 49 493 b 349 -15 49 131 182 -15 b 569 57 436 -15 515 18 l 561 147 b 350 69 474 75 382 69 b 146 304 239 69 150 168 z m 496 381 l 153 381 b 328 556 175 486 249 556 b 496 381 400 556 478 508 z m 560 804 l 560 893 l 58 893 l 58 804 z "},"Ĕ":{"ha":829,"x_min":0,"x_max":0,"o":"m 769 0 l 769 99 l 594 99 b 544 97 578 99 561 97 l 254 97 l 254 457 l 713 457 l 713 542 l 254 542 l 254 871 l 446 871 b 496 869 463 871 479 869 l 750 869 l 750 960 l 131 960 l 131 0 z m 650 1283 l 565 1283 b 417 1129 563 1181 483 1129 b 267 1283 346 1129 269 1183 l 182 1283 b 415 1036 185 1135 296 1036 b 650 1283 539 1036 647 1138 z "},"ĕ":{"ha":617,"x_min":0,"x_max":0,"o":"m 575 304 b 519 539 575 351 574 456 b 328 640 463 625 378 640 b 49 314 174 640 49 493 b 349 -15 49 131 182 -15 b 569 57 436 -15 515 18 l 561 147 b 350 69 474 75 382 69 b 146 304 239 69 150 168 z m 496 381 l 153 381 b 328 556 175 486 249 556 b 496 381 400 556 478 508 z m 543 972 l 458 972 b 310 818 456 869 376 818 b 160 972 239 818 163 872 l 75 972 b 308 725 78 824 189 725 b 543 972 432 725 540 826 z "},"Ė":{"ha":829,"x_min":0,"x_max":0,"o":"m 769 0 l 769 99 l 594 99 b 544 97 578 99 561 97 l 254 97 l 254 457 l 713 457 l 713 542 l 254 542 l 254 871 l 446 871 b 496 869 463 871 479 869 l 750 869 l 750 960 l 131 960 l 131 0 z m 476 1022 l 476 1146 l 353 1146 l 353 1022 z "},"ė":{"ha":617,"x_min":0,"x_max":0,"o":"m 575 304 b 519 539 575 351 574 456 b 328 640 463 625 378 640 b 49 314 174 640 49 493 b 349 -15 49 131 182 -15 b 569 57 436 -15 515 18 l 561 147 b 350 69 474 75 382 69 b 146 304 239 69 150 168 z m 496 381 l 153 381 b 328 556 175 486 249 556 b 496 381 400 556 478 508 z m 369 786 l 369 910 l 246 910 l 246 786 z "},"Ę":{"ha":829,"x_min":0,"x_max":0,"o":"m 769 -260 l 750 -178 b 657 -197 719 -190 688 -199 b 583 -144 618 -194 585 -186 b 707 0 582 -83 643 -36 l 769 0 l 769 99 l 594 99 b 544 97 578 99 561 97 l 254 97 l 254 457 l 713 457 l 713 542 l 254 542 l 254 871 l 446 871 b 496 869 463 871 479 869 l 750 869 l 750 960 l 131 960 l 131 0 l 617 0 b 496 -176 557 -40 492 -106 b 633 -294 497 -236 540 -294 b 769 -260 679 -294 714 -286 z "},"ę":{"ha":617,"x_min":0,"x_max":0,"o":"m 575 304 b 519 539 575 351 574 456 b 328 640 463 625 378 640 b 49 314 174 640 49 493 b 349 -15 49 131 182 -15 b 254 -176 293 -54 250 -115 b 392 -294 256 -236 299 -294 b 528 -260 438 -294 472 -286 l 508 -178 b 415 -197 478 -190 446 -199 b 342 -144 376 -194 343 -186 b 465 4 340 -83 401 -32 b 569 57 506 18 540 36 l 561 147 b 350 69 474 75 382 69 b 146 304 239 69 150 168 z m 496 381 l 153 381 b 328 556 175 486 249 556 b 496 381 400 556 478 508 z "},"Ě":{"ha":829,"x_min":0,"x_max":0,"o":"m 769 0 l 769 99 l 594 99 b 544 97 578 99 561 97 l 254 97 l 254 457 l 713 457 l 713 542 l 254 542 l 254 871 l 446 871 b 496 869 463 871 479 869 l 750 869 l 750 960 l 131 960 l 131 0 z m 632 1208 l 550 1208 l 415 1074 l 281 1208 l 199 1208 l 374 1022 l 457 1022 z "},"ě":{"ha":617,"x_min":0,"x_max":0,"o":"m 575 304 b 519 539 575 351 574 456 b 328 640 463 625 378 640 b 49 314 174 640 49 493 b 349 -15 49 131 182 -15 b 569 57 436 -15 515 18 l 561 147 b 350 69 474 75 382 69 b 146 304 239 69 150 168 z m 496 381 l 153 381 b 328 556 175 486 249 556 b 496 381 400 556 478 508 z m 524 968 l 442 968 l 308 797 l 175 968 l 93 968 l 267 729 l 350 729 z "},"Ĝ":{"ha":926,"x_min":0,"x_max":0,"o":"m 832 38 l 832 415 l 540 415 l 540 331 l 724 331 l 724 86 b 544 58 646 63 579 58 b 217 482 356 58 217 251 b 544 906 217 713 356 906 b 800 814 633 906 714 885 l 821 926 b 546 994 746 961 676 994 b 93 482 285 994 93 758 b 543 -31 93 199 292 -31 b 832 38 679 -31 789 17 z m 679 1022 l 504 1208 l 421 1208 l 246 1022 l 328 1022 l 463 1157 l 597 1022 z "},"ĝ":{"ha":694,"x_min":0,"x_max":0,"o":"m 674 544 l 658 632 b 439 588 561 632 481 606 b 307 632 410 611 363 632 b 86 406 188 632 86 532 b 132 268 86 354 104 304 b 92 150 92 211 92 157 b 128 44 92 114 104 74 b 39 -99 56 1 39 -62 b 346 -286 39 -203 176 -286 b 654 -97 517 -286 654 -204 b 368 96 654 96 422 96 l 246 96 b 165 169 228 96 165 96 b 181 219 165 185 171 207 b 307 179 210 199 256 179 b 529 406 432 179 529 282 b 483 544 529 472 499 524 l 489 543 b 592 549 519 543 558 549 b 674 544 617 549 674 544 z m 432 406 b 307 258 432 297 367 258 b 183 406 256 258 183 290 b 307 553 183 521 256 553 b 432 406 367 553 432 514 z m 557 -100 b 347 -207 557 -161 461 -207 b 136 -99 235 -207 136 -164 b 244 -4 136 -94 136 -4 l 369 -4 b 557 -100 400 -4 557 -4 z m 514 729 l 340 968 l 257 968 l 83 729 l 165 729 l 299 900 l 432 729 z "},"Ğ":{"ha":926,"x_min":0,"x_max":0,"o":"m 832 38 l 832 415 l 540 415 l 540 331 l 724 331 l 724 86 b 544 58 646 63 579 58 b 217 482 356 58 217 251 b 544 906 217 713 356 906 b 800 814 633 906 714 885 l 821 926 b 546 994 746 961 676 994 b 93 482 285 994 93 758 b 543 -31 93 199 292 -31 b 832 38 679 -31 789 17 z m 697 1283 l 613 1283 b 464 1129 610 1181 531 1129 b 314 1283 393 1129 317 1183 l 229 1283 b 463 1036 232 1135 343 1036 b 697 1283 586 1036 694 1138 z "},"ğ":{"ha":694,"x_min":0,"x_max":0,"o":"m 674 544 l 658 632 b 439 588 561 632 481 606 b 307 632 410 611 363 632 b 86 406 188 632 86 532 b 132 268 86 354 104 304 b 92 150 92 211 92 157 b 128 44 92 114 104 74 b 39 -99 56 1 39 -62 b 346 -286 39 -203 176 -286 b 654 -97 517 -286 654 -204 b 368 96 654 96 422 96 l 246 96 b 165 169 228 96 165 96 b 181 219 165 185 171 207 b 307 179 210 199 256 179 b 529 406 432 179 529 282 b 483 544 529 472 499 524 l 489 543 b 592 549 519 543 558 549 b 674 544 617 549 674 544 z m 432 406 b 307 258 432 297 367 258 b 183 406 256 258 183 290 b 307 553 183 521 256 553 b 432 406 367 553 432 514 z m 557 -100 b 347 -207 557 -161 461 -207 b 136 -99 235 -207 136 -164 b 244 -4 136 -94 136 -4 l 369 -4 b 557 -100 400 -4 557 -4 z m 533 972 l 449 972 b 300 818 446 869 367 818 b 150 972 229 818 153 872 l 65 972 b 299 725 68 824 179 725 b 533 972 422 725 531 826 z "},"Ġ":{"ha":926,"x_min":0,"x_max":0,"o":"m 832 38 l 832 415 l 540 415 l 540 331 l 724 331 l 724 86 b 544 58 646 63 579 58 b 217 482 356 58 217 251 b 544 906 217 713 356 906 b 800 814 633 906 714 885 l 821 926 b 546 994 746 961 676 994 b 93 482 285 994 93 758 b 543 -31 93 199 292 -31 b 832 38 679 -31 789 17 z m 524 1022 l 524 1146 l 400 1146 l 400 1022 z "},"ġ":{"ha":694,"x_min":0,"x_max":0,"o":"m 674 544 l 658 632 b 439 588 561 632 481 606 b 307 632 410 611 363 632 b 86 406 188 632 86 532 b 132 268 86 354 104 304 b 92 150 92 211 92 157 b 128 44 92 114 104 74 b 39 -99 56 1 39 -62 b 346 -286 39 -203 176 -286 b 654 -97 517 -286 654 -204 b 368 96 654 96 422 96 l 246 96 b 165 169 228 96 165 96 b 181 219 165 185 171 207 b 307 179 210 199 256 179 b 529 406 432 179 529 282 b 483 544 529 472 499 524 l 489 543 b 592 549 519 543 558 549 b 674 544 617 549 674 544 z m 432 406 b 307 258 432 297 367 258 b 183 406 256 258 183 290 b 307 553 183 521 256 553 b 432 406 367 553 432 514 z m 557 -100 b 347 -207 557 -161 461 -207 b 136 -99 235 -207 136 -164 b 244 -4 136 -94 136 -4 l 369 -4 b 557 -100 400 -4 557 -4 z m 360 786 l 360 910 l 236 910 l 236 786 z "},"Ģ":{"ha":926,"x_min":0,"x_max":0,"o":"m 832 38 l 832 415 l 540 415 l 540 331 l 724 331 l 724 86 b 544 58 646 63 579 58 b 217 482 356 58 217 251 b 544 906 217 713 356 906 b 800 814 633 906 714 885 l 821 926 b 546 994 746 961 676 994 b 93 482 285 994 93 758 b 543 -31 93 199 292 -31 b 832 38 679 -31 789 17 z m 514 -212 l 514 -110 l 411 -110 l 411 -214 l 442 -214 l 411 -369 l 463 -369 z "},"ģ":{"ha":694,"x_min":0,"x_max":0,"o":"m 350 750 l 350 854 l 319 854 l 350 1010 l 299 1010 l 247 853 l 247 750 z m 674 544 l 658 632 b 439 588 561 632 481 606 b 307 632 410 611 363 632 b 86 406 188 632 86 532 b 132 268 86 354 104 304 b 92 150 92 211 92 157 b 128 44 92 114 104 74 b 39 -99 56 1 39 -62 b 346 -286 39 -203 176 -286 b 654 -97 517 -286 654 -204 b 368 96 654 96 422 96 l 246 96 b 165 169 228 96 165 96 b 181 219 165 185 171 207 b 307 179 210 199 256 179 b 529 406 432 179 529 282 b 483 544 529 472 499 524 l 489 543 b 592 549 519 543 558 549 b 674 544 617 549 674 544 z m 432 406 b 307 258 432 297 367 258 b 183 406 256 258 183 290 b 307 553 183 521 256 553 b 432 406 367 553 432 514 z m 557 -100 b 347 -207 557 -161 461 -207 b 136 -99 235 -207 136 -164 b 244 -4 136 -94 136 -4 l 369 -4 b 557 -100 400 -4 557 -4 z "},"Ĥ":{"ha":983,"x_min":0,"x_max":0,"o":"m 851 0 l 851 964 l 728 964 l 728 543 l 254 543 l 254 964 l 131 964 l 131 0 l 254 0 l 254 458 l 728 458 l 728 0 z m 708 1022 l 533 1208 l 450 1208 l 275 1022 l 357 1022 l 492 1157 l 626 1022 z "},"ĥ":{"ha":718,"x_min":0,"x_max":0,"o":"m 604 0 l 604 414 b 414 632 604 506 583 632 b 217 532 328 632 261 589 l 217 964 l 113 964 l 113 0 l 221 0 l 221 340 b 361 547 221 432 256 547 b 496 404 494 547 496 449 l 496 0 z m 575 1022 l 400 1208 l 317 1208 l 142 1022 l 224 1022 l 358 1157 l 493 1022 z "},"Ħ":{"ha":983,"x_min":0,"x_max":0,"o":"m 924 679 l 924 768 l 851 768 l 851 964 l 728 964 l 728 768 l 254 768 l 254 964 l 131 964 l 131 768 l 58 768 l 58 679 l 131 679 l 131 0 l 254 0 l 254 458 l 728 458 l 728 0 l 851 0 l 851 679 z m 728 543 l 254 543 l 254 679 l 728 679 z "},"ħ":{"ha":718,"x_min":0,"x_max":0,"o":"m 604 0 l 604 414 b 414 632 604 506 583 632 b 217 532 328 632 261 589 l 217 746 l 358 746 l 358 835 l 217 835 l 217 964 l 113 964 l 113 835 l 4 835 l 4 746 l 113 746 l 113 0 l 221 0 l 221 340 b 361 547 221 432 256 547 b 496 404 494 547 496 449 l 496 0 z "},"Ĩ":{"ha":386,"x_min":0,"x_max":0,"o":"m 254 0 l 254 964 l 131 964 l 131 0 z m 425 1188 l 340 1188 b 286 1107 339 1140 322 1107 b 188 1153 254 1107 225 1126 b 99 1188 161 1171 133 1188 b -37 1022 33 1188 -35 1131 l 47 1022 b 101 1103 49 1069 65 1103 b 200 1057 133 1103 163 1083 b 289 1022 226 1039 254 1022 b 425 1188 354 1022 422 1079 z "},"ĩ":{"ha":332,"x_min":0,"x_max":0,"o":"m 217 0 l 217 617 l 113 617 l 113 0 z m 397 931 l 313 931 b 258 850 311 883 294 850 b 160 896 226 850 197 869 b 71 931 133 914 106 931 b -65 765 6 931 -62 874 l 19 765 b 74 846 21 813 38 846 b 172 800 106 846 135 826 b 261 765 199 782 226 765 b 397 931 326 765 394 822 z "},"Ī":{"ha":386,"x_min":0,"x_max":0,"o":"m 254 0 l 254 964 l 131 964 l 131 0 z m 444 1050 l 444 1139 l -57 1139 l -57 1050 z "},"ī":{"ha":332,"x_min":0,"x_max":0,"o":"m 217 0 l 217 617 l 113 617 l 113 0 z m 417 804 l 417 893 l -85 893 l -85 804 z "},"Ĭ":{"ha":386,"x_min":0,"x_max":0,"o":"m 254 0 l 254 964 l 131 964 l 131 0 z m 428 1283 l 343 1283 b 194 1129 340 1181 261 1129 b 44 1283 124 1129 47 1183 l -40 1283 b 193 1036 -37 1135 74 1036 b 428 1283 317 1036 425 1138 z "},"ĭ":{"ha":332,"x_min":0,"x_max":0,"o":"m 217 0 l 217 617 l 113 617 l 113 0 z m 400 972 l 315 972 b 167 818 313 869 233 818 b 17 972 96 818 19 872 l -68 972 b 165 725 -65 824 46 725 b 400 972 289 725 397 826 z "},"Į":{"ha":386,"x_min":0,"x_max":0,"o":"m 318 -260 l 299 -178 b 206 -197 268 -190 236 -199 b 132 -144 167 -194 133 -186 b 254 0 131 -83 190 -36 l 254 964 l 131 964 l 131 0 l 165 0 b 44 -176 96 -39 40 -106 b 182 -294 46 -236 89 -294 b 318 -260 228 -294 263 -286 z "},"į":{"ha":332,"x_min":0,"x_max":0,"o":"m 226 821 l 226 944 l 103 944 l 103 821 z m 281 -260 l 261 -178 b 168 -197 231 -190 199 -199 b 94 -144 129 -194 96 -186 b 217 0 93 -83 153 -36 l 217 617 l 113 617 l 113 0 l 128 0 b 7 -176 58 -39 3 -106 b 144 -294 8 -236 51 -294 b 281 -260 190 -294 225 -286 z "},"İ":{"ha":386,"x_min":0,"x_max":0,"o":"m 254 0 l 254 964 l 131 964 l 131 0 z m 254 1022 l 254 1146 l 131 1146 l 131 1022 z "},"ı":{"ha":332,"x_min":0,"x_max":0,"o":"m 217 0 l 217 617 l 113 617 l 113 0 z "},"Ĳ":{"ha":1003,"x_min":0,"x_max":0,"o":"m 254 0 l 254 964 l 131 964 l 131 0 z m 886 207 l 886 964 l 767 964 l 767 211 b 603 54 767 188 767 54 b 425 132 544 54 472 79 l 406 28 b 643 -31 439 11 526 -31 b 886 207 786 -31 886 50 z "},"ĳ":{"ha":669,"x_min":0,"x_max":0,"o":"m 226 786 l 226 910 l 103 910 l 103 786 z m 554 786 l 554 910 l 431 910 l 431 786 z m 217 0 l 217 617 l 113 617 l 113 0 z m 554 -82 l 554 617 l 450 617 l 450 -94 b 342 -196 450 -183 381 -196 b 235 -153 301 -196 265 -181 l 214 -237 b 381 -285 281 -276 344 -285 b 554 -82 468 -285 554 -212 z "},"Ĵ":{"ha":656,"x_min":0,"x_max":0,"o":"m 539 207 l 539 964 l 419 964 l 419 211 b 256 54 419 188 419 54 b 78 132 197 54 125 79 l 58 28 b 296 -31 92 11 179 -31 b 539 207 439 -31 539 50 z m 696 1022 l 521 1208 l 438 1208 l 263 1022 l 344 1022 l 479 1157 l 614 1022 z "},"ĵ":{"ha":371,"x_min":0,"x_max":0,"o":"m 256 -82 l 256 617 l 151 617 l 151 -96 b 47 -196 151 -189 72 -196 b -56 -153 8 -196 -25 -182 l -85 -237 b 82 -285 -18 -276 46 -285 b 256 -82 169 -285 256 -212 z m 410 729 l 236 968 l 153 968 l -21 729 l 61 729 l 194 900 l 328 729 z "},"Ķ":{"ha":964,"x_min":0,"x_max":0,"o":"m 904 0 l 513 583 l 885 964 l 756 964 l 251 449 l 251 964 l 133 964 l 133 0 l 251 0 l 251 315 l 436 506 l 776 0 z m 533 -212 l 533 -110 l 431 -110 l 431 -214 l 461 -214 l 431 -369 l 482 -369 z "},"ķ":{"ha":679,"x_min":0,"x_max":0,"o":"m 654 0 l 390 378 l 624 617 l 499 617 l 217 328 l 217 964 l 117 964 l 117 0 l 213 0 l 213 196 l 324 311 l 540 0 z m 390 -212 l 390 -110 l 288 -110 l 288 -214 l 318 -214 l 288 -369 l 339 -369 z "},"Ĺ":{"ha":753,"x_min":0,"x_max":0,"o":"m 693 0 l 693 92 l 322 89 l 254 89 l 254 964 l 131 964 l 131 0 z m 528 1206 l 374 1206 l 131 1036 l 254 1036 z "},"ĺ":{"ha":332,"x_min":0,"x_max":0,"o":"m 217 0 l 217 964 l 113 964 l 113 0 z m 510 1206 l 356 1206 l 113 1036 l 236 1036 z "},"Ļ":{"ha":753,"x_min":0,"x_max":0,"o":"m 693 0 l 693 92 l 322 89 l 254 89 l 254 964 l 131 964 l 131 0 z m 428 -212 l 428 -110 l 325 -110 l 325 -214 l 356 -214 l 325 -369 l 376 -369 z "},"ļ":{"ha":332,"x_min":0,"x_max":0,"o":"m 217 0 l 217 964 l 113 964 l 113 0 z m 217 -212 l 217 -110 l 114 -110 l 114 -214 l 144 -214 l 114 -369 l 165 -369 z "},"Ľ":{"ha":753,"x_min":0,"x_max":0,"o":"m 693 0 l 693 92 l 322 89 l 254 89 l 254 964 l 131 964 l 131 0 z m 435 861 l 435 964 l 332 964 l 332 860 l 363 860 l 332 704 l 383 704 z "},"ľ":{"ha":332,"x_min":0,"x_max":0,"o":"m 217 0 l 217 964 l 113 964 l 113 0 z m 371 861 l 371 964 l 268 964 l 268 860 l 299 860 l 268 704 l 319 704 z "},"Ŀ":{"ha":753,"x_min":0,"x_max":0,"o":"m 693 0 l 693 92 l 322 89 l 254 89 l 254 964 l 131 964 l 131 0 z m 629 450 l 629 574 l 506 574 l 506 450 z "},"ŀ":{"ha":400,"x_min":0,"x_max":0,"o":"m 217 0 l 217 964 l 113 964 l 113 0 z m 425 450 l 425 574 l 301 574 l 301 450 z "},"Ł":{"ha":868,"x_min":0,"x_max":0,"o":"m 815 0 l 815 92 l 444 89 l 376 89 l 376 504 l 610 699 l 557 761 l 376 608 l 376 964 l 253 964 l 253 504 l 113 386 l 164 326 l 253 401 l 253 0 z "},"ł":{"ha":450,"x_min":0,"x_max":0,"o":"m 444 622 l 389 683 l 294 600 l 294 964 l 190 964 l 190 511 l 54 392 l 107 329 l 190 401 l 190 0 l 294 0 l 294 493 z "},"Ń":{"ha":983,"x_min":0,"x_max":0,"o":"m 849 0 l 849 964 l 740 964 l 740 99 l 739 99 l 646 289 l 306 964 l 133 964 l 133 0 l 242 0 l 242 865 l 243 865 l 336 675 l 676 0 z m 757 1206 l 603 1206 l 360 1036 l 483 1036 z "},"ń":{"ha":718,"x_min":0,"x_max":0,"o":"m 604 0 l 604 414 b 414 632 604 506 583 632 b 213 526 289 632 221 538 l 213 625 l 113 625 l 113 0 l 221 0 l 221 340 b 361 547 221 432 256 547 b 496 404 494 547 496 449 l 496 0 z m 554 964 l 446 964 l 261 732 l 346 732 z "},"Ņ":{"ha":983,"x_min":0,"x_max":0,"o":"m 849 0 l 849 964 l 740 964 l 740 99 l 739 99 l 646 289 l 306 964 l 133 964 l 133 0 l 242 0 l 242 865 l 243 865 l 336 675 l 676 0 z m 543 -212 l 543 -110 l 440 -110 l 440 -214 l 471 -214 l 440 -369 l 492 -369 z "},"ņ":{"ha":718,"x_min":0,"x_max":0,"o":"m 604 0 l 604 414 b 414 632 604 506 583 632 b 213 526 289 632 221 538 l 213 625 l 113 625 l 113 0 l 221 0 l 221 340 b 361 547 221 432 256 547 b 496 404 494 547 496 449 l 496 0 z m 410 -212 l 410 -110 l 307 -110 l 307 -214 l 338 -214 l 307 -369 l 358 -369 z "},"Ň":{"ha":983,"x_min":0,"x_max":0,"o":"m 849 0 l 849 964 l 740 964 l 740 99 l 739 99 l 646 289 l 306 964 l 133 964 l 133 0 l 242 0 l 242 865 l 243 865 l 336 675 l 676 0 z m 708 1208 l 626 1208 l 492 1074 l 357 1208 l 275 1208 l 450 1022 l 533 1022 z "},"ň":{"ha":718,"x_min":0,"x_max":0,"o":"m 604 0 l 604 414 b 414 632 604 506 583 632 b 213 526 289 632 221 538 l 213 625 l 113 625 l 113 0 l 221 0 l 221 340 b 361 547 221 432 256 547 b 496 404 494 547 496 449 l 496 0 z m 574 968 l 492 968 l 358 797 l 225 968 l 143 968 l 317 729 l 400 729 z "},"Ŋ":{"ha":983,"x_min":0,"x_max":0,"o":"m 851 482 b 542 994 851 735 761 994 b 254 871 428 994 326 947 l 254 964 l 131 964 l 131 0 l 254 0 l 254 649 b 542 886 285 783 400 886 b 729 482 706 886 729 674 b 542 78 729 290 706 78 l 542 -31 b 851 482 761 -31 851 229 z "},"ŋ":{"ha":718,"x_min":0,"x_max":0,"o":"m 604 0 l 604 414 b 414 632 604 506 583 632 b 213 526 289 632 221 538 l 213 625 l 113 625 l 113 0 l 221 0 l 221 340 b 361 547 221 432 256 547 b 496 404 494 547 496 449 l 496 0 b 394 -201 496 -97 478 -201 l 394 -290 b 604 0 528 -290 604 -147 z "},"Ō":{"ha":1022,"x_min":0,"x_max":0,"o":"m 943 479 b 511 994 943 771 742 994 b 78 479 275 994 78 768 b 510 -31 78 185 283 -31 b 943 479 742 -31 943 188 z m 819 500 b 511 60 819 229 669 60 b 201 500 347 60 201 233 b 510 906 201 754 354 906 b 819 500 671 906 819 749 z m 763 1050 l 763 1139 l 261 1139 l 261 1050 z "},"ō":{"ha":694,"x_min":0,"x_max":0,"o":"m 651 306 b 347 640 651 492 513 640 b 42 306 176 640 42 488 b 346 -15 42 122 183 -15 b 651 306 513 -15 651 125 z m 543 319 b 346 74 543 156 449 74 b 150 319 250 74 150 151 b 346 556 150 488 256 556 b 543 319 443 556 543 483 z m 599 804 l 599 893 l 97 893 l 97 804 z "},"Ŏ":{"ha":1022,"x_min":0,"x_max":0,"o":"m 943 479 b 511 994 943 771 742 994 b 78 479 275 994 78 768 b 510 -31 78 185 283 -31 b 943 479 742 -31 943 188 z m 819 500 b 511 60 819 229 669 60 b 201 500 347 60 201 233 b 510 906 201 754 354 906 b 819 500 671 906 819 749 z m 746 1283 l 661 1283 b 513 1129 658 1181 579 1129 b 363 1283 442 1129 365 1183 l 278 1283 b 511 1036 281 1135 392 1036 b 746 1283 635 1036 743 1138 z "},"ŏ":{"ha":694,"x_min":0,"x_max":0,"o":"m 651 306 b 347 640 651 492 513 640 b 42 306 176 640 42 488 b 346 -15 42 122 183 -15 b 651 306 513 -15 651 125 z m 543 319 b 346 74 543 156 449 74 b 150 319 250 74 150 151 b 346 556 150 488 256 556 b 543 319 443 556 543 483 z m 582 972 l 497 972 b 349 818 494 869 415 818 b 199 972 278 818 201 872 l 114 972 b 347 725 117 824 228 725 b 582 972 471 725 579 826 z "},"Ő":{"ha":1022,"x_min":0,"x_max":0,"o":"m 943 479 b 511 994 943 771 742 994 b 78 479 275 994 78 768 b 510 -31 78 185 283 -31 b 943 479 742 -31 943 188 z m 819 500 b 511 60 819 229 669 60 b 201 500 347 60 201 233 b 510 906 201 754 354 906 b 819 500 671 906 819 749 z m 510 1268 l 401 1268 l 314 1036 l 399 1036 z m 742 1268 l 633 1268 l 546 1036 l 631 1036 z "},"ő":{"ha":694,"x_min":0,"x_max":0,"o":"m 651 306 b 347 640 651 492 513 640 b 42 306 176 640 42 488 b 346 -15 42 122 183 -15 b 651 306 513 -15 651 125 z m 543 319 b 346 74 543 156 449 74 b 150 319 250 74 150 151 b 346 556 150 488 256 556 b 543 319 443 556 543 483 z m 346 964 l 238 964 l 150 732 l 235 732 z m 578 964 l 469 964 l 382 732 l 467 732 z "},"Œ":{"ha":1350,"x_min":0,"x_max":0,"o":"m 1290 0 l 1290 99 l 1117 99 b 1067 97 1100 99 1083 97 l 776 97 l 776 458 l 1233 458 l 1233 543 l 776 543 l 776 875 l 968 875 b 1018 874 985 875 1001 874 l 1271 874 l 1271 964 l 721 964 b 610 979 692 964 672 965 b 497 994 564 989 536 994 b 39 479 257 994 39 774 b 497 -31 39 182 261 -31 b 608 -15 536 -31 563 -25 b 721 0 661 -4 683 0 z m 656 482 b 650 182 656 321 656 228 b 504 54 639 103 621 54 b 158 500 308 54 158 256 b 504 910 158 726 310 910 b 650 778 619 910 639 863 b 656 482 656 732 656 606 z "},"œ":{"ha":1081,"x_min":0,"x_max":0,"o":"m 1040 304 b 810 640 1040 425 1010 640 b 576 503 703 640 618 569 b 335 640 488 635 371 640 b 42 313 176 640 42 496 b 335 -15 42 128 176 -15 b 579 125 389 -15 493 0 b 831 -15 631 44 724 -15 b 1033 57 924 -15 994 25 l 1025 147 b 833 69 961 88 886 69 b 632 304 729 69 639 160 z m 958 381 l 639 381 b 810 556 660 481 731 556 b 958 381 882 556 942 501 z m 524 319 b 335 69 524 149 429 69 b 142 319 236 69 142 153 b 335 556 142 479 238 556 b 524 319 425 556 524 488 z "},"Ŕ":{"ha":897,"x_min":0,"x_max":0,"o":"m 857 0 l 582 453 b 818 706 725 494 818 593 b 468 964 818 843 667 964 l 133 964 l 133 0 l 253 0 l 253 440 l 472 440 l 733 0 z m 706 706 b 453 525 706 607 617 525 l 253 525 l 253 886 l 453 886 b 706 706 614 886 706 804 z m 714 1206 l 560 1206 l 317 1036 l 440 1036 z "},"ŕ":{"ha":475,"x_min":0,"x_max":0,"o":"m 454 539 l 454 632 b 211 499 331 631 254 563 l 211 625 l 114 625 l 114 0 l 218 0 l 218 297 b 454 539 218 436 318 536 z m 407 964 l 299 964 l 114 732 l 199 732 z "},"Ŗ":{"ha":897,"x_min":0,"x_max":0,"o":"m 857 0 l 582 453 b 818 706 725 494 818 593 b 468 964 818 843 667 964 l 133 964 l 133 0 l 253 0 l 253 440 l 472 440 l 733 0 z m 706 706 b 453 525 706 607 617 525 l 253 525 l 253 886 l 453 886 b 706 706 614 886 706 804 z m 500 -212 l 500 -110 l 397 -110 l 397 -214 l 428 -214 l 397 -369 l 449 -369 z "},"ŗ":{"ha":475,"x_min":0,"x_max":0,"o":"m 454 539 l 454 632 b 211 499 331 631 254 563 l 211 625 l 114 625 l 114 0 l 218 0 l 218 297 b 454 539 218 436 318 536 z m 218 -212 l 218 -110 l 115 -110 l 115 -214 l 146 -214 l 115 -369 l 167 -369 z "},"Ř":{"ha":897,"x_min":0,"x_max":0,"o":"m 857 0 l 582 453 b 818 706 725 494 818 593 b 468 964 818 843 667 964 l 133 964 l 133 0 l 253 0 l 253 440 l 472 440 l 733 0 z m 706 706 b 453 525 706 607 617 525 l 253 525 l 253 886 l 453 886 b 706 706 614 886 706 804 z m 665 1208 l 583 1208 l 449 1074 l 314 1208 l 232 1208 l 407 1022 l 490 1022 z "},"ř":{"ha":475,"x_min":0,"x_max":0,"o":"m 454 539 l 454 632 b 211 499 331 631 254 563 l 211 625 l 114 625 l 114 0 l 218 0 l 218 297 b 454 539 218 436 318 536 z m 453 968 l 371 968 l 238 797 l 104 968 l 22 968 l 196 729 l 279 729 z "},"Ś":{"ha":772,"x_min":0,"x_max":0,"o":"m 693 263 b 619 453 693 353 650 419 b 381 567 554 522 508 535 b 236 628 300 586 278 592 b 188 738 226 636 188 676 b 390 903 188 819 263 903 b 625 814 507 903 574 857 l 646 925 b 392 994 569 971 493 994 b 78 721 199 994 78 858 b 153 544 78 661 97 603 b 354 446 211 482 272 465 b 525 378 472 417 486 413 b 583 249 553 354 583 308 b 381 65 583 157 507 65 b 82 178 324 65 199 79 l 61 65 b 382 -31 183 -11 294 -31 b 693 263 565 -31 693 110 z m 651 1206 l 497 1206 l 254 1036 l 378 1036 z "},"ś":{"ha":532,"x_min":0,"x_max":0,"o":"m 500 178 b 446 306 500 254 449 301 b 285 375 392 354 354 363 b 144 472 208 390 144 404 b 263 558 144 558 244 558 b 460 506 307 558 381 553 l 476 596 b 276 640 404 629 347 640 b 46 458 242 640 46 640 b 121 319 46 390 86 346 b 271 268 164 289 194 283 b 401 168 321 258 401 242 b 271 72 401 72 292 72 b 56 140 158 72 81 124 l 39 46 b 272 -15 83 24 160 -15 b 433 29 297 -15 374 -15 b 500 178 476 63 500 118 z m 463 964 l 354 964 l 169 732 l 254 732 z "},"Ŝ":{"ha":772,"x_min":0,"x_max":0,"o":"m 693 263 b 619 453 693 353 650 419 b 381 567 554 522 508 535 b 236 628 300 586 278 592 b 188 738 226 636 188 676 b 390 903 188 819 263 903 b 625 814 507 903 574 857 l 646 925 b 392 994 569 971 493 994 b 78 721 199 994 78 858 b 153 544 78 661 97 603 b 354 446 211 482 272 465 b 525 378 472 417 486 413 b 583 249 553 354 583 308 b 381 65 583 157 507 65 b 82 178 324 65 199 79 l 61 65 b 382 -31 183 -11 294 -31 b 693 263 565 -31 693 110 z m 603 1022 l 428 1208 l 344 1208 l 169 1022 l 251 1022 l 386 1157 l 521 1022 z "},"ŝ":{"ha":532,"x_min":0,"x_max":0,"o":"m 500 178 b 446 306 500 254 449 301 b 285 375 392 354 354 363 b 144 472 208 390 144 404 b 263 558 144 558 244 558 b 460 506 307 558 381 553 l 476 596 b 276 640 404 629 347 640 b 46 458 242 640 46 640 b 121 319 46 390 86 346 b 271 268 164 289 194 283 b 401 168 321 258 401 242 b 271 72 401 72 292 72 b 56 140 158 72 81 124 l 39 46 b 272 -15 83 24 160 -15 b 433 29 297 -15 374 -15 b 500 178 476 63 500 118 z m 482 729 l 308 968 l 225 968 l 51 729 l 133 729 l 267 900 l 400 729 z "},"Ş":{"ha":772,"x_min":0,"x_max":0,"o":"m 693 263 b 619 453 693 353 650 419 b 381 567 554 522 508 535 b 236 628 300 586 278 592 b 188 738 226 636 188 676 b 390 903 188 819 263 903 b 625 814 507 903 574 857 l 646 925 b 392 994 569 971 493 994 b 78 721 199 994 78 858 b 153 544 78 661 97 603 b 354 446 211 482 272 465 b 525 378 472 417 486 413 b 583 249 553 354 583 308 b 381 65 583 157 507 65 b 82 178 324 65 199 79 l 61 65 b 382 -31 183 -11 294 -31 b 693 263 565 -31 693 110 z m 450 -64 l 365 -64 l 263 -297 l 358 -297 z "},"ş":{"ha":532,"x_min":0,"x_max":0,"o":"m 500 178 b 446 306 500 254 449 301 b 285 375 392 354 354 363 b 144 472 208 390 144 404 b 263 558 144 558 244 558 b 460 506 307 558 381 553 l 476 596 b 276 640 404 629 347 640 b 46 458 242 640 46 640 b 121 319 46 390 86 346 b 271 268 164 289 194 283 b 401 168 321 258 401 242 b 271 72 401 72 292 72 b 56 140 158 72 81 124 l 39 46 b 272 -15 83 24 160 -15 b 433 29 297 -15 374 -15 b 500 178 476 63 500 118 z m 331 -64 l 246 -64 l 143 -297 l 239 -297 z "},"Š":{"ha":772,"x_min":0,"x_max":0,"o":"m 693 263 b 619 453 693 353 650 419 b 381 567 554 522 508 535 b 236 628 300 586 278 592 b 188 738 226 636 188 676 b 390 903 188 819 263 903 b 625 814 507 903 574 857 l 646 925 b 392 994 569 971 493 994 b 78 721 199 994 78 858 b 153 544 78 661 97 603 b 354 446 211 482 272 465 b 525 378 472 417 486 413 b 583 249 553 354 583 308 b 381 65 583 157 507 65 b 82 178 324 65 199 79 l 61 65 b 382 -31 183 -11 294 -31 b 693 263 565 -31 693 110 z m 603 1208 l 521 1208 l 386 1074 l 251 1208 l 169 1208 l 344 1022 l 428 1022 z "},"š":{"ha":532,"x_min":0,"x_max":0,"o":"m 500 178 b 446 306 500 254 449 301 b 285 375 392 354 354 363 b 144 472 208 390 144 404 b 263 558 144 558 244 558 b 460 506 307 558 381 553 l 476 596 b 276 640 404 629 347 640 b 46 458 242 640 46 640 b 121 319 46 390 86 346 b 271 268 164 289 194 283 b 401 168 321 258 401 242 b 271 72 401 72 292 72 b 56 140 158 72 81 124 l 39 46 b 272 -15 83 24 160 -15 b 433 29 297 -15 374 -15 b 500 178 476 63 500 118 z m 482 968 l 400 968 l 267 797 l 133 968 l 51 968 l 225 729 l 308 729 z "},"Ţ":{"ha":946,"x_min":0,"x_max":0,"o":"m 894 865 l 894 956 l 50 956 l 50 865 l 236 865 b 286 867 253 865 269 867 l 411 867 l 411 0 l 535 0 l 535 867 l 658 867 b 708 865 675 867 692 865 z m 515 -33 l 431 -33 l 328 -267 l 424 -267 z "},"ţ":{"ha":501,"x_min":0,"x_max":0,"o":"m 461 38 l 439 119 b 314 74 403 90 358 74 b 243 189 263 74 243 115 l 243 536 l 439 536 l 439 617 l 243 617 l 243 793 l 147 793 l 147 617 l 26 617 l 26 536 l 143 536 l 143 165 b 258 -15 143 82 163 -15 b 461 38 356 -15 426 19 z m 338 -33 l 253 -33 l 150 -267 l 246 -267 z "},"Ť":{"ha":946,"x_min":0,"x_max":0,"o":"m 894 865 l 894 956 l 50 956 l 50 865 l 236 865 b 286 867 253 865 269 867 l 411 867 l 411 0 l 535 0 l 535 867 l 658 867 b 708 865 675 867 692 865 z m 689 1208 l 607 1208 l 472 1074 l 338 1208 l 256 1208 l 431 1022 l 514 1022 z "},"ť":{"ha":501,"x_min":0,"x_max":0,"o":"m 461 38 l 439 119 b 314 74 403 90 358 74 b 243 189 263 74 243 115 l 243 536 l 439 536 l 439 617 l 243 617 l 243 793 l 147 793 l 147 617 l 26 617 l 26 536 l 143 536 l 143 165 b 258 -15 143 82 163 -15 b 461 38 356 -15 426 19 z m 397 825 l 397 928 l 294 928 l 294 824 l 325 824 l 294 668 l 346 668 z "},"Ũ":{"ha":956,"x_min":0,"x_max":0,"o":"m 824 324 l 824 964 l 715 964 l 715 322 b 482 47 715 139 599 47 b 254 322 368 47 254 135 l 254 964 l 131 964 l 131 324 b 481 -31 131 121 293 -31 b 824 324 667 -31 824 122 z m 710 1188 l 625 1188 b 571 1107 624 1140 607 1107 b 472 1153 539 1107 510 1126 b 383 1188 446 1171 418 1188 b 247 1022 318 1188 250 1131 l 332 1022 b 386 1103 333 1069 350 1103 b 485 1057 418 1103 447 1083 b 574 1022 511 1039 539 1022 b 710 1188 639 1022 707 1079 z "},"ũ":{"ha":718,"x_min":0,"x_max":0,"o":"m 604 0 l 604 617 l 496 617 l 496 214 b 329 61 496 110 418 61 b 221 157 231 61 221 97 l 221 617 l 113 617 l 113 151 b 260 -15 113 51 144 -15 b 500 67 333 -15 432 7 l 500 0 z m 590 931 l 506 931 b 451 850 504 883 488 850 b 353 896 419 850 390 869 b 264 931 326 914 299 931 b 128 765 199 931 131 874 l 213 765 b 267 846 214 813 231 846 b 365 800 299 846 328 826 b 454 765 392 782 419 765 b 590 931 519 765 588 822 z "},"Ū":{"ha":956,"x_min":0,"x_max":0,"o":"m 824 324 l 824 964 l 715 964 l 715 322 b 482 47 715 139 599 47 b 254 322 368 47 254 135 l 254 964 l 131 964 l 131 324 b 481 -31 131 121 293 -31 b 824 324 667 -31 824 122 z m 729 1050 l 729 1139 l 228 1139 l 228 1050 z "},"ū":{"ha":718,"x_min":0,"x_max":0,"o":"m 604 0 l 604 617 l 496 617 l 496 214 b 329 61 496 110 418 61 b 221 157 231 61 221 97 l 221 617 l 113 617 l 113 151 b 260 -15 113 51 144 -15 b 500 67 333 -15 432 7 l 500 0 z m 610 804 l 610 893 l 108 893 l 108 804 z "},"Ŭ":{"ha":956,"x_min":0,"x_max":0,"o":"m 824 324 l 824 964 l 715 964 l 715 322 b 482 47 715 139 599 47 b 254 322 368 47 254 135 l 254 964 l 131 964 l 131 324 b 481 -31 131 121 293 -31 b 824 324 667 -31 824 122 z m 713 1283 l 628 1283 b 479 1129 625 1181 546 1129 b 329 1283 408 1129 332 1183 l 244 1283 b 478 1036 247 1135 358 1036 b 713 1283 601 1036 710 1138 z "},"ŭ":{"ha":718,"x_min":0,"x_max":0,"o":"m 604 0 l 604 617 l 496 617 l 496 214 b 329 61 496 110 418 61 b 221 157 231 61 221 97 l 221 617 l 113 617 l 113 151 b 260 -15 113 51 144 -15 b 500 67 333 -15 432 7 l 500 0 z m 593 972 l 508 972 b 360 818 506 869 426 818 b 210 972 289 818 213 872 l 125 972 b 358 725 128 824 239 725 b 593 972 482 725 590 826 z "},"Ů":{"ha":956,"x_min":0,"x_max":0,"o":"m 824 324 l 824 964 l 715 964 l 715 322 b 482 47 715 139 599 47 b 254 322 368 47 254 135 l 254 964 l 131 964 l 131 324 b 481 -31 131 121 293 -31 b 824 324 667 -31 824 122 z m 546 1081 b 476 1029 546 1029 489 1029 b 407 1081 465 1029 407 1029 b 476 1132 407 1132 464 1132 b 546 1081 488 1132 546 1132 z m 631 1079 b 476 1197 631 1146 563 1197 b 322 1082 386 1197 322 1142 b 476 964 322 1015 390 964 b 631 1079 567 964 631 1019 z "},"ů":{"ha":718,"x_min":0,"x_max":0,"o":"m 604 0 l 604 617 l 496 617 l 496 214 b 329 61 496 110 418 61 b 221 157 231 61 221 97 l 221 617 l 113 617 l 113 151 b 260 -15 113 51 144 -15 b 500 67 333 -15 432 7 l 500 0 z m 428 835 b 358 783 428 783 371 783 b 289 835 347 783 289 783 b 358 886 289 886 346 886 b 428 835 369 886 428 886 z m 513 833 b 358 951 513 900 444 951 b 204 836 268 951 204 896 b 358 718 204 769 272 718 b 513 833 449 718 513 774 z "},"Ű":{"ha":956,"x_min":0,"x_max":0,"o":"m 824 324 l 824 964 l 715 964 l 715 322 b 482 47 715 139 599 47 b 254 322 368 47 254 135 l 254 964 l 131 964 l 131 324 b 481 -31 131 121 293 -31 b 824 324 667 -31 824 122 z m 476 1268 l 368 1268 l 281 1036 l 365 1036 z m 708 1268 l 600 1268 l 513 1036 l 597 1036 z "},"ű":{"ha":718,"x_min":0,"x_max":0,"o":"m 604 0 l 604 617 l 496 617 l 496 214 b 329 61 496 110 418 61 b 221 157 231 61 221 97 l 221 617 l 113 617 l 113 151 b 260 -15 113 51 144 -15 b 500 67 333 -15 432 7 l 500 0 z m 357 964 l 249 964 l 161 732 l 246 732 z m 589 964 l 481 964 l 393 732 l 478 732 z "},"Ų":{"ha":956,"x_min":0,"x_max":0,"o":"m 824 324 l 824 964 l 715 964 l 715 322 b 482 47 715 139 599 47 b 254 322 368 47 254 135 l 254 964 l 131 964 l 131 324 b 447 -29 131 133 274 -12 b 368 -176 399 -68 365 -121 b 506 -294 369 -236 413 -294 b 642 -260 551 -294 586 -286 l 622 -178 b 529 -197 592 -190 560 -199 b 456 -144 490 -194 457 -186 b 536 -26 456 -97 490 -58 b 824 324 697 1 824 143 z "},"ų":{"ha":718,"x_min":0,"x_max":0,"o":"m 668 -260 l 649 -178 b 556 -197 618 -190 586 -199 b 482 -144 517 -194 483 -186 b 604 0 481 -83 540 -36 l 604 617 l 496 617 l 496 214 b 329 61 496 110 418 61 b 221 157 231 61 221 97 l 221 617 l 113 617 l 113 151 b 260 -15 113 51 144 -15 b 500 67 333 -15 432 7 l 500 0 l 515 0 b 394 -176 446 -39 390 -106 b 532 -294 396 -236 439 -294 b 668 -260 578 -294 613 -286 z "},"Ŵ":{"ha":1311,"x_min":0,"x_max":0,"o":"m 1290 964 l 1190 964 l 1064 528 b 954 100 1028 404 961 171 l 953 100 b 853 490 953 100 944 174 l 717 964 l 604 964 l 479 531 b 372 103 449 424 379 181 l 371 103 b 317 340 365 158 328 294 l 251 572 l 139 964 l 19 964 l 301 0 l 414 0 l 553 482 b 650 863 582 583 642 790 l 651 863 b 728 557 657 821 690 689 l 888 0 l 1008 0 z m 872 1022 l 697 1208 l 614 1208 l 439 1022 l 521 1022 l 656 1157 l 790 1022 z "},"ŵ":{"ha":949,"x_min":0,"x_max":0,"o":"m 928 617 l 826 617 l 738 322 b 674 75 722 272 681 135 l 672 75 b 608 321 667 118 632 242 l 518 617 l 421 617 l 342 356 b 274 76 326 307 279 147 l 272 76 b 197 376 265 143 219 300 l 125 617 l 19 617 l 210 0 l 319 0 l 406 286 b 468 539 425 350 464 488 l 469 539 b 514 344 472 500 496 404 l 615 0 l 738 0 z m 690 729 l 517 968 l 433 968 l 260 729 l 342 729 l 475 900 l 608 729 z "},"Ŷ":{"ha":926,"x_min":0,"x_max":0,"o":"m 921 964 l 799 964 l 583 650 b 560 614 576 640 569 629 l 475 482 b 425 561 449 525 449 528 l 150 964 l 4 964 l 403 386 l 403 0 l 522 0 l 522 385 z m 679 1022 l 504 1208 l 421 1208 l 246 1022 l 328 1022 l 463 1157 l 597 1022 z "},"ŷ":{"ha":640,"x_min":0,"x_max":0,"o":"m 619 617 l 515 617 b 331 79 335 175 332 111 l 329 79 b 204 443 321 172 210 431 l 129 617 l 19 617 l 289 0 l 239 -125 b 160 -206 203 -206 179 -206 b 51 -183 138 -206 93 -200 l 60 -274 b 160 -285 90 -281 129 -285 b 317 -126 208 -285 260 -268 z m 536 729 l 363 968 l 279 968 l 106 729 l 188 729 l 321 900 l 454 729 z "},"Ÿ":{"ha":926,"x_min":0,"x_max":0,"o":"m 921 964 l 799 964 l 583 650 b 560 614 576 640 569 629 l 475 482 b 425 561 449 525 449 528 l 150 964 l 4 964 l 403 386 l 403 0 l 522 0 l 522 385 z m 397 1022 l 397 1133 l 286 1133 l 286 1022 z m 639 1022 l 639 1133 l 528 1133 l 528 1022 z "},"Ź":{"ha":849,"x_min":0,"x_max":0,"o":"m 778 0 l 778 92 l 644 92 l 279 89 l 235 89 l 769 907 l 769 964 l 96 964 l 96 878 l 374 878 b 424 879 390 878 407 879 l 613 879 l 78 60 l 78 0 z m 690 1206 l 536 1206 l 293 1036 l 417 1036 z "},"ź":{"ha":604,"x_min":0,"x_max":0,"o":"m 558 0 l 558 86 l 354 86 b 304 85 338 86 321 85 l 186 85 l 556 563 l 556 617 l 58 617 l 58 535 l 251 535 b 301 536 268 535 285 536 l 410 536 l 39 57 l 39 0 z m 497 964 l 389 964 l 204 732 l 289 732 z "},"Ż":{"ha":849,"x_min":0,"x_max":0,"o":"m 778 0 l 778 92 l 644 92 l 279 89 l 235 89 l 769 907 l 769 964 l 96 964 l 96 878 l 374 878 b 424 879 390 878 407 879 l 613 879 l 78 60 l 78 0 z m 486 1022 l 486 1146 l 363 1146 l 363 1022 z "},"ż":{"ha":604,"x_min":0,"x_max":0,"o":"m 558 0 l 558 86 l 354 86 b 304 85 338 86 321 85 l 186 85 l 556 563 l 556 617 l 58 617 l 58 535 l 251 535 b 301 536 268 535 285 536 l 410 536 l 39 57 l 39 0 z m 363 786 l 363 910 l 239 910 l 239 786 z "},"Ž":{"ha":849,"x_min":0,"x_max":0,"o":"m 778 0 l 778 92 l 644 92 l 279 89 l 235 89 l 769 907 l 769 964 l 96 964 l 96 878 l 374 878 b 424 879 390 878 407 879 l 613 879 l 78 60 l 78 0 z m 642 1208 l 560 1208 l 425 1074 l 290 1208 l 208 1208 l 383 1022 l 467 1022 z "},"ž":{"ha":604,"x_min":0,"x_max":0,"o":"m 558 0 l 558 86 l 354 86 b 304 85 338 86 321 85 l 186 85 l 556 563 l 556 617 l 58 617 l 58 535 l 251 535 b 301 536 268 535 285 536 l 410 536 l 39 57 l 39 0 z m 517 968 l 435 968 l 301 797 l 168 968 l 86 968 l 260 729 l 343 729 z "},"ſ":{"ha":397,"x_min":0,"x_max":0,"o":"m 454 871 l 454 964 b 343 979 438 968 394 979 b 113 742 213 979 113 881 l 113 0 l 217 0 l 217 782 b 342 894 217 885 306 894 b 454 871 369 894 407 892 z "},"Ǝ":{"ha":829,"x_min":0,"x_max":0,"o":"m 769 0 l 769 960 l 150 960 l 150 869 l 404 869 b 454 871 421 869 438 871 l 646 871 l 646 542 l 188 542 l 188 457 l 646 457 l 646 97 l 356 97 b 306 99 339 97 322 99 l 131 99 l 131 0 z "},"ƒ":{"ha":425,"x_min":0,"x_max":0,"o":"m 482 871 l 482 964 b 371 979 465 968 422 979 b 140 742 240 979 140 881 l 140 617 l 38 617 l 38 536 l 140 536 l 140 0 l 244 0 l 244 536 l 397 536 l 397 617 l 240 617 l 240 782 b 369 894 240 885 333 894 b 482 871 397 894 435 892 z "},"Ơ":{"ha":1022,"x_min":0,"x_max":0,"o":"m 943 478 b 815 843 943 611 901 742 b 764 896 800 863 782 881 l 851 964 l 853 965 l 853 1079 l 851 1081 l 739 1081 l 736 1079 l 736 965 l 739 964 l 769 964 l 726 925 b 510 994 663 969 588 994 b 204 843 390 994 281 935 b 76 478 118 742 76 611 b 204 118 76 347 118 218 b 510 -31 281 28 390 -31 b 815 118 629 -31 739 28 b 943 478 900 218 943 347 z m 819 501 b 731 188 819 390 794 279 b 510 60 679 114 600 60 b 289 188 419 60 340 114 b 200 501 225 279 200 390 b 289 789 200 604 226 707 b 510 907 342 860 422 907 b 731 789 597 907 678 860 b 819 501 793 707 819 604 z "},"ơ":{"ha":694,"x_min":0,"x_max":0,"o":"m 653 618 l 653 732 l 651 733 l 539 733 l 538 732 l 538 618 l 539 617 l 569 617 l 524 576 b 346 640 474 617 411 640 b 131 542 264 640 186 603 b 42 304 72 478 42 392 b 131 78 42 221 74 139 b 346 -15 188 19 264 -15 b 561 78 428 -15 504 19 b 650 304 618 139 650 221 b 561 542 650 392 619 478 l 558 544 z m 542 321 b 488 143 542 257 528 193 b 346 74 454 99 401 74 b 204 143 290 74 238 99 b 150 321 164 193 150 257 b 204 489 150 382 165 443 b 346 556 239 532 290 556 b 488 489 400 556 453 532 b 542 321 526 443 542 382 z "},"Ư":{"ha":954,"x_min":0,"x_max":0,"o":"m 958 964 l 958 965 l 958 1079 l 957 1081 l 844 1081 l 843 1079 l 843 965 l 844 964 l 875 964 l 821 919 l 821 964 l 714 964 l 714 321 b 649 124 714 250 694 179 b 479 46 607 75 544 46 b 315 124 417 46 356 75 b 254 321 271 179 254 250 l 254 964 l 131 964 l 131 321 b 233 72 131 228 167 139 b 479 -31 299 7 388 -31 b 721 72 571 -31 658 7 b 821 321 786 139 821 229 l 821 864 z "},"ư":{"ha":756,"x_min":0,"x_max":0,"o":"m 742 618 l 742 732 l 740 733 l 626 733 l 625 732 l 625 618 l 626 617 l 658 617 l 604 572 l 604 617 l 496 617 l 496 203 b 338 61 496 124 424 61 b 243 81 292 61 265 64 b 219 153 224 96 219 119 l 219 617 l 111 617 l 111 153 b 146 25 111 99 119 57 b 256 -15 171 -4 211 -15 b 500 67 353 -15 443 14 l 500 0 l 604 0 l 604 517 z "},"ǝ":{"ha":617,"x_min":0,"x_max":0,"o":"m 575 311 b 275 640 575 494 442 640 b 54 568 188 640 108 607 l 63 478 b 274 556 150 550 242 556 b 478 321 385 556 474 457 l 49 321 b 104 86 49 274 50 169 b 296 -15 161 0 246 -15 b 575 311 450 -15 575 132 z m 471 244 b 296 69 449 139 375 69 b 128 244 224 69 146 117 z "},"Ǧ":{"ha":926,"x_min":0,"x_max":0,"o":"m 832 38 l 832 415 l 540 415 l 540 331 l 724 331 l 724 86 b 544 58 646 63 579 58 b 217 482 356 58 217 251 b 544 906 217 713 356 906 b 800 814 633 906 714 885 l 821 926 b 546 994 746 961 676 994 b 93 482 285 994 93 758 b 543 -31 93 199 292 -31 b 832 38 679 -31 789 17 z m 679 1208 l 597 1208 l 463 1074 l 328 1208 l 246 1208 l 421 1022 l 504 1022 z "},"ǧ":{"ha":694,"x_min":0,"x_max":0,"o":"m 674 544 l 658 632 b 439 588 561 632 481 606 b 307 632 410 611 363 632 b 86 406 188 632 86 532 b 132 268 86 354 104 304 b 92 150 92 211 92 157 b 128 44 92 114 104 74 b 39 -99 56 1 39 -62 b 346 -286 39 -203 176 -286 b 654 -97 517 -286 654 -204 b 368 96 654 96 422 96 l 246 96 b 165 169 228 96 165 96 b 181 219 165 185 171 207 b 307 179 210 199 256 179 b 529 406 432 179 529 282 b 483 544 529 472 499 524 l 489 543 b 592 549 519 543 558 549 b 674 544 617 549 674 544 z m 432 406 b 307 258 432 297 367 258 b 183 406 256 258 183 290 b 307 553 183 521 256 553 b 432 406 367 553 432 514 z m 557 -100 b 347 -207 557 -161 461 -207 b 136 -99 235 -207 136 -164 b 244 -4 136 -94 136 -4 l 369 -4 b 557 -100 400 -4 557 -4 z m 514 968 l 432 968 l 299 797 l 165 968 l 83 968 l 257 729 l 340 729 z "},"Ǫ":{"ha":1022,"x_min":0,"x_max":0,"o":"m 943 479 b 511 994 943 771 742 994 b 78 479 275 994 78 768 b 482 -29 78 197 267 -12 b 406 -176 435 -68 401 -121 b 543 -294 407 -236 450 -294 b 679 -260 589 -294 624 -286 l 660 -178 b 567 -197 629 -190 597 -199 b 493 -144 528 -194 494 -186 b 575 -25 492 -96 528 -57 b 943 479 778 11 943 215 z m 819 500 b 511 60 819 229 669 60 b 201 500 347 60 201 233 b 510 906 201 754 354 906 b 819 500 671 906 819 749 z "},"ǫ":{"ha":694,"x_min":0,"x_max":0,"o":"m 651 306 b 347 640 651 492 513 640 b 42 306 176 640 42 488 b 322 -14 42 131 169 -1 b 225 -176 264 -54 221 -114 b 363 -294 226 -236 269 -294 b 499 -260 408 -294 443 -286 l 479 -178 b 386 -197 449 -190 417 -199 b 313 -144 347 -194 314 -186 b 428 -4 311 -85 367 -39 b 651 306 556 33 651 156 z m 543 319 b 346 74 543 156 449 74 b 150 319 250 74 150 151 b 346 556 150 488 256 556 b 543 319 443 556 543 483 z "},"Ǵ":{"ha":926,"x_min":0,"x_max":0,"o":"m 832 38 l 832 415 l 540 415 l 540 331 l 724 331 l 724 86 b 544 58 646 63 579 58 b 217 482 356 58 217 251 b 544 906 217 713 356 906 b 800 814 633 906 714 885 l 821 926 b 546 994 746 961 676 994 b 93 482 285 994 93 758 b 543 -31 93 199 292 -31 b 832 38 679 -31 789 17 z m 728 1206 l 574 1206 l 331 1036 l 454 1036 z "},"ǵ":{"ha":694,"x_min":0,"x_max":0,"o":"m 674 544 l 658 632 b 439 588 561 632 481 606 b 307 632 410 611 363 632 b 86 406 188 632 86 532 b 132 268 86 354 104 304 b 92 150 92 211 92 157 b 128 44 92 114 104 74 b 39 -99 56 1 39 -62 b 346 -286 39 -203 176 -286 b 654 -97 517 -286 654 -204 b 368 96 654 96 422 96 l 246 96 b 165 169 228 96 165 96 b 181 219 165 185 171 207 b 307 179 210 199 256 179 b 529 406 432 179 529 282 b 483 544 529 472 499 524 l 489 543 b 592 549 519 543 558 549 b 674 544 617 549 674 544 z m 432 406 b 307 258 432 297 367 258 b 183 406 256 258 183 290 b 307 553 183 521 256 553 b 432 406 367 553 432 514 z m 557 -100 b 347 -207 557 -161 461 -207 b 136 -99 235 -207 136 -164 b 244 -4 136 -94 136 -4 l 369 -4 b 557 -100 400 -4 557 -4 z m 494 964 l 386 964 l 201 732 l 286 732 z "},"Ǻ":{"ha":926,"x_min":0,"x_max":0,"o":"m 886 0 l 524 964 l 401 964 l 39 0 l 142 0 l 249 283 l 653 283 l 758 0 z m 622 361 l 278 361 b 368 613 349 560 297 414 b 450 864 397 694 440 813 l 451 864 b 496 718 454 844 464 810 z m 532 1081 b 463 1029 532 1029 475 1029 b 393 1081 451 1029 393 1029 b 463 1132 393 1132 450 1132 b 532 1081 474 1132 532 1132 z m 617 1079 b 463 1197 617 1146 549 1197 b 308 1082 372 1197 308 1142 b 463 964 308 1015 376 964 b 617 1079 553 964 617 1019 z m 661 1415 l 507 1415 l 264 1246 l 388 1246 z "},"ǻ":{"ha":668,"x_min":0,"x_max":0,"o":"m 554 0 l 554 401 b 325 640 554 543 453 640 b 107 581 235 640 172 618 l 115 489 b 325 558 188 540 257 558 b 446 400 390 558 446 503 l 446 340 b 61 157 238 338 61 279 b 219 -15 61 97 99 -15 b 450 50 239 -15 369 -12 l 450 0 z m 446 183 b 399 96 446 157 446 122 b 290 69 358 71 306 69 b 161 160 224 69 161 101 b 446 269 161 257 386 267 z m 403 835 b 333 783 403 783 346 783 b 264 835 322 783 264 783 b 333 886 264 886 321 886 b 403 835 344 886 403 886 z m 488 833 b 333 951 488 900 419 951 b 179 836 243 951 179 896 b 333 718 179 769 247 718 b 488 833 424 718 488 774 z m 532 1169 l 378 1169 l 135 1000 l 258 1000 z "},"Ǽ":{"ha":1196,"x_min":0,"x_max":0,"o":"m 1136 0 l 1136 99 l 990 99 b 940 97 974 99 957 97 l 704 97 l 704 458 l 1079 458 l 1079 543 l 704 543 l 704 875 l 854 875 b 904 874 871 875 888 874 l 1117 874 l 1117 964 l 433 964 l 39 0 l 143 0 l 269 308 l 582 308 l 582 0 z m 582 386 l 301 386 l 501 875 l 582 875 z m 864 1206 l 710 1206 l 467 1036 l 590 1036 z "},"ǽ":{"ha":1003,"x_min":0,"x_max":0,"o":"m 963 304 b 732 640 963 353 963 640 b 521 533 657 640 578 603 b 325 640 479 600 404 640 b 107 581 236 640 172 618 l 115 489 b 326 558 182 536 247 558 b 447 400 389 558 447 506 l 447 343 b 65 158 368 339 65 325 b 224 -15 65 113 90 -15 b 528 92 263 -15 463 -11 b 754 -15 617 -11 719 -15 b 956 57 821 -15 894 7 l 947 147 b 756 69 874 79 794 69 b 556 304 657 69 563 156 z m 881 381 l 563 381 b 733 556 586 488 658 556 b 881 381 776 556 860 533 z m 454 176 b 293 69 454 69 314 69 b 165 160 218 69 165 108 b 449 265 165 254 392 265 b 454 176 450 256 454 193 z m 697 964 l 589 964 l 404 732 l 489 732 z "},"Ǿ":{"ha":1081,"x_min":0,"x_max":0,"o":"m 1001 479 b 824 885 1001 676 903 819 l 896 1010 l 819 1054 l 753 938 b 540 994 654 989 582 994 b 78 479 286 994 78 764 b 254 79 78 411 88 226 l 183 -46 l 260 -90 l 326 26 b 539 -31 406 -17 479 -31 b 1001 479 789 -31 1001 190 z m 707 860 l 303 163 b 196 479 207 272 196 406 b 539 910 196 754 364 910 b 707 860 592 910 647 896 z m 883 479 b 540 54 883 203 713 54 b 372 103 499 54 439 63 l 775 800 b 883 479 857 708 883 583 z m 806 1206 l 651 1206 l 408 1036 l 532 1036 z "},"ǿ":{"ha":694,"x_min":0,"x_max":0,"o":"m 649 306 b 539 564 649 411 604 504 l 633 732 l 560 774 l 469 613 b 347 640 436 628 389 640 b 44 306 179 640 44 489 b 156 57 44 164 121 90 l 60 -114 l 133 -156 l 226 11 b 346 -15 269 -8 311 -15 b 649 306 510 -15 649 124 z m 426 538 l 200 138 b 149 306 150 201 149 276 b 347 556 149 469 243 556 b 426 538 375 556 401 550 z m 544 306 b 346 69 544 146 447 69 b 269 85 319 69 293 74 l 493 482 b 544 306 515 453 544 394 z m 543 964 l 435 964 l 250 732 l 335 732 z "},"Ȁ":{"ha":926,"x_min":0,"x_max":0,"o":"m 886 0 l 524 964 l 401 964 l 39 0 l 142 0 l 249 283 l 653 283 l 758 0 z m 622 361 l 278 361 b 368 613 349 560 297 414 b 450 864 397 694 440 813 l 451 864 b 496 718 454 844 464 810 z m 622 1036 l 535 1268 l 426 1268 l 538 1036 z m 390 1036 l 303 1268 l 194 1268 l 306 1036 z "},"ȁ":{"ha":668,"x_min":0,"x_max":0,"o":"m 554 0 l 554 401 b 325 640 554 543 453 640 b 107 581 235 640 172 618 l 115 489 b 325 558 188 540 257 558 b 446 400 390 558 446 503 l 446 340 b 61 157 238 338 61 279 b 219 -15 61 97 99 -15 b 450 50 239 -15 369 -12 l 450 0 z m 446 183 b 399 96 446 157 446 122 b 290 69 358 71 306 69 b 161 160 224 69 161 101 b 446 269 161 257 386 267 z m 531 732 l 443 964 l 335 964 l 446 732 z m 299 732 l 211 964 l 103 964 l 214 732 z "},"Ȅ":{"ha":829,"x_min":0,"x_max":0,"o":"m 769 0 l 769 99 l 594 99 b 544 97 578 99 561 97 l 254 97 l 254 457 l 713 457 l 713 542 l 254 542 l 254 871 l 446 871 b 496 869 463 871 479 869 l 750 869 l 750 960 l 131 960 l 131 0 z m 613 1036 l 525 1268 l 417 1268 l 528 1036 z m 381 1036 l 293 1268 l 185 1268 l 296 1036 z "},"ȅ":{"ha":617,"x_min":0,"x_max":0,"o":"m 575 304 b 519 539 575 351 574 456 b 328 640 463 625 378 640 b 49 314 174 640 49 493 b 349 -15 49 131 182 -15 b 569 57 436 -15 515 18 l 561 147 b 350 69 474 75 382 69 b 146 304 239 69 150 168 z m 496 381 l 153 381 b 328 556 175 486 249 556 b 496 381 400 556 478 508 z m 506 732 l 418 964 l 310 964 l 421 732 z m 274 732 l 186 964 l 78 964 l 189 732 z "},"Ȉ":{"ha":386,"x_min":0,"x_max":0,"o":"m 254 0 l 254 964 l 131 964 l 131 0 z m 390 1036 l 303 1268 l 194 1268 l 306 1036 z m 158 1036 l 71 1268 l -37 1268 l 74 1036 z "},"ȉ":{"ha":332,"x_min":0,"x_max":0,"o":"m 217 0 l 217 617 l 113 617 l 113 0 z m 363 732 l 275 964 l 167 964 l 278 732 z m 131 732 l 43 964 l -65 964 l 46 732 z "},"Ȍ":{"ha":1022,"x_min":0,"x_max":0,"o":"m 943 479 b 511 994 943 771 742 994 b 78 479 275 994 78 768 b 510 -31 78 185 283 -31 b 943 479 742 -31 943 188 z m 819 500 b 511 60 819 229 669 60 b 201 500 347 60 201 233 b 510 906 201 754 354 906 b 819 500 671 906 819 749 z m 708 1036 l 621 1268 l 513 1268 l 624 1036 z m 476 1036 l 389 1268 l 281 1268 l 392 1036 z "},"ȍ":{"ha":694,"x_min":0,"x_max":0,"o":"m 651 306 b 347 640 651 492 513 640 b 42 306 176 640 42 488 b 346 -15 42 122 183 -15 b 651 306 513 -15 651 125 z m 543 319 b 346 74 543 156 449 74 b 150 319 250 74 150 151 b 346 556 150 488 256 556 b 543 319 443 556 543 483 z m 544 732 l 457 964 l 349 964 l 460 732 z m 313 732 l 225 964 l 117 964 l 228 732 z "},"Ȑ":{"ha":897,"x_min":0,"x_max":0,"o":"m 857 0 l 582 453 b 818 706 725 494 818 593 b 468 964 818 843 667 964 l 133 964 l 133 0 l 253 0 l 253 440 l 472 440 l 733 0 z m 706 706 b 453 525 706 607 617 525 l 253 525 l 253 886 l 453 886 b 706 706 614 886 706 804 z m 607 1036 l 519 1268 l 411 1268 l 522 1036 z m 375 1036 l 288 1268 l 179 1268 l 290 1036 z "},"ȑ":{"ha":475,"x_min":0,"x_max":0,"o":"m 454 539 l 454 632 b 211 499 331 631 254 563 l 211 625 l 114 625 l 114 0 l 218 0 l 218 297 b 454 539 218 436 318 536 z m 435 732 l 347 964 l 239 964 l 350 732 z m 203 732 l 115 964 l 7 964 l 118 732 z "},"Ȕ":{"ha":956,"x_min":0,"x_max":0,"o":"m 824 324 l 824 964 l 715 964 l 715 322 b 482 47 715 139 599 47 b 254 322 368 47 254 135 l 254 964 l 131 964 l 131 324 b 481 -31 131 121 293 -31 b 824 324 667 -31 824 122 z m 675 1036 l 588 1268 l 479 1268 l 590 1036 z m 443 1036 l 356 1268 l 247 1268 l 358 1036 z "},"ȕ":{"ha":718,"x_min":0,"x_max":0,"o":"m 604 0 l 604 617 l 496 617 l 496 214 b 329 61 496 110 418 61 b 221 157 231 61 221 97 l 221 617 l 113 617 l 113 151 b 260 -15 113 51 144 -15 b 500 67 333 -15 432 7 l 500 0 z m 556 732 l 468 964 l 360 964 l 471 732 z m 324 732 l 236 964 l 128 964 l 239 732 z "},"Ș":{"ha":772,"x_min":0,"x_max":0,"o":"m 693 263 b 619 453 693 353 650 419 b 381 567 554 522 508 535 b 236 628 300 586 278 592 b 188 738 226 636 188 676 b 390 903 188 819 263 903 b 625 814 507 903 574 857 l 646 925 b 392 994 569 971 493 994 b 78 721 199 994 78 858 b 153 544 78 661 97 603 b 354 446 211 482 272 465 b 525 378 472 417 486 413 b 583 249 553 354 583 308 b 381 65 583 157 507 65 b 82 178 324 65 199 79 l 61 65 b 382 -31 183 -11 294 -31 b 693 263 565 -31 693 110 z m 438 -212 l 438 -110 l 335 -110 l 335 -214 l 365 -214 l 335 -369 l 386 -369 z "},"ș":{"ha":532,"x_min":0,"x_max":0,"o":"m 500 178 b 446 306 500 254 449 301 b 285 375 392 354 354 363 b 144 472 208 390 144 404 b 263 558 144 558 244 558 b 460 506 307 558 381 553 l 476 596 b 276 640 404 629 347 640 b 46 458 242 640 46 640 b 121 319 46 390 86 346 b 271 268 164 289 194 283 b 401 168 321 258 401 242 b 271 72 401 72 292 72 b 56 140 158 72 81 124 l 39 46 b 272 -15 83 24 160 -15 b 433 29 297 -15 374 -15 b 500 178 476 63 500 118 z m 318 -212 l 318 -110 l 215 -110 l 215 -214 l 246 -214 l 215 -369 l 267 -369 z "},"Ț":{"ha":946,"x_min":0,"x_max":0,"o":"m 894 865 l 894 956 l 50 956 l 50 865 l 236 865 b 286 867 253 865 269 867 l 411 867 l 411 0 l 535 0 l 535 867 l 658 867 b 708 865 675 867 692 865 z m 524 -212 l 524 -110 l 421 -110 l 421 -214 l 451 -214 l 421 -369 l 472 -369 z "},"ț":{"ha":501,"x_min":0,"x_max":0,"o":"m 461 38 l 439 119 b 314 74 403 90 358 74 b 243 189 263 74 243 115 l 243 536 l 439 536 l 439 617 l 243 617 l 243 793 l 147 793 l 147 617 l 26 617 l 26 536 l 143 536 l 143 165 b 258 -15 143 82 163 -15 b 461 38 356 -15 426 19 z m 303 -212 l 303 -110 l 200 -110 l 200 -214 l 231 -214 l 200 -369 l 251 -369 z "},"ɘ":{"ha":617,"x_min":0,"x_max":0,"o":"m 575 314 b 296 640 575 493 450 640 b 104 539 246 640 161 625 b 49 304 50 456 49 351 l 478 304 b 274 69 474 168 385 69 b 63 147 242 69 150 75 l 54 57 b 275 -15 108 18 188 -15 b 575 314 442 -15 575 131 z m 471 381 l 128 381 b 296 556 146 508 224 556 b 471 381 375 556 449 486 z "},"ə":{"ha":617,"x_min":0,"x_max":0,"o":"m 575 311 b 275 640 575 494 442 640 b 54 568 188 640 108 607 l 63 478 b 274 556 150 550 242 556 b 478 321 385 556 474 457 l 49 321 b 104 86 49 274 50 169 b 296 -15 161 0 246 -15 b 575 311 450 -15 575 132 z m 471 244 b 296 69 449 139 375 69 b 128 244 224 69 146 117 z "},"ʾ":{"ha":550,"x_min":0,"x_max":0,"o":"m 472 644 b 249 886 472 774 378 886 b 81 833 193 886 136 871 b 78 826 78 832 76 829 l 83 758 b 97 753 83 753 92 749 b 247 806 146 792 199 806 b 378 644 326 806 378 736 b 243 479 378 569 343 479 b 107 521 193 479 160 486 b 94 515 103 525 96 521 l 82 451 b 86 442 82 447 83 444 b 244 399 147 407 182 399 b 472 644 388 399 472 522 z "},"ʿ":{"ha":550,"x_min":0,"x_max":0,"o":"m 472 458 l 467 526 b 453 532 467 532 458 536 b 303 479 404 493 351 479 b 172 640 224 479 172 549 b 307 806 172 715 207 806 b 443 764 357 806 390 799 b 456 769 447 760 454 764 l 468 833 b 464 843 468 838 467 840 b 306 886 403 878 368 886 b 78 640 163 886 78 763 b 301 399 78 511 172 399 b 469 451 357 399 414 414 b 472 458 472 453 474 456 z "},"ˆ":{"ha":694,"x_min":0,"x_max":0,"o":"m 563 729 l 389 968 l 306 968 l 132 729 l 214 729 l 347 900 l 481 729 z "},"ˇ":{"ha":694,"x_min":0,"x_max":0,"o":"m 563 968 l 481 968 l 347 797 l 214 968 l 132 968 l 306 729 l 389 729 z "},"˘":{"ha":694,"x_min":0,"x_max":0,"o":"m 582 972 l 497 972 b 349 818 494 869 415 818 b 199 972 278 818 201 872 l 114 972 b 347 725 117 824 228 725 b 582 972 471 725 579 826 z "},"˙":{"ha":386,"x_min":0,"x_max":0,"o":"m 254 786 l 254 910 l 131 910 l 131 786 z "},"˚":{"ha":926,"x_min":0,"x_max":0,"o":"m 532 835 b 463 783 532 783 475 783 b 393 835 451 783 393 783 b 463 886 393 886 450 886 b 532 835 474 886 532 886 z m 617 833 b 463 951 617 900 549 951 b 308 836 372 951 308 896 b 463 718 308 769 376 718 b 617 833 553 718 617 774 z "},"˛":{"ha":694,"x_min":0,"x_max":0,"o":"m 485 -260 l 465 -178 b 372 -197 435 -190 403 -199 b 299 -144 333 -194 300 -186 b 421 0 297 -83 357 -36 l 332 0 b 211 -176 263 -39 207 -106 b 349 -294 213 -236 256 -294 b 485 -260 394 -294 429 -286 z "},"˜":{"ha":694,"x_min":0,"x_max":0,"o":"m 579 931 l 494 931 b 440 850 493 883 476 850 b 342 896 408 850 379 869 b 253 931 315 914 288 931 b 117 765 188 931 119 874 l 201 765 b 256 846 203 813 219 846 b 354 800 288 846 317 826 b 443 765 381 782 408 765 b 579 931 508 765 576 822 z "},"˝":{"ha":694,"x_min":0,"x_max":0,"o":"m 346 964 l 238 964 l 150 732 l 235 732 z m 578 964 l 469 964 l 382 732 l 467 732 z "},"̀":{"ha":0,"x_min":0,"x_max":0,"o":"m -236 732 l -421 964 l -529 964 l -321 732 z "},"́":{"ha":0,"x_min":0,"x_max":0,"o":"m -137 964 l -246 964 l -431 732 l -346 732 z "},"̂":{"ha":0,"x_min":0,"x_max":0,"o":"m -118 729 l -292 968 l -375 968 l -549 729 l -467 729 l -333 900 l -200 729 z "},"̃":{"ha":0,"x_min":0,"x_max":0,"o":"m -101 931 l -186 931 b -240 850 -187 883 -204 850 b -339 896 -272 850 -301 869 b -428 931 -365 914 -393 931 b -564 765 -493 931 -561 874 l -479 765 b -425 846 -478 813 -461 846 b -326 800 -393 846 -364 826 b -237 765 -300 782 -272 765 b -101 931 -172 765 -104 822 z "},"̄":{"ha":0,"x_min":0,"x_max":0,"o":"m -82 804 l -82 893 l -583 893 l -583 804 z "},"̆":{"ha":0,"x_min":0,"x_max":0,"o":"m -99 972 l -183 972 b -332 818 -186 869 -265 818 b -482 972 -403 818 -479 872 l -567 972 b -333 725 -564 824 -453 725 b -99 972 -210 725 -101 826 z "},"̇":{"ha":0,"x_min":0,"x_max":0,"o":"m -272 786 l -272 910 l -396 910 l -396 786 z "},"̈":{"ha":0,"x_min":0,"x_max":0,"o":"m -379 793 l -379 904 l -490 904 l -490 793 z m -176 793 l -176 904 l -287 904 l -287 793 z "},"̉":{"ha":0,"x_min":0,"x_max":0,"o":"m -199 889 b -236 969 -199 921 -211 951 b -343 997 -264 990 -300 997 b -468 938 -392 997 -437 976 l -449 882 l -447 882 l -446 882 b -343 943 -425 919 -386 943 b -285 931 -317 943 -300 940 b -268 889 -274 922 -268 907 b -287 860 -268 878 -276 867 b -362 726 -335 835 -362 783 l -362 700 l -361 699 l -325 699 l -324 700 l -324 726 b -254 807 -324 761 -300 779 b -236 819 -246 813 -242 815 b -199 889 -212 835 -199 861 z "},"̊":{"ha":0,"x_min":0,"x_max":0,"o":"m -265 835 b -335 783 -265 783 -322 783 b -404 835 -346 783 -404 783 b -335 886 -404 886 -347 886 b -265 835 -324 886 -265 886 z m -181 833 b -335 951 -181 900 -249 951 b -489 836 -425 951 -489 896 b -335 718 -489 769 -421 718 b -181 833 -244 718 -181 774 z "},"̋":{"ha":0,"x_min":0,"x_max":0,"o":"m -335 964 l -443 964 l -531 732 l -446 732 z m -103 964 l -211 964 l -299 732 l -214 732 z "},"̌":{"ha":0,"x_min":0,"x_max":0,"o":"m -118 968 l -200 968 l -333 797 l -467 968 l -549 968 l -375 729 l -292 729 z "},"̏":{"ha":0,"x_min":0,"x_max":0,"o":"m -136 732 l -224 964 l -332 964 l -221 732 z m -368 732 l -456 964 l -564 964 l -453 732 z "},"̑":{"ha":0,"x_min":0,"x_max":0,"o":"m -99 725 b -332 972 -101 874 -212 972 b -567 725 -456 972 -564 871 l -482 725 b -333 879 -479 828 -400 879 b -183 725 -262 879 -186 825 z "},"̣":{"ha":0,"x_min":0,"x_max":0,"o":"m -272 -278 l -272 -154 l -396 -154 l -396 -278 z "},"̦":{"ha":0,"x_min":0,"x_max":0,"o":"m -282 -212 l -282 -110 l -385 -110 l -385 -214 l -354 -214 l -385 -369 l -333 -369 z "},"̮":{"ha":0,"x_min":0,"x_max":0,"o":"m -99 -92 l -183 -92 b -332 -246 -186 -194 -265 -246 b -482 -92 -403 -246 -479 -192 l -567 -92 b -333 -339 -564 -240 -453 -339 b -99 -92 -210 -339 -101 -237 z "},"̯":{"ha":0,"x_min":0,"x_max":0,"o":"m -99 -339 b -332 -92 -101 -190 -212 -92 b -567 -339 -456 -92 -564 -193 l -482 -339 b -333 -185 -479 -236 -400 -185 b -183 -339 -262 -185 -186 -239 z "},"̰":{"ha":0,"x_min":0,"x_max":0,"o":"m -101 -132 l -186 -132 b -240 -212 -187 -179 -204 -212 b -339 -167 -272 -212 -301 -193 b -428 -132 -365 -149 -393 -132 b -564 -297 -493 -132 -561 -189 l -479 -297 b -425 -217 -478 -250 -461 -217 b -326 -262 -393 -217 -364 -236 b -237 -297 -300 -281 -272 -297 b -101 -132 -172 -297 -104 -240 z "},"̱":{"ha":0,"x_min":0,"x_max":0,"o":"m -82 -260 l -82 -171 l -583 -171 l -583 -260 z "},"̲":{"ha":0,"x_min":0,"x_max":0,"o":"m -82 -260 l -82 -171 l -583 -171 l -583 -260 z "},"Γ":{"ha":753,"x_min":0,"x_max":0,"o":"m 693 869 l 693 960 l 131 960 l 131 0 l 254 0 l 254 871 l 418 871 b 468 869 435 871 451 869 z "},"Δ":{"ha":1157,"x_min":0,"x_max":0,"o":"m 1097 0 l 640 964 l 515 964 l 58 0 z m 906 115 l 219 115 l 418 539 b 563 868 496 706 546 813 b 653 658 568 850 578 821 z "},"Θ":{"ha":1081,"x_min":0,"x_max":0,"o":"m 1001 479 b 540 994 1001 768 790 994 b 78 479 286 994 78 764 b 539 -31 78 186 294 -31 b 1001 479 789 -31 1001 190 z m 886 479 b 540 56 886 219 718 56 b 193 479 356 56 193 224 b 539 910 193 738 358 910 b 886 479 725 910 886 733 z m 807 425 l 807 540 l 272 540 l 272 425 z "},"Λ":{"ha":849,"x_min":0,"x_max":0,"o":"m 808 0 l 485 964 l 363 964 l 39 0 l 142 0 l 278 411 b 408 863 281 419 400 776 l 410 863 b 467 644 417 817 444 719 l 538 422 l 678 0 z "},"Ξ":{"ha":926,"x_min":0,"x_max":0,"o":"m 860 851 l 860 956 l 65 956 l 65 851 l 239 851 l 463 853 l 686 851 z m 867 0 l 867 104 l 689 104 l 463 103 l 236 104 l 58 104 l 58 0 z m 771 446 l 771 549 l 154 549 l 154 446 z "},"Π":{"ha":983,"x_min":0,"x_max":0,"o":"m 851 0 l 851 960 l 131 960 l 131 0 l 254 0 l 254 875 l 728 875 l 728 0 z "},"Σ":{"ha":1003,"x_min":0,"x_max":0,"o":"m 924 0 l 924 97 l 590 97 b 540 96 574 97 557 96 l 276 96 l 543 482 l 235 875 l 515 875 b 565 874 532 875 549 874 l 924 874 l 924 964 l 78 964 l 78 875 l 399 465 l 78 0 z "},"Υ":{"ha":1081,"x_min":0,"x_max":0,"o":"m 1001 771 b 782 994 999 911 890 994 b 540 686 622 994 561 839 l 539 686 b 297 994 522 796 479 994 b 78 771 189 994 81 910 l 186 771 b 300 901 189 846 233 901 b 478 528 401 901 478 822 l 478 0 l 601 0 l 601 528 b 779 901 601 838 686 901 b 893 771 846 901 890 847 z "},"Φ":{"ha":1003,"x_min":0,"x_max":0,"o":"m 924 482 b 554 817 924 638 785 792 l 554 964 l 439 964 l 439 815 b 78 482 236 794 78 650 b 439 149 78 313 238 169 l 439 0 l 554 0 l 554 147 b 924 482 785 172 924 326 z m 439 233 b 197 482 292 254 197 356 b 439 731 197 608 293 710 z m 804 482 b 554 232 804 361 715 253 l 554 732 b 804 482 717 710 804 601 z "},"Ψ":{"ha":1081,"x_min":0,"x_max":0,"o":"m 1001 767 l 1001 851 l 900 851 b 790 611 840 851 790 838 b 593 236 790 504 789 285 l 593 964 l 478 964 l 478 236 b 289 586 289 286 289 513 b 179 851 289 793 267 851 l 78 851 l 78 767 b 174 561 165 761 174 658 b 478 149 175 404 229 185 l 478 0 l 593 0 l 593 149 b 906 592 903 190 906 500 b 1001 767 906 658 918 761 z "},"Ω":{"ha":1003,"x_min":0,"x_max":0,"o":"m 940 0 l 940 99 l 822 99 b 772 97 806 99 789 97 l 699 97 b 807 326 718 175 757 242 b 924 642 864 422 924 525 b 501 994 924 836 736 994 b 78 642 261 994 78 833 b 207 304 78 525 135 426 b 303 97 258 217 288 160 l 229 97 b 179 99 213 97 196 99 l 61 99 l 61 0 l 401 0 b 313 300 400 69 389 143 b 201 640 257 413 201 525 b 500 910 201 799 335 910 b 800 640 671 910 800 796 b 699 317 800 532 751 428 b 600 0 640 197 601 111 z "},"฿":{"ha":926,"x_min":0,"x_max":0,"o":"m 847 261 b 579 504 847 382 726 481 b 810 722 706 536 810 617 b 496 963 810 843 678 951 l 496 1053 l 407 1053 l 407 964 l 135 964 l 135 0 l 407 0 l 407 -89 l 496 -89 l 496 0 l 501 0 b 847 261 701 0 847 125 z m 701 721 b 496 550 701 651 632 574 l 496 881 b 701 721 615 863 701 797 z m 407 543 l 250 543 l 250 886 l 407 886 z m 735 263 b 496 79 735 167 631 90 l 496 456 b 735 263 625 440 735 363 z m 407 78 l 250 78 l 250 458 l 407 458 z "},"Ḍ":{"ha":1003,"x_min":0,"x_max":0,"o":"m 924 474 b 497 964 924 743 736 964 l 133 964 l 133 0 l 499 0 b 924 474 735 0 924 211 z m 804 474 b 465 78 804 238 660 78 l 253 78 l 253 886 l 465 886 b 804 474 660 886 804 718 z m 421 -278 l 421 -154 l 297 -154 l 297 -278 z "},"ḍ":{"ha":718,"x_min":0,"x_max":0,"o":"m 603 0 l 603 964 l 499 964 l 499 556 b 296 632 425 617 347 632 b 50 308 158 632 50 488 b 289 -15 50 126 157 -15 b 494 72 335 -15 417 -3 l 494 0 z m 494 193 b 449 108 494 174 493 149 b 346 69 417 81 382 69 b 158 307 260 69 158 135 b 360 547 158 490 278 547 b 494 471 422 547 464 515 z m 419 -278 l 419 -154 l 296 -154 l 296 -278 z "},"Ḏ":{"ha":1003,"x_min":0,"x_max":0,"o":"m 924 474 b 497 964 924 743 736 964 l 133 964 l 133 0 l 499 0 b 924 474 735 0 924 211 z m 804 474 b 465 78 804 238 660 78 l 253 78 l 253 886 l 465 886 b 804 474 660 886 804 718 z m 611 -260 l 611 -171 l 110 -171 l 110 -260 z "},"ḏ":{"ha":718,"x_min":0,"x_max":0,"o":"m 603 0 l 603 964 l 499 964 l 499 556 b 296 632 425 617 347 632 b 50 308 158 632 50 488 b 289 -15 50 126 157 -15 b 494 72 335 -15 417 -3 l 494 0 z m 494 193 b 449 108 494 174 493 149 b 346 69 417 81 382 69 b 158 307 260 69 158 135 b 360 547 158 490 278 547 b 494 471 422 547 464 515 z m 610 -260 l 610 -171 l 108 -171 l 108 -260 z "},"Ḥ":{"ha":983,"x_min":0,"x_max":0,"o":"m 851 0 l 851 964 l 728 964 l 728 543 l 254 543 l 254 964 l 131 964 l 131 0 l 254 0 l 254 458 l 728 458 l 728 0 z m 553 -278 l 553 -154 l 429 -154 l 429 -278 z "},"ḥ":{"ha":718,"x_min":0,"x_max":0,"o":"m 604 0 l 604 414 b 414 632 604 506 583 632 b 217 532 328 632 261 589 l 217 964 l 113 964 l 113 0 l 221 0 l 221 340 b 361 547 221 432 256 547 b 496 404 494 547 496 449 l 496 0 z m 419 -278 l 419 -154 l 296 -154 l 296 -278 z "},"Ḧ":{"ha":983,"x_min":0,"x_max":0,"o":"m 851 0 l 851 964 l 728 964 l 728 543 l 254 543 l 254 964 l 131 964 l 131 0 l 254 0 l 254 458 l 728 458 l 728 0 z m 426 1022 l 426 1133 l 315 1133 l 315 1022 z m 668 1022 l 668 1133 l 557 1133 l 557 1022 z "},"ḧ":{"ha":718,"x_min":0,"x_max":0,"o":"m 604 0 l 604 414 b 414 632 604 506 583 632 b 217 532 328 632 261 589 l 217 964 l 113 964 l 113 0 l 221 0 l 221 340 b 361 547 221 432 256 547 b 496 404 494 547 496 449 l 496 0 z m 293 1022 l 293 1133 l 182 1133 l 182 1022 z m 535 1022 l 535 1133 l 424 1133 l 424 1022 z "},"Ḫ":{"ha":983,"x_min":0,"x_max":0,"o":"m 851 0 l 851 964 l 728 964 l 728 543 l 254 543 l 254 964 l 131 964 l 131 0 l 254 0 l 254 458 l 728 458 l 728 0 z m 726 -92 l 642 -92 b 493 -246 639 -194 560 -246 b 343 -92 422 -246 346 -192 l 258 -92 b 492 -339 261 -240 372 -339 b 726 -92 615 -339 724 -237 z "},"ḫ":{"ha":718,"x_min":0,"x_max":0,"o":"m 604 0 l 604 414 b 414 632 604 506 583 632 b 217 532 328 632 261 589 l 217 964 l 113 964 l 113 0 l 221 0 l 221 340 b 361 547 221 432 256 547 b 496 404 494 547 496 449 l 496 0 z m 593 -92 l 508 -92 b 360 -246 506 -194 426 -246 b 210 -92 289 -246 213 -192 l 125 -92 b 358 -339 128 -240 239 -339 b 593 -92 482 -339 590 -237 z "},"Ḷ":{"ha":753,"x_min":0,"x_max":0,"o":"m 693 0 l 693 92 l 322 89 l 254 89 l 254 964 l 131 964 l 131 0 z m 438 -278 l 438 -154 l 314 -154 l 314 -278 z "},"ḷ":{"ha":332,"x_min":0,"x_max":0,"o":"m 217 0 l 217 964 l 113 964 l 113 0 z m 228 -278 l 228 -154 l 104 -154 l 104 -278 z "},"Ḹ":{"ha":753,"x_min":0,"x_max":0,"o":"m 693 0 l 693 92 l 322 89 l 254 89 l 254 964 l 131 964 l 131 0 z m 438 -278 l 438 -154 l 314 -154 l 314 -278 z m 444 1050 l 444 1139 l -57 1139 l -57 1050 z "},"ḹ":{"ha":332,"x_min":0,"x_max":0,"o":"m 217 0 l 217 964 l 113 964 l 113 0 z m 228 -278 l 228 -154 l 104 -154 l 104 -278 z m 433 1050 l 433 1139 l -68 1139 l -68 1050 z "},"Ṃ":{"ha":1215,"x_min":0,"x_max":0,"o":"m 1075 0 l 1075 964 l 917 964 l 736 493 b 607 129 688 367 622 194 l 606 129 b 561 268 599 158 582 210 l 343 843 l 296 964 l 139 964 l 139 0 l 247 0 l 247 861 l 249 861 b 349 571 257 817 313 665 l 554 31 l 656 31 l 840 514 l 907 690 b 965 863 921 731 958 831 l 967 861 l 967 0 z m 669 -278 l 669 -154 l 546 -154 l 546 -278 z "},"ṃ":{"ha":1103,"x_min":0,"x_max":0,"o":"m 990 0 l 990 414 b 800 632 990 507 968 632 b 593 518 717 632 644 593 b 415 632 557 624 460 632 b 213 525 315 632 250 575 l 213 625 l 113 625 l 113 0 l 221 0 l 221 340 b 361 547 221 435 258 547 b 497 404 490 547 497 457 l 497 0 l 606 0 l 606 340 b 746 547 606 435 643 547 b 882 404 875 547 882 457 l 882 0 z m 613 -278 l 613 -154 l 489 -154 l 489 -278 z "},"Ṅ":{"ha":983,"x_min":0,"x_max":0,"o":"m 849 0 l 849 964 l 740 964 l 740 99 l 739 99 l 646 289 l 306 964 l 133 964 l 133 0 l 242 0 l 242 865 l 243 865 l 336 675 l 676 0 z m 553 1022 l 553 1146 l 429 1146 l 429 1022 z "},"ṅ":{"ha":718,"x_min":0,"x_max":0,"o":"m 604 0 l 604 414 b 414 632 604 506 583 632 b 213 526 289 632 221 538 l 213 625 l 113 625 l 113 0 l 221 0 l 221 340 b 361 547 221 432 256 547 b 496 404 494 547 496 449 l 496 0 z m 419 786 l 419 910 l 296 910 l 296 786 z "},"Ṇ":{"ha":983,"x_min":0,"x_max":0,"o":"m 849 0 l 849 964 l 740 964 l 740 99 l 739 99 l 646 289 l 306 964 l 133 964 l 133 0 l 242 0 l 242 865 l 243 865 l 336 675 l 676 0 z m 553 -278 l 553 -154 l 429 -154 l 429 -278 z "},"ṇ":{"ha":718,"x_min":0,"x_max":0,"o":"m 604 0 l 604 414 b 414 632 604 506 583 632 b 213 526 289 632 221 538 l 213 625 l 113 625 l 113 0 l 221 0 l 221 340 b 361 547 221 432 256 547 b 496 404 494 547 496 449 l 496 0 z m 419 -278 l 419 -154 l 296 -154 l 296 -278 z "},"Ṙ":{"ha":897,"x_min":0,"x_max":0,"o":"m 857 0 l 582 453 b 818 706 725 494 818 593 b 468 964 818 843 667 964 l 133 964 l 133 0 l 253 0 l 253 440 l 472 440 l 733 0 z m 706 706 b 453 525 706 607 617 525 l 253 525 l 253 886 l 453 886 b 706 706 614 886 706 804 z m 510 1022 l 510 1146 l 386 1146 l 386 1022 z "},"ṙ":{"ha":475,"x_min":0,"x_max":0,"o":"m 454 539 l 454 632 b 211 499 331 631 254 563 l 211 625 l 114 625 l 114 0 l 218 0 l 218 297 b 454 539 218 436 318 536 z m 299 786 l 299 910 l 175 910 l 175 786 z "},"Ṛ":{"ha":897,"x_min":0,"x_max":0,"o":"m 857 0 l 582 453 b 818 706 725 494 818 593 b 468 964 818 843 667 964 l 133 964 l 133 0 l 253 0 l 253 440 l 472 440 l 733 0 z m 706 706 b 453 525 706 607 617 525 l 253 525 l 253 886 l 453 886 b 706 706 614 886 706 804 z m 510 -278 l 510 -154 l 386 -154 l 386 -278 z "},"ṛ":{"ha":475,"x_min":0,"x_max":0,"o":"m 454 539 l 454 632 b 211 499 331 631 254 563 l 211 625 l 114 625 l 114 0 l 218 0 l 218 297 b 454 539 218 436 318 536 z m 228 -278 l 228 -154 l 104 -154 l 104 -278 z "},"Ṝ":{"ha":897,"x_min":0,"x_max":0,"o":"m 857 0 l 582 453 b 818 706 725 494 818 593 b 468 964 818 843 667 964 l 133 964 l 133 0 l 253 0 l 253 440 l 472 440 l 733 0 z m 706 706 b 453 525 706 607 617 525 l 253 525 l 253 886 l 453 886 b 706 706 614 886 706 804 z m 510 -278 l 510 -154 l 386 -154 l 386 -278 z m 700 1050 l 700 1139 l 199 1139 l 199 1050 z "},"ṝ":{"ha":475,"x_min":0,"x_max":0,"o":"m 454 539 l 454 632 b 211 499 331 631 254 563 l 211 625 l 114 625 l 114 0 l 218 0 l 218 297 b 454 539 218 436 318 536 z m 228 -278 l 228 -154 l 104 -154 l 104 -278 z m 489 804 l 489 893 l -12 893 l -12 804 z "},"Ṣ":{"ha":772,"x_min":0,"x_max":0,"o":"m 693 263 b 619 453 693 353 650 419 b 381 567 554 522 508 535 b 236 628 300 586 278 592 b 188 738 226 636 188 676 b 390 903 188 819 263 903 b 625 814 507 903 574 857 l 646 925 b 392 994 569 971 493 994 b 78 721 199 994 78 858 b 153 544 78 661 97 603 b 354 446 211 482 272 465 b 525 378 472 417 486 413 b 583 249 553 354 583 308 b 381 65 583 157 507 65 b 82 178 324 65 199 79 l 61 65 b 382 -31 183 -11 294 -31 b 693 263 565 -31 693 110 z m 447 -278 l 447 -154 l 324 -154 l 324 -278 z "},"ṣ":{"ha":532,"x_min":0,"x_max":0,"o":"m 500 178 b 446 306 500 254 449 301 b 285 375 392 354 354 363 b 144 472 208 390 144 404 b 263 558 144 558 244 558 b 460 506 307 558 381 553 l 476 596 b 276 640 404 629 347 640 b 46 458 242 640 46 640 b 121 319 46 390 86 346 b 271 268 164 289 194 283 b 401 168 321 258 401 242 b 271 72 401 72 292 72 b 56 140 158 72 81 124 l 39 46 b 272 -15 83 24 160 -15 b 433 29 297 -15 374 -15 b 500 178 476 63 500 118 z m 328 -278 l 328 -154 l 204 -154 l 204 -278 z "},"Ṭ":{"ha":946,"x_min":0,"x_max":0,"o":"m 894 865 l 894 956 l 50 956 l 50 865 l 236 865 b 286 867 253 865 269 867 l 411 867 l 411 0 l 535 0 l 535 867 l 658 867 b 708 865 675 867 692 865 z m 533 -278 l 533 -154 l 410 -154 l 410 -278 z "},"ṭ":{"ha":501,"x_min":0,"x_max":0,"o":"m 461 38 l 439 119 b 314 74 403 90 358 74 b 243 189 263 74 243 115 l 243 536 l 439 536 l 439 617 l 243 617 l 243 793 l 147 793 l 147 617 l 26 617 l 26 536 l 143 536 l 143 165 b 258 -15 143 82 163 -15 b 461 38 356 -15 426 19 z m 313 -278 l 313 -154 l 189 -154 l 189 -278 z "},"Ṯ":{"ha":946,"x_min":0,"x_max":0,"o":"m 894 865 l 894 956 l 50 956 l 50 865 l 236 865 b 286 867 253 865 269 867 l 411 867 l 411 0 l 535 0 l 535 867 l 658 867 b 708 865 675 867 692 865 z m 724 -260 l 724 -171 l 222 -171 l 222 -260 z "},"ṯ":{"ha":501,"x_min":0,"x_max":0,"o":"m 461 38 l 439 119 b 314 74 403 90 358 74 b 243 189 263 74 243 115 l 243 536 l 439 536 l 439 617 l 243 617 l 243 793 l 147 793 l 147 617 l 26 617 l 26 536 l 143 536 l 143 165 b 258 -15 143 82 163 -15 b 461 38 356 -15 426 19 z m 503 -260 l 503 -171 l 1 -171 l 1 -260 z "},"Ẁ":{"ha":1311,"x_min":0,"x_max":0,"o":"m 1290 964 l 1190 964 l 1064 528 b 954 100 1028 404 961 171 l 953 100 b 853 490 953 100 944 174 l 717 964 l 604 964 l 479 531 b 372 103 449 424 379 181 l 371 103 b 317 340 365 158 328 294 l 251 572 l 139 964 l 19 964 l 301 0 l 414 0 l 553 482 b 650 863 582 583 642 790 l 651 863 b 728 557 657 821 690 689 l 888 0 l 1008 0 z m 788 1036 l 544 1206 l 390 1206 l 664 1036 z "},"ẁ":{"ha":949,"x_min":0,"x_max":0,"o":"m 928 617 l 826 617 l 738 322 b 674 75 722 272 681 135 l 672 75 b 608 321 667 118 632 242 l 518 617 l 421 617 l 342 356 b 274 76 326 307 279 147 l 272 76 b 197 376 265 143 219 300 l 125 617 l 19 617 l 210 0 l 319 0 l 406 286 b 468 539 425 350 464 488 l 469 539 b 514 344 472 500 496 404 l 615 0 l 738 0 z m 572 732 l 388 964 l 279 964 l 488 732 z "},"Ẃ":{"ha":1311,"x_min":0,"x_max":0,"o":"m 1290 964 l 1190 964 l 1064 528 b 954 100 1028 404 961 171 l 953 100 b 853 490 953 100 944 174 l 717 964 l 604 964 l 479 531 b 372 103 449 424 379 181 l 371 103 b 317 340 365 158 328 294 l 251 572 l 139 964 l 19 964 l 301 0 l 414 0 l 553 482 b 650 863 582 583 642 790 l 651 863 b 728 557 657 821 690 689 l 888 0 l 1008 0 z m 921 1206 l 767 1206 l 524 1036 l 647 1036 z "},"ẃ":{"ha":949,"x_min":0,"x_max":0,"o":"m 928 617 l 826 617 l 738 322 b 674 75 722 272 681 135 l 672 75 b 608 321 667 118 632 242 l 518 617 l 421 617 l 342 356 b 274 76 326 307 279 147 l 272 76 b 197 376 265 143 219 300 l 125 617 l 19 617 l 210 0 l 319 0 l 406 286 b 468 539 425 350 464 488 l 469 539 b 514 344 472 500 496 404 l 615 0 l 738 0 z m 671 964 l 563 964 l 378 732 l 463 732 z "},"Ẅ":{"ha":1311,"x_min":0,"x_max":0,"o":"m 1290 964 l 1190 964 l 1064 528 b 954 100 1028 404 961 171 l 953 100 b 853 490 953 100 944 174 l 717 964 l 604 964 l 479 531 b 372 103 449 424 379 181 l 371 103 b 317 340 365 158 328 294 l 251 572 l 139 964 l 19 964 l 301 0 l 414 0 l 553 482 b 650 863 582 583 642 790 l 651 863 b 728 557 657 821 690 689 l 888 0 l 1008 0 z m 590 1022 l 590 1133 l 479 1133 l 479 1022 z m 832 1022 l 832 1133 l 721 1133 l 721 1022 z "},"ẅ":{"ha":949,"x_min":0,"x_max":0,"o":"m 928 617 l 826 617 l 738 322 b 674 75 722 272 681 135 l 672 75 b 608 321 667 118 632 242 l 518 617 l 421 617 l 342 356 b 274 76 326 307 279 147 l 272 76 b 197 376 265 143 219 300 l 125 617 l 19 617 l 210 0 l 319 0 l 406 286 b 468 539 425 350 464 488 l 469 539 b 514 344 472 500 496 404 l 615 0 l 738 0 z m 429 793 l 429 904 l 318 904 l 318 793 z m 632 793 l 632 904 l 521 904 l 521 793 z "},"Ẓ":{"ha":849,"x_min":0,"x_max":0,"o":"m 778 0 l 778 92 l 644 92 l 279 89 l 235 89 l 769 907 l 769 964 l 96 964 l 96 878 l 374 878 b 424 879 390 878 407 879 l 613 879 l 78 60 l 78 0 z m 486 -278 l 486 -154 l 363 -154 l 363 -278 z "},"ẓ":{"ha":604,"x_min":0,"x_max":0,"o":"m 558 0 l 558 86 l 354 86 b 304 85 338 86 321 85 l 186 85 l 556 563 l 556 617 l 58 617 l 58 535 l 251 535 b 301 536 268 535 285 536 l 410 536 l 39 57 l 39 0 z m 363 -278 l 363 -154 l 239 -154 l 239 -278 z "},"ẗ":{"ha":501,"x_min":0,"x_max":0,"o":"m 461 38 l 439 119 b 314 74 403 90 358 74 b 243 189 263 74 243 115 l 243 536 l 439 536 l 439 617 l 243 617 l 243 793 l 147 793 l 147 617 l 26 617 l 26 536 l 143 536 l 143 165 b 258 -15 143 82 163 -15 b 461 38 356 -15 426 19 z m 131 851 l 131 963 l 19 963 l 19 851 z m 372 851 l 372 963 l 261 963 l 261 851 z "},"Ạ":{"ha":926,"x_min":0,"x_max":0,"o":"m 886 0 l 524 964 l 401 964 l 39 0 l 142 0 l 249 283 l 653 283 l 758 0 z m 622 361 l 278 361 b 368 613 349 560 297 414 b 450 864 397 694 440 813 l 451 864 b 496 718 454 844 464 810 z m 524 -278 l 524 -154 l 400 -154 l 400 -278 z "},"ạ":{"ha":668,"x_min":0,"x_max":0,"o":"m 554 0 l 554 401 b 325 640 554 543 453 640 b 107 581 235 640 172 618 l 115 489 b 325 558 188 540 257 558 b 446 400 390 558 446 503 l 446 340 b 61 157 238 338 61 279 b 219 -15 61 97 99 -15 b 450 50 239 -15 369 -12 l 450 0 z m 446 183 b 399 96 446 157 446 122 b 290 69 358 71 306 69 b 161 160 224 69 161 101 b 446 269 161 257 386 267 z m 394 -278 l 394 -154 l 271 -154 l 271 -278 z "},"Ả":{"ha":926,"x_min":0,"x_max":0,"o":"m 886 0 l 524 964 l 401 964 l 39 0 l 142 0 l 249 283 l 653 283 l 758 0 z m 622 361 l 278 361 b 368 613 349 560 297 414 b 450 864 397 694 440 813 l 451 864 b 496 718 454 844 464 810 z m 597 1213 b 560 1293 597 1244 585 1275 b 453 1321 532 1314 496 1321 b 328 1261 404 1321 358 1300 l 347 1206 l 349 1206 l 350 1206 b 453 1267 371 1243 410 1267 b 511 1254 479 1267 496 1264 b 528 1213 522 1246 528 1231 b 508 1183 528 1201 519 1190 b 433 1050 461 1158 433 1107 l 433 1024 l 435 1022 l 471 1022 l 472 1024 l 472 1050 b 542 1131 472 1085 496 1103 b 560 1143 550 1136 554 1139 b 597 1213 583 1158 597 1185 z "},"ả":{"ha":668,"x_min":0,"x_max":0,"o":"m 554 0 l 554 401 b 325 640 554 543 453 640 b 107 581 235 640 172 618 l 115 489 b 325 558 188 540 257 558 b 446 400 390 558 446 503 l 446 340 b 61 157 238 338 61 279 b 219 -15 61 97 99 -15 b 450 50 239 -15 369 -12 l 450 0 z m 446 183 b 399 96 446 157 446 122 b 290 69 358 71 306 69 b 161 160 224 69 161 101 b 446 269 161 257 386 267 z m 468 889 b 431 969 468 921 456 951 b 324 997 403 990 367 997 b 199 938 275 997 229 976 l 218 882 l 219 882 l 221 882 b 324 943 242 919 281 943 b 382 931 350 943 367 940 b 399 889 393 922 399 907 b 379 860 399 878 390 867 b 304 726 332 835 304 783 l 304 700 l 306 699 l 342 699 l 343 700 l 343 726 b 413 807 343 761 367 779 b 431 819 421 813 425 815 b 468 889 454 835 468 861 z "},"Ấ":{"ha":926,"x_min":0,"x_max":0,"o":"m 886 0 l 524 964 l 401 964 l 39 0 l 142 0 l 249 283 l 653 283 l 758 0 z m 622 361 l 278 361 b 368 613 349 560 297 414 b 450 864 397 694 440 813 l 451 864 b 496 718 454 844 464 810 z m 679 1022 l 504 1208 l 421 1208 l 246 1022 l 328 1022 l 463 1157 l 597 1022 z m 661 1426 l 507 1426 l 264 1257 l 388 1257 z "},"ấ":{"ha":668,"x_min":0,"x_max":0,"o":"m 554 0 l 554 401 b 325 640 554 543 453 640 b 107 581 235 640 172 618 l 115 489 b 325 558 188 540 257 558 b 446 400 390 558 446 503 l 446 340 b 61 157 238 338 61 279 b 219 -15 61 97 99 -15 b 450 50 239 -15 369 -12 l 450 0 z m 446 183 b 399 96 446 157 446 122 b 290 69 358 71 306 69 b 161 160 224 69 161 101 b 446 269 161 257 386 267 z m 550 729 l 375 915 l 292 915 l 117 729 l 199 729 l 333 864 l 468 729 z m 532 1133 l 378 1133 l 135 964 l 258 964 z "},"Ầ":{"ha":926,"x_min":0,"x_max":0,"o":"m 886 0 l 524 964 l 401 964 l 39 0 l 142 0 l 249 283 l 653 283 l 758 0 z m 622 361 l 278 361 b 368 613 349 560 297 414 b 450 864 397 694 440 813 l 451 864 b 496 718 454 844 464 810 z m 679 1022 l 504 1208 l 421 1208 l 246 1022 l 328 1022 l 463 1157 l 597 1022 z m 661 1257 l 538 1257 l 264 1426 l 418 1426 z "},"ầ":{"ha":668,"x_min":0,"x_max":0,"o":"m 554 0 l 554 401 b 325 640 554 543 453 640 b 107 581 235 640 172 618 l 115 489 b 325 558 188 540 257 558 b 446 400 390 558 446 503 l 446 340 b 61 157 238 338 61 279 b 219 -15 61 97 99 -15 b 450 50 239 -15 369 -12 l 450 0 z m 446 183 b 399 96 446 157 446 122 b 290 69 358 71 306 69 b 161 160 224 69 161 101 b 446 269 161 257 386 267 z m 550 729 l 375 915 l 292 915 l 117 729 l 199 729 l 333 864 l 468 729 z m 532 964 l 408 964 l 135 1133 l 289 1133 z "},"Ẩ":{"ha":926,"x_min":0,"x_max":0,"o":"m 886 0 l 524 964 l 401 964 l 39 0 l 142 0 l 249 283 l 653 283 l 758 0 z m 622 361 l 278 361 b 368 613 349 560 297 414 b 450 864 397 694 440 813 l 451 864 b 496 718 454 844 464 810 z m 679 1022 l 504 1208 l 421 1208 l 246 1022 l 328 1022 l 463 1157 l 597 1022 z m 732 1419 b 694 1500 732 1451 719 1482 b 588 1528 667 1521 631 1528 b 463 1468 539 1528 493 1507 l 482 1413 l 483 1413 l 485 1413 b 588 1474 506 1450 544 1474 b 646 1461 614 1474 631 1471 b 663 1419 657 1453 663 1438 b 643 1390 663 1408 654 1397 b 568 1257 596 1365 568 1314 l 568 1231 l 569 1229 l 606 1229 l 607 1231 l 607 1257 b 676 1338 607 1292 631 1310 b 694 1350 685 1343 689 1346 b 732 1419 718 1365 732 1392 z "},"ẩ":{"ha":668,"x_min":0,"x_max":0,"o":"m 554 0 l 554 401 b 325 640 554 543 453 640 b 107 581 235 640 172 618 l 115 489 b 325 558 188 540 257 558 b 446 400 390 558 446 503 l 446 340 b 61 157 238 338 61 279 b 219 -15 61 97 99 -15 b 450 50 239 -15 369 -12 l 450 0 z m 446 183 b 399 96 446 157 446 122 b 290 69 358 71 306 69 b 161 160 224 69 161 101 b 446 269 161 257 386 267 z m 550 729 l 375 915 l 292 915 l 117 729 l 199 729 l 333 864 l 468 729 z m 603 1126 b 565 1207 603 1158 590 1189 b 458 1235 538 1228 501 1235 b 333 1175 410 1235 364 1214 l 353 1119 l 354 1119 l 356 1119 b 458 1181 376 1157 415 1181 b 517 1168 485 1181 501 1178 b 533 1126 528 1160 533 1144 b 514 1097 533 1115 525 1104 b 439 964 467 1072 439 1021 l 439 938 l 440 936 l 476 936 l 478 938 l 478 964 b 547 1044 478 999 501 1017 b 565 1057 556 1050 560 1053 b 603 1126 589 1072 603 1099 z "},"Ẫ":{"ha":926,"x_min":0,"x_max":0,"o":"m 886 0 l 524 964 l 401 964 l 39 0 l 142 0 l 249 283 l 653 283 l 758 0 z m 622 361 l 278 361 b 368 613 349 560 297 414 b 450 864 397 694 440 813 l 451 864 b 496 718 454 844 464 810 z m 679 1022 l 504 1208 l 421 1208 l 246 1022 l 328 1022 l 463 1157 l 597 1022 z m 694 1450 l 610 1450 b 556 1369 608 1403 592 1369 b 457 1415 524 1369 494 1389 b 368 1450 431 1433 403 1450 b 232 1285 303 1450 235 1393 l 317 1285 b 371 1365 318 1332 335 1365 b 469 1319 403 1365 432 1346 b 558 1285 496 1301 524 1285 b 694 1450 624 1285 692 1342 z "},"ẫ":{"ha":668,"x_min":0,"x_max":0,"o":"m 554 0 l 554 401 b 325 640 554 543 453 640 b 107 581 235 640 172 618 l 115 489 b 325 558 188 540 257 558 b 446 400 390 558 446 503 l 446 340 b 61 157 238 338 61 279 b 219 -15 61 97 99 -15 b 450 50 239 -15 369 -12 l 450 0 z m 446 183 b 399 96 446 157 446 122 b 290 69 358 71 306 69 b 161 160 224 69 161 101 b 446 269 161 257 386 267 z m 550 729 l 375 915 l 292 915 l 117 729 l 199 729 l 333 864 l 468 729 z m 565 1157 l 481 1157 b 426 1076 479 1110 463 1076 b 328 1122 394 1076 365 1096 b 239 1157 301 1140 274 1157 b 103 992 174 1157 106 1100 l 188 992 b 242 1072 189 1039 206 1072 b 340 1026 274 1072 303 1053 b 429 992 367 1008 394 992 b 565 1157 494 992 563 1049 z "},"Ậ":{"ha":926,"x_min":0,"x_max":0,"o":"m 886 0 l 524 964 l 401 964 l 39 0 l 142 0 l 249 283 l 653 283 l 758 0 z m 622 361 l 278 361 b 368 613 349 560 297 414 b 450 864 397 694 440 813 l 451 864 b 496 718 454 844 464 810 z m 679 1022 l 504 1208 l 421 1208 l 246 1022 l 328 1022 l 463 1157 l 597 1022 z m 524 -278 l 524 -154 l 400 -154 l 400 -278 z "},"ậ":{"ha":668,"x_min":0,"x_max":0,"o":"m 554 0 l 554 401 b 325 640 554 543 453 640 b 107 581 235 640 172 618 l 115 489 b 325 558 188 540 257 558 b 446 400 390 558 446 503 l 446 340 b 61 157 238 338 61 279 b 219 -15 61 97 99 -15 b 450 50 239 -15 369 -12 l 450 0 z m 446 183 b 399 96 446 157 446 122 b 290 69 358 71 306 69 b 161 160 224 69 161 101 b 446 269 161 257 386 267 z m 549 729 l 375 968 l 292 968 l 118 729 l 200 729 l 333 900 l 467 729 z m 394 -278 l 394 -154 l 271 -154 l 271 -278 z "},"Ắ":{"ha":926,"x_min":0,"x_max":0,"o":"m 886 0 l 524 964 l 401 964 l 39 0 l 142 0 l 249 283 l 653 283 l 758 0 z m 622 361 l 278 361 b 368 613 349 560 297 414 b 450 864 397 694 440 813 l 451 864 b 496 718 454 844 464 810 z m 697 1283 l 613 1283 b 464 1129 610 1181 531 1129 b 314 1283 393 1129 317 1183 l 229 1283 b 463 1036 232 1135 343 1036 b 697 1283 586 1036 694 1138 z m 663 1501 l 508 1501 l 265 1332 l 389 1332 z "},"ắ":{"ha":668,"x_min":0,"x_max":0,"o":"m 554 0 l 554 401 b 325 640 554 543 453 640 b 107 581 235 640 172 618 l 115 489 b 325 558 188 540 257 558 b 446 400 390 558 446 503 l 446 340 b 61 157 238 338 61 279 b 219 -15 61 97 99 -15 b 450 50 239 -15 369 -12 l 450 0 z m 446 183 b 399 96 446 157 446 122 b 290 69 358 71 306 69 b 161 160 224 69 161 101 b 446 269 161 257 386 267 z m 568 972 l 483 972 b 335 818 481 869 401 818 b 185 972 264 818 188 872 l 100 972 b 333 725 103 824 214 725 b 568 972 457 725 565 826 z m 533 1190 l 379 1190 l 136 1021 l 260 1021 z "},"Ằ":{"ha":926,"x_min":0,"x_max":0,"o":"m 886 0 l 524 964 l 401 964 l 39 0 l 142 0 l 249 283 l 653 283 l 758 0 z m 622 361 l 278 361 b 368 613 349 560 297 414 b 450 864 397 694 440 813 l 451 864 b 496 718 454 844 464 810 z m 697 1283 l 613 1283 b 464 1129 610 1181 531 1129 b 314 1283 393 1129 317 1183 l 229 1283 b 463 1036 232 1135 343 1036 b 697 1283 586 1036 694 1138 z m 663 1332 l 539 1332 l 265 1501 l 419 1501 z "},"ằ":{"ha":668,"x_min":0,"x_max":0,"o":"m 554 0 l 554 401 b 325 640 554 543 453 640 b 107 581 235 640 172 618 l 115 489 b 325 558 188 540 257 558 b 446 400 390 558 446 503 l 446 340 b 61 157 238 338 61 279 b 219 -15 61 97 99 -15 b 450 50 239 -15 369 -12 l 450 0 z m 446 183 b 399 96 446 157 446 122 b 290 69 358 71 306 69 b 161 160 224 69 161 101 b 446 269 161 257 386 267 z m 568 972 l 483 972 b 335 818 481 869 401 818 b 185 972 264 818 188 872 l 100 972 b 333 725 103 824 214 725 b 568 972 457 725 565 826 z m 533 1021 l 410 1021 l 136 1190 l 290 1190 z "},"Ẳ":{"ha":926,"x_min":0,"x_max":0,"o":"m 886 0 l 524 964 l 401 964 l 39 0 l 142 0 l 249 283 l 653 283 l 758 0 z m 622 361 l 278 361 b 368 613 349 560 297 414 b 450 864 397 694 440 813 l 451 864 b 496 718 454 844 464 810 z m 697 1283 l 613 1283 b 464 1129 610 1181 531 1129 b 314 1283 393 1129 317 1183 l 229 1283 b 463 1036 232 1135 343 1036 b 697 1283 586 1036 694 1138 z m 599 1494 b 561 1575 599 1526 586 1557 b 454 1603 533 1596 497 1603 b 329 1543 406 1603 360 1582 l 349 1488 l 350 1488 l 351 1488 b 454 1549 372 1525 411 1549 b 513 1536 481 1549 497 1546 b 529 1494 524 1528 529 1513 b 510 1465 529 1483 521 1472 b 435 1332 463 1440 435 1389 l 435 1306 l 436 1304 l 472 1304 l 474 1306 l 474 1332 b 543 1413 474 1367 497 1385 b 561 1425 551 1418 556 1421 b 599 1494 585 1440 599 1467 z "},"ẳ":{"ha":668,"x_min":0,"x_max":0,"o":"m 554 0 l 554 401 b 325 640 554 543 453 640 b 107 581 235 640 172 618 l 115 489 b 325 558 188 540 257 558 b 446 400 390 558 446 503 l 446 340 b 61 157 238 338 61 279 b 219 -15 61 97 99 -15 b 450 50 239 -15 369 -12 l 450 0 z m 446 183 b 399 96 446 157 446 122 b 290 69 358 71 306 69 b 161 160 224 69 161 101 b 446 269 161 257 386 267 z m 568 972 l 483 972 b 335 818 481 869 401 818 b 185 972 264 818 188 872 l 100 972 b 333 725 103 824 214 725 b 568 972 457 725 565 826 z m 469 1183 b 432 1264 469 1215 457 1246 b 325 1292 404 1285 368 1292 b 200 1232 276 1292 231 1271 l 219 1176 l 221 1176 l 222 1176 b 325 1238 243 1214 282 1238 b 383 1225 351 1238 368 1235 b 400 1183 394 1217 400 1201 b 381 1154 400 1172 392 1161 b 306 1021 333 1129 306 1078 l 306 994 l 307 993 l 343 993 l 344 994 l 344 1021 b 414 1101 344 1056 368 1074 b 432 1114 422 1107 426 1110 b 469 1183 456 1129 469 1156 z "},"Ẵ":{"ha":926,"x_min":0,"x_max":0,"o":"m 886 0 l 524 964 l 401 964 l 39 0 l 142 0 l 249 283 l 653 283 l 758 0 z m 622 361 l 278 361 b 368 613 349 560 297 414 b 450 864 397 694 440 813 l 451 864 b 496 718 454 844 464 810 z m 697 1283 l 613 1283 b 464 1129 610 1181 531 1129 b 314 1283 393 1129 317 1183 l 229 1283 b 463 1036 232 1135 343 1036 b 697 1283 586 1036 694 1138 z m 694 1525 l 610 1525 b 556 1444 608 1478 592 1444 b 457 1490 524 1444 494 1464 b 368 1525 431 1508 403 1525 b 232 1360 303 1525 235 1468 l 317 1360 b 371 1440 318 1407 335 1440 b 469 1394 403 1440 432 1421 b 558 1360 496 1376 524 1360 b 694 1525 624 1360 692 1417 z "},"ẵ":{"ha":668,"x_min":0,"x_max":0,"o":"m 554 0 l 554 401 b 325 640 554 543 453 640 b 107 581 235 640 172 618 l 115 489 b 325 558 188 540 257 558 b 446 400 390 558 446 503 l 446 340 b 61 157 238 338 61 279 b 219 -15 61 97 99 -15 b 450 50 239 -15 369 -12 l 450 0 z m 446 183 b 399 96 446 157 446 122 b 290 69 358 71 306 69 b 161 160 224 69 161 101 b 446 269 161 257 386 267 z m 568 972 l 483 972 b 335 818 481 869 401 818 b 185 972 264 818 188 872 l 100 972 b 333 725 103 824 214 725 b 568 972 457 725 565 826 z m 565 1214 l 481 1214 b 426 1133 479 1167 463 1133 b 328 1179 394 1133 365 1153 b 239 1214 301 1197 274 1214 b 103 1049 174 1214 106 1157 l 188 1049 b 242 1129 189 1096 206 1129 b 340 1083 274 1129 303 1110 b 429 1049 367 1065 394 1049 b 565 1214 494 1049 563 1106 z "},"Ặ":{"ha":926,"x_min":0,"x_max":0,"o":"m 886 0 l 524 964 l 401 964 l 39 0 l 142 0 l 249 283 l 653 283 l 758 0 z m 622 361 l 278 361 b 368 613 349 560 297 414 b 450 864 397 694 440 813 l 451 864 b 496 718 454 844 464 810 z m 697 1283 l 613 1283 b 464 1129 610 1181 531 1129 b 314 1283 393 1129 317 1183 l 229 1283 b 463 1036 232 1135 343 1036 b 697 1283 586 1036 694 1138 z m 524 -278 l 524 -154 l 400 -154 l 400 -278 z "},"ặ":{"ha":668,"x_min":0,"x_max":0,"o":"m 554 0 l 554 401 b 325 640 554 543 453 640 b 107 581 235 640 172 618 l 115 489 b 325 558 188 540 257 558 b 446 400 390 558 446 503 l 446 340 b 61 157 238 338 61 279 b 219 -15 61 97 99 -15 b 450 50 239 -15 369 -12 l 450 0 z m 446 183 b 399 96 446 157 446 122 b 290 69 358 71 306 69 b 161 160 224 69 161 101 b 446 269 161 257 386 267 z m 568 972 l 483 972 b 335 818 481 869 401 818 b 185 972 264 818 188 872 l 100 972 b 333 725 103 824 214 725 b 568 972 457 725 565 826 z m 394 -278 l 394 -154 l 271 -154 l 271 -278 z "},"Ẹ":{"ha":829,"x_min":0,"x_max":0,"o":"m 769 0 l 769 99 l 594 99 b 544 97 578 99 561 97 l 254 97 l 254 457 l 713 457 l 713 542 l 254 542 l 254 871 l 446 871 b 496 869 463 871 479 869 l 750 869 l 750 960 l 131 960 l 131 0 z m 476 -278 l 476 -154 l 353 -154 l 353 -278 z "},"ẹ":{"ha":617,"x_min":0,"x_max":0,"o":"m 575 304 b 519 539 575 351 574 456 b 328 640 463 625 378 640 b 49 314 174 640 49 493 b 349 -15 49 131 182 -15 b 569 57 436 -15 515 18 l 561 147 b 350 69 474 75 382 69 b 146 304 239 69 150 168 z m 496 381 l 153 381 b 328 556 175 486 249 556 b 496 381 400 556 478 508 z m 369 -278 l 369 -154 l 246 -154 l 246 -278 z "},"Ẻ":{"ha":829,"x_min":0,"x_max":0,"o":"m 769 0 l 769 99 l 594 99 b 544 97 578 99 561 97 l 254 97 l 254 457 l 713 457 l 713 542 l 254 542 l 254 871 l 446 871 b 496 869 463 871 479 869 l 750 869 l 750 960 l 131 960 l 131 0 z m 550 1213 b 513 1293 550 1244 538 1275 b 406 1321 485 1314 449 1321 b 281 1261 357 1321 311 1300 l 300 1206 l 301 1206 l 303 1206 b 406 1267 324 1243 363 1267 b 464 1254 432 1267 449 1264 b 481 1213 475 1246 481 1231 b 461 1183 481 1201 472 1190 b 386 1050 414 1158 386 1107 l 386 1024 l 388 1022 l 424 1022 l 425 1024 l 425 1050 b 494 1131 425 1085 449 1103 b 513 1143 503 1136 507 1139 b 550 1213 536 1158 550 1185 z "},"ẻ":{"ha":617,"x_min":0,"x_max":0,"o":"m 575 304 b 519 539 575 351 574 456 b 328 640 463 625 378 640 b 49 314 174 640 49 493 b 349 -15 49 131 182 -15 b 569 57 436 -15 515 18 l 561 147 b 350 69 474 75 382 69 b 146 304 239 69 150 168 z m 496 381 l 153 381 b 328 556 175 486 249 556 b 496 381 400 556 478 508 z m 443 889 b 406 969 443 921 431 951 b 299 997 378 990 342 997 b 174 938 250 997 204 976 l 193 882 l 194 882 l 196 882 b 299 943 217 919 256 943 b 357 931 325 943 342 940 b 374 889 368 922 374 907 b 354 860 374 878 365 867 b 279 726 307 835 279 783 l 279 700 l 281 699 l 317 699 l 318 700 l 318 726 b 388 807 318 761 342 779 b 406 819 396 813 400 815 b 443 889 429 835 443 861 z "},"Ẽ":{"ha":829,"x_min":0,"x_max":0,"o":"m 769 0 l 769 99 l 594 99 b 544 97 578 99 561 97 l 254 97 l 254 457 l 713 457 l 713 542 l 254 542 l 254 871 l 446 871 b 496 869 463 871 479 869 l 750 869 l 750 960 l 131 960 l 131 0 z m 647 1188 l 563 1188 b 508 1107 561 1140 544 1107 b 410 1153 476 1107 447 1126 b 321 1188 383 1171 356 1188 b 185 1022 256 1188 188 1131 l 269 1022 b 324 1103 271 1069 288 1103 b 422 1057 356 1103 385 1083 b 511 1022 449 1039 476 1022 b 647 1188 576 1022 644 1079 z "},"ẽ":{"ha":617,"x_min":0,"x_max":0,"o":"m 575 304 b 519 539 575 351 574 456 b 328 640 463 625 378 640 b 49 314 174 640 49 493 b 349 -15 49 131 182 -15 b 569 57 436 -15 515 18 l 561 147 b 350 69 474 75 382 69 b 146 304 239 69 150 168 z m 496 381 l 153 381 b 328 556 175 486 249 556 b 496 381 400 556 478 508 z m 540 931 l 456 931 b 401 850 454 883 438 850 b 303 896 369 850 340 869 b 214 931 276 914 249 931 b 78 765 149 931 81 874 l 163 765 b 217 846 164 813 181 846 b 315 800 249 846 278 826 b 404 765 342 782 369 765 b 540 931 469 765 538 822 z "},"Ế":{"ha":829,"x_min":0,"x_max":0,"o":"m 769 0 l 769 99 l 594 99 b 544 97 578 99 561 97 l 254 97 l 254 457 l 713 457 l 713 542 l 254 542 l 254 871 l 446 871 b 496 869 463 871 479 869 l 750 869 l 750 960 l 131 960 l 131 0 z m 632 1022 l 457 1208 l 374 1208 l 199 1022 l 281 1022 l 415 1157 l 550 1022 z m 614 1426 l 460 1426 l 217 1257 l 340 1257 z "},"ế":{"ha":617,"x_min":0,"x_max":0,"o":"m 575 304 b 519 539 575 351 574 456 b 328 640 463 625 378 640 b 49 314 174 640 49 493 b 349 -15 49 131 182 -15 b 569 57 436 -15 515 18 l 561 147 b 350 69 474 75 382 69 b 146 304 239 69 150 168 z m 496 381 l 153 381 b 328 556 175 486 249 556 b 496 381 400 556 478 508 z m 525 729 l 350 915 l 267 915 l 92 729 l 174 729 l 308 864 l 443 729 z m 507 1133 l 353 1133 l 110 964 l 233 964 z "},"Ề":{"ha":829,"x_min":0,"x_max":0,"o":"m 769 0 l 769 99 l 594 99 b 544 97 578 99 561 97 l 254 97 l 254 457 l 713 457 l 713 542 l 254 542 l 254 871 l 446 871 b 496 869 463 871 479 869 l 750 869 l 750 960 l 131 960 l 131 0 z m 632 1022 l 457 1208 l 374 1208 l 199 1022 l 281 1022 l 415 1157 l 550 1022 z m 614 1257 l 490 1257 l 217 1426 l 371 1426 z "},"ề":{"ha":617,"x_min":0,"x_max":0,"o":"m 575 304 b 519 539 575 351 574 456 b 328 640 463 625 378 640 b 49 314 174 640 49 493 b 349 -15 49 131 182 -15 b 569 57 436 -15 515 18 l 561 147 b 350 69 474 75 382 69 b 146 304 239 69 150 168 z m 496 381 l 153 381 b 328 556 175 486 249 556 b 496 381 400 556 478 508 z m 525 729 l 350 915 l 267 915 l 92 729 l 174 729 l 308 864 l 443 729 z m 507 964 l 383 964 l 110 1133 l 264 1133 z "},"Ể":{"ha":829,"x_min":0,"x_max":0,"o":"m 769 0 l 769 99 l 594 99 b 544 97 578 99 561 97 l 254 97 l 254 457 l 713 457 l 713 542 l 254 542 l 254 871 l 446 871 b 496 869 463 871 479 869 l 750 869 l 750 960 l 131 960 l 131 0 z m 632 1022 l 457 1208 l 374 1208 l 199 1022 l 281 1022 l 415 1157 l 550 1022 z m 685 1419 b 647 1500 685 1451 672 1482 b 540 1528 619 1521 583 1528 b 415 1468 492 1528 446 1507 l 435 1413 l 436 1413 l 438 1413 b 540 1474 458 1450 497 1474 b 599 1461 567 1474 583 1471 b 615 1419 610 1453 615 1438 b 596 1390 615 1408 607 1397 b 521 1257 549 1365 521 1314 l 521 1231 l 522 1229 l 558 1229 l 560 1231 l 560 1257 b 629 1338 560 1292 583 1310 b 647 1350 638 1343 642 1346 b 685 1419 671 1365 685 1392 z "},"ể":{"ha":617,"x_min":0,"x_max":0,"o":"m 575 304 b 519 539 575 351 574 456 b 328 640 463 625 378 640 b 49 314 174 640 49 493 b 349 -15 49 131 182 -15 b 569 57 436 -15 515 18 l 561 147 b 350 69 474 75 382 69 b 146 304 239 69 150 168 z m 496 381 l 153 381 b 328 556 175 486 249 556 b 496 381 400 556 478 508 z m 525 729 l 350 915 l 267 915 l 92 729 l 174 729 l 308 864 l 443 729 z m 578 1126 b 540 1207 578 1158 565 1189 b 433 1235 513 1228 476 1235 b 308 1175 385 1235 339 1214 l 328 1119 l 329 1119 l 331 1119 b 433 1181 351 1157 390 1181 b 492 1168 460 1181 476 1178 b 508 1126 503 1160 508 1144 b 489 1097 508 1115 500 1104 b 414 964 442 1072 414 1021 l 414 938 l 415 936 l 451 936 l 453 938 l 453 964 b 522 1044 453 999 476 1017 b 540 1057 531 1050 535 1053 b 578 1126 564 1072 578 1099 z "},"Ễ":{"ha":829,"x_min":0,"x_max":0,"o":"m 769 0 l 769 99 l 594 99 b 544 97 578 99 561 97 l 254 97 l 254 457 l 713 457 l 713 542 l 254 542 l 254 871 l 446 871 b 496 869 463 871 479 869 l 750 869 l 750 960 l 131 960 l 131 0 z m 632 1022 l 457 1208 l 374 1208 l 199 1022 l 281 1022 l 415 1157 l 550 1022 z m 647 1450 l 563 1450 b 508 1369 561 1403 544 1369 b 410 1415 476 1369 447 1389 b 321 1450 383 1433 356 1450 b 185 1285 256 1450 188 1393 l 269 1285 b 324 1365 271 1332 288 1365 b 422 1319 356 1365 385 1346 b 511 1285 449 1301 476 1285 b 647 1450 576 1285 644 1342 z "},"ễ":{"ha":617,"x_min":0,"x_max":0,"o":"m 575 304 b 519 539 575 351 574 456 b 328 640 463 625 378 640 b 49 314 174 640 49 493 b 349 -15 49 131 182 -15 b 569 57 436 -15 515 18 l 561 147 b 350 69 474 75 382 69 b 146 304 239 69 150 168 z m 496 381 l 153 381 b 328 556 175 486 249 556 b 496 381 400 556 478 508 z m 525 729 l 350 915 l 267 915 l 92 729 l 174 729 l 308 864 l 443 729 z m 540 1157 l 456 1157 b 401 1076 454 1110 438 1076 b 303 1122 369 1076 340 1096 b 214 1157 276 1140 249 1157 b 78 992 149 1157 81 1100 l 163 992 b 217 1072 164 1039 181 1072 b 315 1026 249 1072 278 1053 b 404 992 342 1008 369 992 b 540 1157 469 992 538 1049 z "},"Ệ":{"ha":829,"x_min":0,"x_max":0,"o":"m 769 0 l 769 99 l 594 99 b 544 97 578 99 561 97 l 254 97 l 254 457 l 713 457 l 713 542 l 254 542 l 254 871 l 446 871 b 496 869 463 871 479 869 l 750 869 l 750 960 l 131 960 l 131 0 z m 632 1022 l 457 1208 l 374 1208 l 199 1022 l 281 1022 l 415 1157 l 550 1022 z m 476 -278 l 476 -154 l 353 -154 l 353 -278 z "},"ệ":{"ha":617,"x_min":0,"x_max":0,"o":"m 575 304 b 519 539 575 351 574 456 b 328 640 463 625 378 640 b 49 314 174 640 49 493 b 349 -15 49 131 182 -15 b 569 57 436 -15 515 18 l 561 147 b 350 69 474 75 382 69 b 146 304 239 69 150 168 z m 496 381 l 153 381 b 328 556 175 486 249 556 b 496 381 400 556 478 508 z m 524 729 l 350 968 l 267 968 l 93 729 l 175 729 l 308 900 l 442 729 z m 369 -278 l 369 -154 l 246 -154 l 246 -278 z "},"Ỉ":{"ha":386,"x_min":0,"x_max":0,"o":"m 254 0 l 254 964 l 131 964 l 131 0 z m 328 1213 b 290 1293 328 1244 315 1275 b 183 1321 263 1314 226 1321 b 58 1261 135 1321 89 1300 l 78 1206 l 79 1206 l 81 1206 b 183 1267 101 1243 140 1267 b 242 1254 210 1267 226 1264 b 258 1213 253 1246 258 1231 b 239 1183 258 1201 250 1190 b 164 1050 192 1158 164 1107 l 164 1024 l 165 1022 l 201 1022 l 203 1024 l 203 1050 b 272 1131 203 1085 226 1103 b 290 1143 281 1136 285 1139 b 328 1213 314 1158 328 1185 z "},"ỉ":{"ha":332,"x_min":0,"x_max":0,"o":"m 217 0 l 217 617 l 113 617 l 113 0 z m 300 889 b 263 969 300 921 288 951 b 156 997 235 990 199 997 b 31 938 107 997 61 976 l 50 882 l 51 882 l 53 882 b 156 943 74 919 113 943 b 214 931 182 943 199 940 b 231 889 225 922 231 907 b 211 860 231 878 222 867 b 136 726 164 835 136 783 l 136 700 l 138 699 l 174 699 l 175 700 l 175 726 b 244 807 175 761 199 779 b 263 819 253 813 257 815 b 300 889 286 835 300 861 z "},"Ị":{"ha":386,"x_min":0,"x_max":0,"o":"m 254 0 l 254 964 l 131 964 l 131 0 z m 254 -278 l 254 -154 l 131 -154 l 131 -278 z "},"ị":{"ha":332,"x_min":0,"x_max":0,"o":"m 217 0 l 217 617 l 113 617 l 113 0 z m 228 786 l 228 910 l 104 910 l 104 786 z m 228 -278 l 228 -154 l 104 -154 l 104 -278 z "},"Ọ":{"ha":1022,"x_min":0,"x_max":0,"o":"m 943 479 b 511 994 943 771 742 994 b 78 479 275 994 78 768 b 510 -31 78 185 283 -31 b 943 479 742 -31 943 188 z m 819 500 b 511 60 819 229 669 60 b 201 500 347 60 201 233 b 510 906 201 754 354 906 b 819 500 671 906 819 749 z m 572 -278 l 572 -154 l 449 -154 l 449 -278 z "},"ọ":{"ha":694,"x_min":0,"x_max":0,"o":"m 651 306 b 347 640 651 492 513 640 b 42 306 176 640 42 488 b 346 -15 42 122 183 -15 b 651 306 513 -15 651 125 z m 543 319 b 346 74 543 156 449 74 b 150 319 250 74 150 151 b 346 556 150 488 256 556 b 543 319 443 556 543 483 z m 408 -278 l 408 -154 l 285 -154 l 285 -278 z "},"Ỏ":{"ha":1022,"x_min":0,"x_max":0,"o":"m 943 479 b 511 994 943 771 742 994 b 78 479 275 994 78 768 b 510 -31 78 185 283 -31 b 943 479 742 -31 943 188 z m 819 500 b 511 60 819 229 669 60 b 201 500 347 60 201 233 b 510 906 201 754 354 906 b 819 500 671 906 819 749 z m 646 1213 b 608 1293 646 1244 633 1275 b 501 1321 581 1314 544 1321 b 376 1261 453 1321 407 1300 l 396 1206 l 397 1206 l 399 1206 b 501 1267 419 1243 458 1267 b 560 1254 528 1267 544 1264 b 576 1213 571 1246 576 1231 b 557 1183 576 1201 568 1190 b 482 1050 510 1158 482 1107 l 482 1024 l 483 1022 l 519 1022 l 521 1024 l 521 1050 b 590 1131 521 1085 544 1103 b 608 1143 599 1136 603 1139 b 646 1213 632 1158 646 1185 z "},"ỏ":{"ha":694,"x_min":0,"x_max":0,"o":"m 651 306 b 347 640 651 492 513 640 b 42 306 176 640 42 488 b 346 -15 42 122 183 -15 b 651 306 513 -15 651 125 z m 543 319 b 346 74 543 156 449 74 b 150 319 250 74 150 151 b 346 556 150 488 256 556 b 543 319 443 556 543 483 z m 482 889 b 444 969 482 921 469 951 b 338 997 417 990 381 997 b 213 938 289 997 243 976 l 232 882 l 233 882 l 235 882 b 338 943 256 919 294 943 b 396 931 364 943 381 940 b 413 889 407 922 413 907 b 393 860 413 878 404 867 b 318 726 346 835 318 783 l 318 700 l 319 699 l 356 699 l 357 700 l 357 726 b 426 807 357 761 381 779 b 444 819 435 813 439 815 b 482 889 468 835 482 861 z "},"Ố":{"ha":1022,"x_min":0,"x_max":0,"o":"m 943 479 b 511 994 943 771 742 994 b 78 479 275 994 78 768 b 510 -31 78 185 283 -31 b 943 479 742 -31 943 188 z m 819 500 b 511 60 819 229 669 60 b 201 500 347 60 201 233 b 510 906 201 754 354 906 b 819 500 671 906 819 749 z m 728 1022 l 553 1208 l 469 1208 l 294 1022 l 376 1022 l 511 1157 l 646 1022 z m 710 1426 l 556 1426 l 313 1257 l 436 1257 z "},"ố":{"ha":694,"x_min":0,"x_max":0,"o":"m 651 306 b 347 640 651 492 513 640 b 42 306 176 640 42 488 b 346 -15 42 122 183 -15 b 651 306 513 -15 651 125 z m 543 319 b 346 74 543 156 449 74 b 150 319 250 74 150 151 b 346 556 150 488 256 556 b 543 319 443 556 543 483 z m 564 729 l 389 915 l 306 915 l 131 729 l 213 729 l 347 864 l 482 729 z m 546 1133 l 392 1133 l 149 964 l 272 964 z "},"Ồ":{"ha":1022,"x_min":0,"x_max":0,"o":"m 943 479 b 511 994 943 771 742 994 b 78 479 275 994 78 768 b 510 -31 78 185 283 -31 b 943 479 742 -31 943 188 z m 819 500 b 511 60 819 229 669 60 b 201 500 347 60 201 233 b 510 906 201 754 354 906 b 819 500 671 906 819 749 z m 728 1022 l 553 1208 l 469 1208 l 294 1022 l 376 1022 l 511 1157 l 646 1022 z m 710 1257 l 586 1257 l 313 1426 l 467 1426 z "},"ồ":{"ha":694,"x_min":0,"x_max":0,"o":"m 651 306 b 347 640 651 492 513 640 b 42 306 176 640 42 488 b 346 -15 42 122 183 -15 b 651 306 513 -15 651 125 z m 543 319 b 346 74 543 156 449 74 b 150 319 250 74 150 151 b 346 556 150 488 256 556 b 543 319 443 556 543 483 z m 564 729 l 389 915 l 306 915 l 131 729 l 213 729 l 347 864 l 482 729 z m 546 964 l 422 964 l 149 1133 l 303 1133 z "},"Ổ":{"ha":1022,"x_min":0,"x_max":0,"o":"m 943 479 b 511 994 943 771 742 994 b 78 479 275 994 78 768 b 510 -31 78 185 283 -31 b 943 479 742 -31 943 188 z m 819 500 b 511 60 819 229 669 60 b 201 500 347 60 201 233 b 510 906 201 754 354 906 b 819 500 671 906 819 749 z m 728 1022 l 553 1208 l 469 1208 l 294 1022 l 376 1022 l 511 1157 l 646 1022 z m 781 1419 b 743 1500 781 1451 768 1482 b 636 1528 715 1521 679 1528 b 511 1468 588 1528 542 1507 l 531 1413 l 532 1413 l 533 1413 b 636 1474 554 1450 593 1474 b 694 1461 663 1474 679 1471 b 711 1419 706 1453 711 1438 b 692 1390 711 1408 703 1397 b 617 1257 644 1365 617 1314 l 617 1231 l 618 1229 l 654 1229 l 656 1231 l 656 1257 b 725 1338 656 1292 679 1310 b 743 1350 733 1343 738 1346 b 781 1419 767 1365 781 1392 z "},"ổ":{"ha":694,"x_min":0,"x_max":0,"o":"m 651 306 b 347 640 651 492 513 640 b 42 306 176 640 42 488 b 346 -15 42 122 183 -15 b 651 306 513 -15 651 125 z m 543 319 b 346 74 543 156 449 74 b 150 319 250 74 150 151 b 346 556 150 488 256 556 b 543 319 443 556 543 483 z m 564 729 l 389 915 l 306 915 l 131 729 l 213 729 l 347 864 l 482 729 z m 617 1126 b 579 1207 617 1158 604 1189 b 472 1235 551 1228 515 1235 b 347 1175 424 1235 378 1214 l 367 1119 l 368 1119 l 369 1119 b 472 1181 390 1157 429 1181 b 531 1168 499 1181 515 1178 b 547 1126 542 1160 547 1144 b 528 1097 547 1115 539 1104 b 453 964 481 1072 453 1021 l 453 938 l 454 936 l 490 936 l 492 938 l 492 964 b 561 1044 492 999 515 1017 b 579 1057 569 1050 574 1053 b 617 1126 603 1072 617 1099 z "},"Ỗ":{"ha":1022,"x_min":0,"x_max":0,"o":"m 943 479 b 511 994 943 771 742 994 b 78 479 275 994 78 768 b 510 -31 78 185 283 -31 b 943 479 742 -31 943 188 z m 819 500 b 511 60 819 229 669 60 b 201 500 347 60 201 233 b 510 906 201 754 354 906 b 819 500 671 906 819 749 z m 728 1022 l 553 1208 l 469 1208 l 294 1022 l 376 1022 l 511 1157 l 646 1022 z m 743 1450 l 658 1450 b 604 1369 657 1403 640 1369 b 506 1415 572 1369 543 1389 b 417 1450 479 1433 451 1450 b 281 1285 351 1450 283 1393 l 365 1285 b 419 1365 367 1332 383 1365 b 518 1319 451 1365 481 1346 b 607 1285 544 1301 572 1285 b 743 1450 672 1285 740 1342 z "},"ỗ":{"ha":694,"x_min":0,"x_max":0,"o":"m 651 306 b 347 640 651 492 513 640 b 42 306 176 640 42 488 b 346 -15 42 122 183 -15 b 651 306 513 -15 651 125 z m 543 319 b 346 74 543 156 449 74 b 150 319 250 74 150 151 b 346 556 150 488 256 556 b 543 319 443 556 543 483 z m 564 729 l 389 915 l 306 915 l 131 729 l 213 729 l 347 864 l 482 729 z m 579 1157 l 494 1157 b 440 1076 493 1110 476 1076 b 342 1122 408 1076 379 1096 b 253 1157 315 1140 288 1157 b 117 992 188 1157 119 1100 l 201 992 b 256 1072 203 1039 219 1072 b 354 1026 288 1072 317 1053 b 443 992 381 1008 408 992 b 579 1157 508 992 576 1049 z "},"Ộ":{"ha":1022,"x_min":0,"x_max":0,"o":"m 943 479 b 511 994 943 771 742 994 b 78 479 275 994 78 768 b 510 -31 78 185 283 -31 b 943 479 742 -31 943 188 z m 819 500 b 511 60 819 229 669 60 b 201 500 347 60 201 233 b 510 906 201 754 354 906 b 819 500 671 906 819 749 z m 728 1022 l 553 1208 l 469 1208 l 294 1022 l 376 1022 l 511 1157 l 646 1022 z m 572 -278 l 572 -154 l 449 -154 l 449 -278 z "},"ộ":{"ha":694,"x_min":0,"x_max":0,"o":"m 651 306 b 347 640 651 492 513 640 b 42 306 176 640 42 488 b 346 -15 42 122 183 -15 b 651 306 513 -15 651 125 z m 543 319 b 346 74 543 156 449 74 b 150 319 250 74 150 151 b 346 556 150 488 256 556 b 543 319 443 556 543 483 z m 563 729 l 389 968 l 306 968 l 132 729 l 214 729 l 347 900 l 481 729 z m 408 -278 l 408 -154 l 285 -154 l 285 -278 z "},"Ớ":{"ha":1022,"x_min":0,"x_max":0,"o":"m 943 478 b 815 843 943 611 901 742 b 764 896 800 863 782 881 l 851 964 l 853 965 l 853 1079 l 851 1081 l 739 1081 l 736 1079 l 736 965 l 739 964 l 769 964 l 726 925 b 510 994 663 969 588 994 b 204 843 390 994 281 935 b 76 478 118 742 76 611 b 204 118 76 347 118 218 b 510 -31 281 28 390 -31 b 815 118 629 -31 739 28 b 943 478 900 218 943 347 z m 819 501 b 731 188 819 390 794 279 b 510 60 679 114 600 60 b 289 188 419 60 340 114 b 200 501 225 279 200 390 b 289 789 200 604 226 707 b 510 907 342 860 422 907 b 731 789 597 907 678 860 b 819 501 793 707 819 604 z m 738 1206 l 583 1206 l 340 1036 l 464 1036 z "},"ớ":{"ha":694,"x_min":0,"x_max":0,"o":"m 653 618 l 653 732 l 651 733 l 539 733 l 538 732 l 538 618 l 539 617 l 569 617 l 524 576 b 346 640 474 617 411 640 b 131 542 264 640 186 603 b 42 304 72 478 42 392 b 131 78 42 221 74 139 b 346 -15 188 19 264 -15 b 561 78 428 -15 504 19 b 650 304 618 139 650 221 b 561 542 650 392 619 478 l 558 544 z m 542 321 b 488 143 542 257 528 193 b 346 74 454 99 401 74 b 204 143 290 74 238 99 b 150 321 164 193 150 257 b 204 489 150 382 165 443 b 346 556 239 532 290 556 b 488 489 400 556 453 532 b 542 321 526 443 542 382 z m 504 964 l 396 964 l 211 732 l 296 732 z "},"Ờ":{"ha":1022,"x_min":0,"x_max":0,"o":"m 943 478 b 815 843 943 611 901 742 b 764 896 800 863 782 881 l 851 964 l 853 965 l 853 1079 l 851 1081 l 739 1081 l 736 1079 l 736 965 l 739 964 l 769 964 l 726 925 b 510 994 663 969 588 994 b 204 843 390 994 281 935 b 76 478 118 742 76 611 b 204 118 76 347 118 218 b 510 -31 281 28 390 -31 b 815 118 629 -31 739 28 b 943 478 900 218 943 347 z m 819 501 b 731 188 819 390 794 279 b 510 60 679 114 600 60 b 289 188 419 60 340 114 b 200 501 225 279 200 390 b 289 789 200 604 226 707 b 510 907 342 860 422 907 b 731 789 597 907 678 860 b 819 501 793 707 819 604 z m 643 1036 l 400 1206 l 246 1206 l 519 1036 z "},"ờ":{"ha":694,"x_min":0,"x_max":0,"o":"m 653 618 l 653 732 l 651 733 l 539 733 l 538 732 l 538 618 l 539 617 l 569 617 l 524 576 b 346 640 474 617 411 640 b 131 542 264 640 186 603 b 42 304 72 478 42 392 b 131 78 42 221 74 139 b 346 -15 188 19 264 -15 b 561 78 428 -15 504 19 b 650 304 618 139 650 221 b 561 542 650 392 619 478 l 558 544 z m 542 321 b 488 143 542 257 528 193 b 346 74 454 99 401 74 b 204 143 290 74 238 99 b 150 321 164 193 150 257 b 204 489 150 382 165 443 b 346 556 239 532 290 556 b 488 489 400 556 453 532 b 542 321 526 443 542 382 z m 444 732 l 260 964 l 151 964 l 360 732 z "},"Ở":{"ha":1022,"x_min":0,"x_max":0,"o":"m 943 478 b 815 843 943 611 901 742 b 764 896 800 863 782 881 l 851 964 l 853 965 l 853 1079 l 851 1081 l 739 1081 l 736 1079 l 736 965 l 739 964 l 769 964 l 726 925 b 510 994 663 969 588 994 b 204 843 390 994 281 935 b 76 478 118 742 76 611 b 204 118 76 347 118 218 b 510 -31 281 28 390 -31 b 815 118 629 -31 739 28 b 943 478 900 218 943 347 z m 819 501 b 731 188 819 390 794 279 b 510 60 679 114 600 60 b 289 188 419 60 340 114 b 200 501 225 279 200 390 b 289 789 200 604 226 707 b 510 907 342 860 422 907 b 731 789 597 907 678 860 b 819 501 793 707 819 604 z m 646 1213 b 608 1293 646 1244 633 1275 b 501 1321 581 1314 544 1321 b 376 1261 453 1321 407 1300 l 396 1206 l 397 1206 l 399 1206 b 501 1267 419 1243 458 1267 b 560 1254 528 1267 544 1264 b 576 1213 571 1246 576 1231 b 557 1183 576 1201 568 1190 b 482 1050 510 1158 482 1107 l 482 1024 l 483 1022 l 519 1022 l 521 1024 l 521 1050 b 590 1131 521 1085 544 1103 b 608 1143 599 1136 603 1139 b 646 1213 632 1158 646 1185 z "},"ở":{"ha":694,"x_min":0,"x_max":0,"o":"m 653 618 l 653 732 l 651 733 l 539 733 l 538 732 l 538 618 l 539 617 l 569 617 l 524 576 b 346 640 474 617 411 640 b 131 542 264 640 186 603 b 42 304 72 478 42 392 b 131 78 42 221 74 139 b 346 -15 188 19 264 -15 b 561 78 428 -15 504 19 b 650 304 618 139 650 221 b 561 542 650 392 619 478 l 558 544 z m 542 321 b 488 143 542 257 528 193 b 346 74 454 99 401 74 b 204 143 290 74 238 99 b 150 321 164 193 150 257 b 204 489 150 382 165 443 b 346 556 239 532 290 556 b 488 489 400 556 453 532 b 542 321 526 443 542 382 z m 482 889 b 444 969 482 921 469 951 b 338 997 417 990 381 997 b 213 938 289 997 243 976 l 232 882 l 233 882 l 235 882 b 338 943 256 919 294 943 b 396 931 364 943 381 940 b 413 889 407 922 413 907 b 393 860 413 878 404 867 b 318 726 346 835 318 783 l 318 700 l 319 699 l 356 699 l 357 700 l 357 726 b 426 807 357 761 381 779 b 444 819 435 813 439 815 b 482 889 468 835 482 861 z "},"Ỡ":{"ha":1022,"x_min":0,"x_max":0,"o":"m 943 478 b 815 843 943 611 901 742 b 764 896 800 863 782 881 l 851 964 l 853 965 l 853 1079 l 851 1081 l 739 1081 l 736 1079 l 736 965 l 739 964 l 769 964 l 726 925 b 510 994 663 969 588 994 b 204 843 390 994 281 935 b 76 478 118 742 76 611 b 204 118 76 347 118 218 b 510 -31 281 28 390 -31 b 815 118 629 -31 739 28 b 943 478 900 218 943 347 z m 819 501 b 731 188 819 390 794 279 b 510 60 679 114 600 60 b 289 188 419 60 340 114 b 200 501 225 279 200 390 b 289 789 200 604 226 707 b 510 907 342 860 422 907 b 731 789 597 907 678 860 b 819 501 793 707 819 604 z m 743 1188 l 658 1188 b 604 1107 657 1140 640 1107 b 506 1153 572 1107 543 1126 b 417 1188 479 1171 451 1188 b 281 1022 351 1188 283 1131 l 365 1022 b 419 1103 367 1069 383 1103 b 518 1057 451 1103 481 1083 b 607 1022 544 1039 572 1022 b 743 1188 672 1022 740 1079 z "},"ỡ":{"ha":694,"x_min":0,"x_max":0,"o":"m 653 618 l 653 732 l 651 733 l 539 733 l 538 732 l 538 618 l 539 617 l 569 617 l 524 576 b 346 640 474 617 411 640 b 131 542 264 640 186 603 b 42 304 72 478 42 392 b 131 78 42 221 74 139 b 346 -15 188 19 264 -15 b 561 78 428 -15 504 19 b 650 304 618 139 650 221 b 561 542 650 392 619 478 l 558 544 z m 542 321 b 488 143 542 257 528 193 b 346 74 454 99 401 74 b 204 143 290 74 238 99 b 150 321 164 193 150 257 b 204 489 150 382 165 443 b 346 556 239 532 290 556 b 488 489 400 556 453 532 b 542 321 526 443 542 382 z m 579 931 l 494 931 b 440 850 493 883 476 850 b 342 896 408 850 379 869 b 253 931 315 914 288 931 b 117 765 188 931 119 874 l 201 765 b 256 846 203 813 219 846 b 354 800 288 846 317 826 b 443 765 381 782 408 765 b 579 931 508 765 576 822 z "},"Ợ":{"ha":1022,"x_min":0,"x_max":0,"o":"m 943 478 b 815 843 943 611 901 742 b 764 896 800 863 782 881 l 851 964 l 853 965 l 853 1079 l 851 1081 l 739 1081 l 736 1079 l 736 965 l 739 964 l 769 964 l 726 925 b 510 994 663 969 588 994 b 204 843 390 994 281 935 b 76 478 118 742 76 611 b 204 118 76 347 118 218 b 510 -31 281 28 390 -31 b 815 118 629 -31 739 28 b 943 478 900 218 943 347 z m 819 501 b 731 188 819 390 794 279 b 510 60 679 114 600 60 b 289 188 419 60 340 114 b 200 501 225 279 200 390 b 289 789 200 604 226 707 b 510 907 342 860 422 907 b 731 789 597 907 678 860 b 819 501 793 707 819 604 z m 572 -278 l 572 -154 l 449 -154 l 449 -278 z "},"ợ":{"ha":694,"x_min":0,"x_max":0,"o":"m 653 618 l 653 732 l 651 733 l 539 733 l 538 732 l 538 618 l 539 617 l 569 617 l 524 576 b 346 640 474 617 411 640 b 131 542 264 640 186 603 b 42 304 72 478 42 392 b 131 78 42 221 74 139 b 346 -15 188 19 264 -15 b 561 78 428 -15 504 19 b 650 304 618 139 650 221 b 561 542 650 392 619 478 l 558 544 z m 542 321 b 488 143 542 257 528 193 b 346 74 454 99 401 74 b 204 143 290 74 238 99 b 150 321 164 193 150 257 b 204 489 150 382 165 443 b 346 556 239 532 290 556 b 488 489 400 556 453 532 b 542 321 526 443 542 382 z m 408 -278 l 408 -154 l 285 -154 l 285 -278 z "},"Ụ":{"ha":956,"x_min":0,"x_max":0,"o":"m 824 324 l 824 964 l 715 964 l 715 322 b 482 47 715 139 599 47 b 254 322 368 47 254 135 l 254 964 l 131 964 l 131 324 b 481 -31 131 121 293 -31 b 824 324 667 -31 824 122 z m 539 -278 l 539 -154 l 415 -154 l 415 -278 z "},"ụ":{"ha":718,"x_min":0,"x_max":0,"o":"m 604 0 l 604 617 l 496 617 l 496 214 b 329 61 496 110 418 61 b 221 157 231 61 221 97 l 221 617 l 113 617 l 113 151 b 260 -15 113 51 144 -15 b 500 67 333 -15 432 7 l 500 0 z m 419 -278 l 419 -154 l 296 -154 l 296 -278 z "},"Ủ":{"ha":956,"x_min":0,"x_max":0,"o":"m 824 324 l 824 964 l 715 964 l 715 322 b 482 47 715 139 599 47 b 254 322 368 47 254 135 l 254 964 l 131 964 l 131 324 b 481 -31 131 121 293 -31 b 824 324 667 -31 824 122 z m 613 1213 b 575 1293 613 1244 600 1275 b 468 1321 547 1314 511 1321 b 343 1261 419 1321 374 1300 l 363 1206 l 364 1206 l 365 1206 b 468 1267 386 1243 425 1267 b 526 1254 494 1267 511 1264 b 543 1213 538 1246 543 1231 b 524 1183 543 1201 535 1190 b 449 1050 476 1158 449 1107 l 449 1024 l 450 1022 l 486 1022 l 488 1024 l 488 1050 b 557 1131 488 1085 511 1103 b 575 1143 565 1136 569 1139 b 613 1213 599 1158 613 1185 z "},"ủ":{"ha":718,"x_min":0,"x_max":0,"o":"m 604 0 l 604 617 l 496 617 l 496 214 b 329 61 496 110 418 61 b 221 157 231 61 221 97 l 221 617 l 113 617 l 113 151 b 260 -15 113 51 144 -15 b 500 67 333 -15 432 7 l 500 0 z m 493 889 b 456 969 493 921 481 951 b 349 997 428 990 392 997 b 224 938 300 997 254 976 l 243 882 l 244 882 l 246 882 b 349 943 267 919 306 943 b 407 931 375 943 392 940 b 424 889 418 922 424 907 b 404 860 424 878 415 867 b 329 726 357 835 329 783 l 329 700 l 331 699 l 367 699 l 368 700 l 368 726 b 438 807 368 761 392 779 b 456 819 446 813 450 815 b 493 889 479 835 493 861 z "},"Ứ":{"ha":954,"x_min":0,"x_max":0,"o":"m 958 964 l 958 965 l 958 1079 l 957 1081 l 844 1081 l 843 1079 l 843 965 l 844 964 l 875 964 l 821 919 l 821 964 l 714 964 l 714 321 b 649 124 714 250 694 179 b 479 46 607 75 544 46 b 315 124 417 46 356 75 b 254 321 271 179 254 250 l 254 964 l 131 964 l 131 321 b 233 72 131 228 167 139 b 479 -31 299 7 388 -31 b 721 72 571 -31 658 7 b 821 321 786 139 821 229 l 821 864 z m 704 1206 l 550 1206 l 307 1036 l 431 1036 z "},"ứ":{"ha":756,"x_min":0,"x_max":0,"o":"m 742 618 l 742 732 l 740 733 l 626 733 l 625 732 l 625 618 l 626 617 l 658 617 l 604 572 l 604 617 l 496 617 l 496 203 b 338 61 496 124 424 61 b 243 81 292 61 265 64 b 219 153 224 96 219 119 l 219 617 l 111 617 l 111 153 b 146 25 111 99 119 57 b 256 -15 171 -4 211 -15 b 500 67 353 -15 443 14 l 500 0 l 604 0 l 604 517 z m 515 964 l 407 964 l 222 732 l 307 732 z "},"Ừ":{"ha":954,"x_min":0,"x_max":0,"o":"m 958 964 l 958 965 l 958 1079 l 957 1081 l 844 1081 l 843 1079 l 843 965 l 844 964 l 875 964 l 821 919 l 821 964 l 714 964 l 714 321 b 649 124 714 250 694 179 b 479 46 607 75 544 46 b 315 124 417 46 356 75 b 254 321 271 179 254 250 l 254 964 l 131 964 l 131 321 b 233 72 131 228 167 139 b 479 -31 299 7 388 -31 b 721 72 571 -31 658 7 b 821 321 786 139 821 229 l 821 864 z m 610 1036 l 367 1206 l 213 1206 l 486 1036 z "},"ừ":{"ha":756,"x_min":0,"x_max":0,"o":"m 742 618 l 742 732 l 740 733 l 626 733 l 625 732 l 625 618 l 626 617 l 658 617 l 604 572 l 604 617 l 496 617 l 496 203 b 338 61 496 124 424 61 b 243 81 292 61 265 64 b 219 153 224 96 219 119 l 219 617 l 111 617 l 111 153 b 146 25 111 99 119 57 b 256 -15 171 -4 211 -15 b 500 67 353 -15 443 14 l 500 0 l 604 0 l 604 517 z m 456 732 l 271 964 l 163 964 l 371 732 z "},"Ử":{"ha":954,"x_min":0,"x_max":0,"o":"m 958 964 l 958 965 l 958 1079 l 957 1081 l 844 1081 l 843 1079 l 843 965 l 844 964 l 875 964 l 821 919 l 821 964 l 714 964 l 714 321 b 649 124 714 250 694 179 b 479 46 607 75 544 46 b 315 124 417 46 356 75 b 254 321 271 179 254 250 l 254 964 l 131 964 l 131 321 b 233 72 131 228 167 139 b 479 -31 299 7 388 -31 b 721 72 571 -31 658 7 b 821 321 786 139 821 229 l 821 864 z m 613 1213 b 575 1293 613 1244 600 1275 b 468 1321 547 1314 511 1321 b 343 1261 419 1321 374 1300 l 363 1206 l 364 1206 l 365 1206 b 468 1267 386 1243 425 1267 b 526 1254 494 1267 511 1264 b 543 1213 538 1246 543 1231 b 524 1183 543 1201 535 1190 b 449 1050 476 1158 449 1107 l 449 1024 l 450 1022 l 486 1022 l 488 1024 l 488 1050 b 557 1131 488 1085 511 1103 b 575 1143 565 1136 569 1139 b 613 1213 599 1158 613 1185 z "},"ử":{"ha":756,"x_min":0,"x_max":0,"o":"m 742 618 l 742 732 l 740 733 l 626 733 l 625 732 l 625 618 l 626 617 l 658 617 l 604 572 l 604 617 l 496 617 l 496 203 b 338 61 496 124 424 61 b 243 81 292 61 265 64 b 219 153 224 96 219 119 l 219 617 l 111 617 l 111 153 b 146 25 111 99 119 57 b 256 -15 171 -4 211 -15 b 500 67 353 -15 443 14 l 500 0 l 604 0 l 604 517 z m 493 889 b 456 969 493 921 481 951 b 349 997 428 990 392 997 b 224 938 300 997 254 976 l 243 882 l 244 882 l 246 882 b 349 943 267 919 306 943 b 407 931 375 943 392 940 b 424 889 418 922 424 907 b 404 860 424 878 415 867 b 329 726 357 835 329 783 l 329 700 l 331 699 l 367 699 l 368 700 l 368 726 b 438 807 368 761 392 779 b 456 819 446 813 450 815 b 493 889 479 835 493 861 z "},"Ữ":{"ha":954,"x_min":0,"x_max":0,"o":"m 958 964 l 958 965 l 958 1079 l 957 1081 l 844 1081 l 843 1079 l 843 965 l 844 964 l 875 964 l 821 919 l 821 964 l 714 964 l 714 321 b 649 124 714 250 694 179 b 479 46 607 75 544 46 b 315 124 417 46 356 75 b 254 321 271 179 254 250 l 254 964 l 131 964 l 131 321 b 233 72 131 228 167 139 b 479 -31 299 7 388 -31 b 721 72 571 -31 658 7 b 821 321 786 139 821 229 l 821 864 z m 710 1188 l 625 1188 b 571 1107 624 1140 607 1107 b 472 1153 539 1107 510 1126 b 383 1188 446 1171 418 1188 b 247 1022 318 1188 250 1131 l 332 1022 b 386 1103 333 1069 350 1103 b 485 1057 418 1103 447 1083 b 574 1022 511 1039 539 1022 b 710 1188 639 1022 707 1079 z "},"ữ":{"ha":756,"x_min":0,"x_max":0,"o":"m 742 618 l 742 732 l 740 733 l 626 733 l 625 732 l 625 618 l 626 617 l 658 617 l 604 572 l 604 617 l 496 617 l 496 203 b 338 61 496 124 424 61 b 243 81 292 61 265 64 b 219 153 224 96 219 119 l 219 617 l 111 617 l 111 153 b 146 25 111 99 119 57 b 256 -15 171 -4 211 -15 b 500 67 353 -15 443 14 l 500 0 l 604 0 l 604 517 z m 590 931 l 506 931 b 451 850 504 883 488 850 b 353 896 419 850 390 869 b 264 931 326 914 299 931 b 128 765 199 931 131 874 l 213 765 b 267 846 214 813 231 846 b 365 800 299 846 328 826 b 454 765 392 782 419 765 b 590 931 519 765 588 822 z "},"Ự":{"ha":954,"x_min":0,"x_max":0,"o":"m 958 964 l 958 965 l 958 1079 l 957 1081 l 844 1081 l 843 1079 l 843 965 l 844 964 l 875 964 l 821 919 l 821 964 l 714 964 l 714 321 b 649 124 714 250 694 179 b 479 46 607 75 544 46 b 315 124 417 46 356 75 b 254 321 271 179 254 250 l 254 964 l 131 964 l 131 321 b 233 72 131 228 167 139 b 479 -31 299 7 388 -31 b 721 72 571 -31 658 7 b 821 321 786 139 821 229 l 821 864 z m 539 -278 l 539 -154 l 415 -154 l 415 -278 z "},"ự":{"ha":756,"x_min":0,"x_max":0,"o":"m 742 618 l 742 732 l 740 733 l 626 733 l 625 732 l 625 618 l 626 617 l 658 617 l 604 572 l 604 617 l 496 617 l 496 203 b 338 61 496 124 424 61 b 243 81 292 61 265 64 b 219 153 224 96 219 119 l 219 617 l 111 617 l 111 153 b 146 25 111 99 119 57 b 256 -15 171 -4 211 -15 b 500 67 353 -15 443 14 l 500 0 l 604 0 l 604 517 z m 439 -278 l 439 -154 l 315 -154 l 315 -278 z "},"Ỳ":{"ha":926,"x_min":0,"x_max":0,"o":"m 921 964 l 799 964 l 583 650 b 560 614 576 640 569 629 l 475 482 b 425 561 449 525 449 528 l 150 964 l 4 964 l 403 386 l 403 0 l 522 0 l 522 385 z m 594 1036 l 351 1206 l 197 1206 l 471 1036 z "},"ỳ":{"ha":640,"x_min":0,"x_max":0,"o":"m 619 617 l 515 617 b 331 79 335 175 332 111 l 329 79 b 204 443 321 172 210 431 l 129 617 l 19 617 l 289 0 l 239 -125 b 160 -206 203 -206 179 -206 b 51 -183 138 -206 93 -200 l 60 -274 b 160 -285 90 -281 129 -285 b 317 -126 208 -285 260 -268 z m 418 732 l 233 964 l 125 964 l 333 732 z "},"Ỵ":{"ha":926,"x_min":0,"x_max":0,"o":"m 921 964 l 799 964 l 583 650 b 560 614 576 640 569 629 l 475 482 b 425 561 449 525 449 528 l 150 964 l 4 964 l 403 386 l 403 0 l 522 0 l 522 385 z m 524 -278 l 524 -154 l 400 -154 l 400 -278 z "},"ỵ":{"ha":640,"x_min":0,"x_max":0,"o":"m 619 617 l 515 617 b 331 79 335 175 332 111 l 329 79 b 204 443 321 172 210 431 l 129 617 l 19 617 l 289 0 l 239 -125 b 160 -206 203 -206 179 -206 b 51 -183 138 -206 93 -200 l 60 -274 b 160 -285 90 -281 129 -285 b 317 -126 208 -285 260 -268 z m 542 -278 l 542 -154 l 418 -154 l 418 -278 z "},"Ỷ":{"ha":926,"x_min":0,"x_max":0,"o":"m 921 964 l 799 964 l 583 650 b 560 614 576 640 569 629 l 475 482 b 425 561 449 525 449 528 l 150 964 l 4 964 l 403 386 l 403 0 l 522 0 l 522 385 z m 597 1213 b 560 1293 597 1244 585 1275 b 453 1321 532 1314 496 1321 b 328 1261 404 1321 358 1300 l 347 1206 l 349 1206 l 350 1206 b 453 1267 371 1243 410 1267 b 511 1254 479 1267 496 1264 b 528 1213 522 1246 528 1231 b 508 1183 528 1201 519 1190 b 433 1050 461 1158 433 1107 l 433 1024 l 435 1022 l 471 1022 l 472 1024 l 472 1050 b 542 1131 472 1085 496 1103 b 560 1143 550 1136 554 1139 b 597 1213 583 1158 597 1185 z "},"ỷ":{"ha":640,"x_min":0,"x_max":0,"o":"m 619 617 l 515 617 b 331 79 335 175 332 111 l 329 79 b 204 443 321 172 210 431 l 129 617 l 19 617 l 289 0 l 239 -125 b 160 -206 203 -206 179 -206 b 51 -183 138 -206 93 -200 l 60 -274 b 160 -285 90 -281 129 -285 b 317 -126 208 -285 260 -268 z m 456 889 b 418 969 456 921 443 951 b 311 997 390 990 354 997 b 186 938 263 997 217 976 l 206 882 l 207 882 l 208 882 b 311 943 229 919 268 943 b 369 931 338 943 354 940 b 386 889 381 922 386 907 b 367 860 386 878 378 867 b 292 726 319 835 292 783 l 292 700 l 293 699 l 329 699 l 331 700 l 331 726 b 400 807 331 761 354 779 b 418 819 408 813 413 815 b 456 889 442 835 456 861 z "},"Ỹ":{"ha":926,"x_min":0,"x_max":0,"o":"m 921 964 l 799 964 l 583 650 b 560 614 576 640 569 629 l 475 482 b 425 561 449 525 449 528 l 150 964 l 4 964 l 403 386 l 403 0 l 522 0 l 522 385 z m 694 1188 l 610 1188 b 556 1107 608 1140 592 1107 b 457 1153 524 1107 494 1126 b 368 1188 431 1171 403 1188 b 232 1022 303 1188 235 1131 l 317 1022 b 371 1103 318 1069 335 1103 b 469 1057 403 1103 432 1083 b 558 1022 496 1039 524 1022 b 694 1188 624 1022 692 1079 z "},"ỹ":{"ha":640,"x_min":0,"x_max":0,"o":"m 619 617 l 515 617 b 331 79 335 175 332 111 l 329 79 b 204 443 321 172 210 431 l 129 617 l 19 617 l 289 0 l 239 -125 b 160 -206 203 -206 179 -206 b 51 -183 138 -206 93 -200 l 60 -274 b 160 -285 90 -281 129 -285 b 317 -126 208 -285 260 -268 z m 553 931 l 468 931 b 414 850 467 883 450 850 b 315 896 382 850 353 869 b 226 931 289 914 261 931 b 90 765 161 931 93 874 l 175 765 b 229 846 176 813 193 846 b 328 800 261 846 290 826 b 417 765 354 782 382 765 b 553 931 482 765 550 822 z "},"–":{"ha":694,"x_min":0,"x_max":0,"o":"m 693 339 l 693 424 l 0 424 l 0 339 z "},"—":{"ha":1389,"x_min":0,"x_max":0,"o":"m 1388 339 l 1388 424 l 0 424 l 0 339 z "},"‖":{"ha":553,"x_min":0,"x_max":0,"o":"m 221 -301 l 221 996 b 193 1042 221 1015 221 1042 b 165 996 165 1042 165 1015 l 165 -301 b 193 -347 165 -321 165 -347 b 221 -301 221 -347 221 -321 z m 388 -301 l 388 996 b 360 1042 388 1015 388 1042 b 332 996 332 1042 332 1015 l 332 -301 b 360 -347 332 -321 332 -347 b 388 -301 388 -347 388 -321 z "},"‘":{"ha":386,"x_min":0,"x_max":0,"o":"m 250 675 l 250 790 l 215 790 l 250 964 l 193 964 l 135 789 l 135 675 z "},"’":{"ha":386,"x_min":0,"x_max":0,"o":"m 250 850 l 250 964 l 135 964 l 135 849 l 169 849 l 135 675 l 192 675 z "},"‚":{"ha":386,"x_min":0,"x_max":0,"o":"m 250 3 l 250 117 l 135 117 l 135 1 l 169 1 l 135 -172 l 192 -172 z "},"“":{"ha":656,"x_min":0,"x_max":0,"o":"m 250 675 l 250 790 l 215 790 l 250 964 l 193 964 l 135 789 l 135 675 z m 519 675 l 519 790 l 485 790 l 519 964 l 463 964 l 404 789 l 404 675 z "},"”":{"ha":656,"x_min":0,"x_max":0,"o":"m 251 850 l 251 964 l 136 964 l 136 849 l 171 849 l 136 675 l 193 675 z m 521 850 l 521 964 l 406 964 l 406 849 l 440 849 l 406 675 l 463 675 z "},"„":{"ha":656,"x_min":0,"x_max":0,"o":"m 251 3 l 251 117 l 136 117 l 136 1 l 171 1 l 136 -172 l 193 -172 z m 521 3 l 521 117 l 406 117 l 406 1 l 440 1 l 406 -172 l 463 -172 z "},"†":{"ha":617,"x_min":0,"x_max":0,"o":"m 538 597 b 486 644 538 615 529 644 b 388 625 457 644 417 633 b 321 611 383 624 349 614 b 339 768 322 639 324 678 b 354 922 346 819 354 871 b 308 979 354 933 354 979 b 261 922 261 979 261 935 b 279 760 261 874 274 793 b 294 611 289 696 293 651 b 225 625 279 613 251 618 b 129 644 199 633 158 644 b 78 599 81 644 78 606 b 129 551 78 581 86 551 b 228 571 158 551 199 563 b 294 585 232 572 267 582 b 281 488 292 550 288 522 b 261 303 261 388 261 376 b 289 -272 261 93 276 -140 b 307 -300 290 -292 292 -300 b 326 -275 324 -300 324 -293 b 342 -61 335 -206 339 -132 b 354 303 347 26 354 169 b 335 486 354 378 354 388 b 321 585 328 518 324 547 b 390 571 336 583 364 578 b 486 551 417 563 457 551 b 538 597 535 551 538 590 z "},"‡":{"ha":617,"x_min":0,"x_max":0,"o":"m 538 663 b 486 710 538 681 529 710 b 388 690 457 710 417 699 b 321 676 383 689 349 679 b 336 785 322 718 332 765 b 354 925 344 831 354 886 b 307 979 354 935 354 979 b 261 925 293 979 261 975 b 276 808 261 897 267 857 b 294 676 286 751 293 713 b 225 690 279 678 251 683 b 129 710 199 699 158 710 b 78 664 81 710 78 671 b 129 617 78 646 86 617 b 228 636 158 617 199 628 b 294 650 232 638 267 647 b 279 542 293 608 283 561 b 261 401 271 496 261 440 b 307 347 261 353 292 347 b 354 401 349 347 354 382 b 339 518 354 429 349 469 b 321 650 329 575 322 614 b 390 636 336 649 364 643 b 486 617 417 628 457 617 b 538 663 535 617 538 656 z m 538 31 b 492 76 538 54 521 76 b 397 61 464 76 440 72 b 321 44 361 50 351 47 b 339 175 324 83 329 117 b 354 292 354 253 354 285 b 308 346 354 340 324 346 b 261 292 267 346 261 311 b 281 144 261 251 272 192 b 294 44 285 129 292 86 b 203 64 263 47 258 49 b 125 76 158 76 135 76 b 78 31 90 76 78 49 b 125 -15 78 10 92 -15 b 207 -1 158 -15 192 -7 b 294 17 261 13 271 14 b 276 -114 292 -22 286 -56 b 261 -231 261 -192 261 -224 b 307 -285 261 -279 292 -285 b 354 -231 349 -285 354 -250 b 335 -83 354 -190 343 -131 b 321 17 331 -68 324 -25 b 413 -3 353 14 357 13 b 490 -15 458 -15 483 -15 b 538 31 524 -15 538 10 z "},"•":{"ha":1081,"x_min":0,"x_max":0,"o":"m 739 168 l 739 565 l 342 565 l 342 168 z "},"…":{"ha":869,"x_min":0,"x_max":0,"o":"m 251 0 l 251 115 l 136 115 l 136 0 z m 493 0 l 493 115 l 378 115 l 378 0 z m 735 0 l 735 115 l 619 115 l 619 0 z "},"‰":{"ha":1603,"x_min":0,"x_max":0,"o":"m 1515 201 b 1325 482 1515 368 1422 482 b 1131 203 1224 482 1131 365 b 1325 -78 1131 36 1226 -78 b 1515 201 1424 -78 1515 40 z m 1033 201 b 843 482 1033 368 940 482 b 649 203 742 482 649 365 b 843 -78 649 36 744 -78 b 1033 201 942 -78 1033 40 z m 472 761 b 282 1042 472 928 379 1042 b 88 763 181 1042 88 925 b 282 482 88 596 183 482 b 472 761 381 482 472 600 z m 871 1014 b 843 1042 871 1029 858 1042 b 814 1019 826 1042 819 1028 l 210 -25 b 200 -50 210 -25 200 -40 b 228 -78 200 -65 214 -78 b 257 -56 243 -78 250 -68 l 860 989 b 871 1014 871 1006 871 1008 z m 1419 203 b 1325 7 1419 96 1379 7 b 1235 201 1310 7 1235 11 b 1325 397 1235 386 1306 397 b 1419 203 1381 397 1419 304 z m 376 763 b 282 567 376 656 336 567 b 192 761 267 567 192 571 b 282 957 192 946 263 957 b 376 763 338 957 376 864 z m 938 203 b 843 7 938 96 897 7 b 753 201 828 7 753 11 b 843 397 753 386 824 397 b 938 203 899 397 938 304 z "},"‱":{"ha":2043,"x_min":0,"x_max":0,"o":"m 1988 201 b 1797 482 1988 368 1894 482 b 1603 203 1696 482 1603 365 b 1797 -78 1603 36 1699 -78 b 1988 201 1896 -78 1988 40 z m 1506 201 b 1315 482 1506 368 1413 482 b 1121 203 1214 482 1121 365 b 1315 -78 1121 36 1217 -78 b 1506 201 1414 -78 1506 40 z m 463 761 b 272 1042 463 928 369 1042 b 78 763 171 1042 78 925 b 272 482 78 596 174 482 b 463 761 371 482 463 600 z m 1024 201 b 833 482 1024 368 931 482 b 639 203 732 482 639 365 b 833 -78 639 36 735 -78 b 1024 201 932 -78 1024 40 z m 861 1014 b 833 1042 861 1029 849 1042 b 804 1019 817 1042 810 1028 l 200 -25 b 190 -50 200 -25 190 -40 b 218 -78 190 -65 204 -78 b 247 -56 233 -78 240 -68 l 850 989 b 861 1014 861 1006 861 1008 z m 1892 203 b 1797 7 1892 96 1851 7 b 1707 201 1782 7 1707 11 b 1797 397 1707 386 1778 397 b 1892 203 1853 397 1892 304 z m 1410 203 b 1315 7 1410 96 1369 7 b 1225 201 1300 7 1225 11 b 1315 397 1225 386 1296 397 b 1410 203 1371 397 1410 304 z m 367 763 b 272 567 367 656 326 567 b 182 761 257 567 182 571 b 272 957 182 946 253 957 b 367 763 328 957 367 864 z m 928 203 b 833 7 928 96 888 7 b 743 201 818 7 743 11 b 833 397 743 386 814 397 b 928 203 889 397 928 304 z "},"‹":{"ha":463,"x_min":0,"x_max":0,"o":"m 385 0 l 263 304 l 385 610 l 300 610 l 154 304 l 300 0 z "},"›":{"ha":463,"x_min":0,"x_max":0,"o":"m 308 304 l 163 610 l 78 610 l 200 304 l 78 0 l 163 0 z "},"※":{"ha":1081,"x_min":0,"x_max":0,"o":"m 867 21 b 854 72 886 40 868 58 l 579 347 l 853 622 b 867 674 867 636 886 654 b 814 661 846 693 828 675 l 540 388 l 265 663 b 213 675 251 676 233 694 b 226 622 193 656 213 636 l 501 347 l 226 72 b 213 21 213 58 193 40 b 265 33 233 1 251 19 l 540 308 l 815 33 b 867 21 829 19 847 1 z m 301 347 b 253 396 301 375 281 396 b 204 347 226 396 204 375 b 253 299 204 321 226 299 b 301 347 281 299 301 321 z m 589 635 b 540 683 589 661 567 683 b 492 635 514 683 492 661 b 540 586 492 608 514 586 b 589 635 567 586 589 608 z m 589 61 b 540 110 589 88 567 110 b 492 61 514 110 492 88 b 540 13 492 33 514 13 b 589 61 567 13 589 33 z m 875 347 b 826 396 875 375 854 396 b 778 347 800 396 778 375 b 826 299 778 321 800 299 b 875 347 854 299 875 321 z "},"‽":{"ha":656,"x_min":0,"x_max":0,"o":"m 386 0 l 386 115 l 271 115 l 271 0 z m 558 764 b 374 976 558 865 510 958 l 374 1008 l 282 1008 l 282 978 b 60 906 211 971 133 949 l 92 818 b 283 892 161 868 232 886 l 290 399 b 282 288 285 363 282 325 l 282 243 l 375 243 l 375 322 b 490 597 375 389 396 501 b 558 764 515 622 558 665 z m 450 767 b 408 657 450 701 429 679 b 368 607 393 642 381 624 l 372 890 b 450 767 426 878 450 839 z "},"⁄":{"ha":775,"x_min":0,"x_max":0,"o":"m 697 936 l 633 936 l 78 28 l 142 28 z "},"⁅":{"ha":501,"x_min":0,"x_max":0,"o":"m 428 -429 l 428 -344 l 365 -344 b 208 -178 274 -344 208 -282 l 208 124 b 426 306 208 253 315 306 l 426 392 b 207 571 325 392 207 440 b 208 615 207 586 208 600 l 208 864 b 364 960 208 946 288 960 b 428 958 386 960 407 958 l 428 1043 b 118 947 321 1043 172 1033 b 100 850 100 917 100 885 l 100 617 b 99 571 100 601 99 586 b 238 368 99 478 146 404 b 314 350 261 358 288 350 l 314 347 b 100 132 203 347 100 250 l 100 -162 b 428 -429 100 -353 274 -429 z "},"⁆":{"ha":501,"x_min":0,"x_max":0,"o":"m 401 -153 l 401 126 b 263 329 401 218 354 299 b 186 347 239 339 213 347 l 186 350 b 401 569 307 350 401 453 l 401 850 b 383 947 401 885 401 917 b 75 1043 329 1033 182 1043 l 75 958 b 136 960 96 958 115 960 b 293 864 199 960 293 954 l 293 569 b 74 392 293 463 210 392 l 74 306 b 293 128 182 306 293 256 l 293 -167 b 136 -262 293 -250 208 -262 b 75 -261 115 -262 96 -261 l 75 -346 b 383 -250 182 -346 329 -336 b 401 -153 401 -219 401 -187 z "},"⁒":{"ha":694,"x_min":0,"x_max":0,"o":"m 617 1014 b 590 1043 617 1029 606 1043 b 582 1042 590 1043 585 1043 b 560 1018 569 1039 564 1028 l 546 992 l 114 113 b 78 31 103 89 78 53 b 106 1 78 15 88 1 l 107 1 b 135 28 122 3 128 15 l 232 226 l 418 604 l 497 767 l 589 953 b 617 1014 599 971 617 999 z m 276 894 l 276 1008 b 240 1043 276 1036 260 1043 l 144 1043 b 126 1042 138 1043 132 1043 b 104 1001 107 1036 104 1019 l 104 906 b 140 871 104 878 121 871 l 238 871 b 276 894 260 871 272 876 z m 589 25 l 589 139 b 553 174 589 167 572 174 l 457 174 b 439 172 450 174 444 174 b 417 132 419 167 417 150 l 417 36 b 453 1 417 8 433 1 l 550 1 b 589 25 572 1 585 7 z "},"₡":{"ha":888,"x_min":0,"x_max":0,"o":"m 817 47 l 808 143 b 550 58 708 72 646 58 l 532 58 l 532 906 l 546 906 b 781 833 656 906 722 871 l 801 946 b 547 994 714 979 639 994 l 532 994 l 532 1097 l 443 1097 l 443 982 b 93 482 233 929 93 717 b 443 -18 93 250 231 36 l 443 -133 l 532 -133 l 532 -31 l 549 -31 b 817 47 664 -31 718 -12 z m 443 78 b 217 482 299 136 217 308 b 443 886 217 665 307 831 z "},"₤":{"ha":926,"x_min":0,"x_max":0,"o":"m 833 206 l 725 206 b 640 78 725 142 697 78 b 519 97 599 78 558 86 b 293 135 444 115 369 135 b 369 342 332 199 361 268 l 371 347 l 556 347 l 556 436 l 369 436 b 361 481 368 451 365 467 b 350 517 358 493 354 504 l 346 528 l 556 528 l 556 617 l 311 617 l 308 629 b 471 856 282 744 360 856 b 632 682 563 856 632 776 l 740 682 b 471 964 740 836 622 964 b 200 617 294 964 167 796 l 93 617 l 93 528 l 231 528 l 249 479 l 257 453 b 260 436 258 447 260 442 l 93 436 l 93 347 l 261 347 b 104 58 246 238 176 144 l 189 -11 b 493 -8 242 54 382 19 b 640 -31 542 -21 590 -31 b 833 206 756 -31 833 82 z "},"₦":{"ha":983,"x_min":0,"x_max":0,"o":"m 908 347 l 908 436 l 849 436 l 849 528 l 908 528 l 908 617 l 849 617 l 849 964 l 740 964 l 740 617 l 481 617 l 306 964 l 133 964 l 133 617 l 74 617 l 74 528 l 133 528 l 133 436 l 74 436 l 74 347 l 133 347 l 133 0 l 242 0 l 242 347 l 501 347 l 676 0 l 849 0 l 849 347 z m 365 617 l 242 617 l 242 865 l 243 865 l 336 675 z m 457 436 l 242 436 l 242 528 l 410 528 z m 740 436 l 571 436 l 525 528 l 740 528 z m 740 99 l 739 99 l 646 289 l 617 347 l 740 347 z "},"₩":{"ha":1311,"x_min":0,"x_max":0,"o":"m 1290 347 l 1290 436 l 1136 436 l 1163 528 l 1290 528 l 1290 617 l 1189 617 l 1290 964 l 1190 964 l 1090 617 l 817 617 l 717 964 l 604 964 l 504 617 l 239 617 l 139 964 l 19 964 l 121 617 l 19 617 l 19 528 l 147 528 l 174 436 l 19 436 l 19 347 l 200 347 l 301 0 l 414 0 l 514 347 l 788 347 l 888 0 l 1008 0 l 1110 347 z m 763 436 l 540 436 l 553 482 l 567 528 l 736 528 z m 478 528 l 453 436 l 290 436 l 264 528 z m 428 347 b 372 103 401 250 376 149 l 371 103 b 317 340 365 158 328 294 l 315 347 z m 1064 528 l 1038 436 l 868 436 l 853 490 l 842 528 z m 1013 347 b 954 100 985 246 958 143 l 953 100 b 893 347 953 100 947 150 z m 711 617 l 592 617 b 650 863 618 711 644 815 l 651 863 b 711 617 656 828 681 726 z "},"₫":{"ha":718,"x_min":0,"x_max":0,"o":"m 675 757 l 675 842 l 572 842 l 572 964 l 474 964 l 474 842 l 274 842 l 274 757 l 474 757 l 474 576 b 281 649 404 635 329 649 b 47 342 150 649 47 511 b 275 33 47 168 149 33 b 469 117 318 33 396 46 l 469 49 l 572 49 l 572 757 z m 675 -89 l 675 0 l 47 0 l 47 -89 z m 469 232 b 426 151 469 213 468 189 b 329 114 396 125 363 114 b 150 340 247 114 150 176 b 342 568 150 514 264 568 b 469 496 401 568 440 538 z "},"€":{"ha":832,"x_min":0,"x_max":0,"o":"m 763 47 l 754 144 b 551 58 688 75 647 58 b 368 182 474 58 410 115 b 304 354 336 236 315 294 l 643 354 l 657 432 l 294 432 b 293 482 293 449 293 465 b 294 532 293 499 293 515 l 674 532 l 688 610 l 304 610 b 368 782 315 671 336 729 b 551 906 410 850 474 906 b 726 832 625 906 675 885 l 747 947 b 551 994 681 982 628 994 b 282 844 443 994 347 932 b 182 610 231 775 199 694 l 85 610 l 71 532 l 172 532 b 171 482 171 515 171 499 b 172 432 171 465 171 449 l 85 432 l 71 354 l 182 354 b 282 119 199 269 231 189 b 551 -31 347 32 443 -31 b 763 47 649 -31 689 -15 z "},"₱":{"ha":888,"x_min":0,"x_max":0,"o":"m 808 683 b 479 964 808 832 671 964 l 133 964 l 133 286 l 28 286 l 28 197 l 133 197 l 133 0 l 257 0 l 257 197 l 443 197 l 443 286 l 257 286 l 257 401 l 489 401 b 808 683 661 401 808 528 z m 696 683 b 449 482 696 574 608 482 l 253 482 l 253 886 l 449 886 b 696 683 601 886 696 801 z "}}}
